<svg xmlns="http://www.w3.org/2000/svg" viewBox="0 0 152.9296 25"><defs><style>.a{fill:#fff;}</style></defs><title>automobileLogo</title><path class="a" d="M15.4872,15.6612H7.1056L6.0035,18.5324c-1.6822,4.3505-1.1021,5.4525,2.059,5.9745v.4641H0v-.4641c2.2621-.6089,3.4222-1.8271,4.9885-5.7134L12.5,0h.7541l7.7146,20.9107c.9861,2.61,1.5081,3.2772,4.2054,3.6253V25H14.5882v-.464c3.3062-.1451,3.7124-.8991,2.9872-2.9583Zm-.232-.6959L11.6011,4.5243h-.1452l-4.06,10.47h7.86ZM55.3365,24.971h4.118a8.2669,8.2669,0,0,0,5.8585-8.0626,7.9045,7.9045,0,0,0-7.6256-8.174q-.117-.0041-.234-.0047a8.1408,8.1408,0,0,0-7.8887,8.2947A7.9948,7.9948,0,0,0,55.3365,24.971ZM57.3087,9.3677c2.7843,0,4.6984,1.8852,4.6984,7.5986,0,5.7425-1.6821,7.6566-4.3793,7.6566-2.7841,0-4.6983-1.9141-4.6983-7.6566C52.9293,11.2529,54.5535,9.3677,57.3087,9.3677ZM75.1742,24.5644c1.7691-.0291,2.2331-.203,2.2331-1.3921V14.5882c0-2.7843-.812-4.2343-2.9291-4.2343-1.7111,0-3.0163,1.3631-4.0025,3.4513v9.3967c0,1.189.232,1.3631,1.9722,1.3921V25H65.0234v-.406c2.001-.029,2.5232-.2031,2.5232-1.3921V11.3108c0-1.0448-.5225-1.74-2.5232-1.769V9.1357l5.3944-.1449V12.906c1.5661-2.6681,3.48-4.0312,5.8294-4.0312A3.7735,3.7735,0,0,1,80.2451,12.41q.0027.0451.0044.09a7.2077,7.2077,0,0,1,5.8292-3.6252c2.4941,0,4.06,1.566,4.06,4.6983v9.6288c0,1.189.4931,1.3631,2.5232,1.3921V25H85.209v-.406c1.7692-.029,2.03-.2031,2.03-1.3921V14.5882c0-2.7843-.812-4.2343-2.9293-4.2343a4.9655,4.9655,0,0,0-4.0023,2.9582v9.8608c0,1.1891.4931,1.3631,2.5232,1.3921v.406H75.1452v-.406Zm49.3911,0c2.0011-.0291,2.5232-.203,2.5232-1.3921V11.282c0-1.0441-.5224-1.74-2.5232-1.7693V9.1068l5.4524-.1451V23.1729c0,1.1891.464,1.3631,2.6392,1.3921v.406h-8.0916ZM126.45,3.7116a1.8986,1.8986,0,0,1,1.7312-2.0524q.0914-.0077.183-.0066a1.988,1.988,0,0,1,0,3.9734A1.7822,1.7822,0,0,1,126.45,3.7122Zm4.64,20.8528c2.0011-.0291,2.5232-.203,2.5232-1.3921V2.4072c0-1.2471-.348-1.7111-2.9293-1.7692V.203l5.8585-.1451v23.115c0,1.1891.493,1.3631,2.5232,1.3921v.406h-8.0046v-.406ZM24.768,11.2246v9.31c0,2.4072.9571,3.8863,2.5814,4.4373h3.3359A7.8282,7.8282,0,0,0,34.92,21.2305v3.7412h5.3945v-.3769c-2.03-.029-2.5232-.464-2.5232-1.2761V8.9625l-5.4814.145v.406c2.001.029,2.5814.667,2.5814,1.7111v9.1068c-.986,2.0882-2.4072,3.3932-4.0893,3.3932-2.2912,0-3.0453-1.45-3.0453-4.2343V8.9617l-5.4814.1451v.4059C24.2163,9.5418,24.768,10.18,24.768,11.2246Zm73.26,13.7471h4.118a8.2667,8.2667,0,0,0,5.8594-8.0633,7.9045,7.9045,0,0,0-7.6256-8.174q-.117-.0041-.2341-.0047a8.1409,8.1409,0,0,0-7.8886,8.2947,7.9627,7.9627,0,0,0,5.7709,7.9466ZM99.9713,9.3685c2.7841,0,4.6983,1.8852,4.6983,7.5986,0,5.7425-1.6822,7.6566-4.3792,7.6566-2.7842,0-4.6984-1.9141-4.6984-7.6566,0-5.7142,1.624-7.5994,4.3793-7.5994ZM41.9665,20.9107c0,2.059.5224,3.4223,1.7691,4.06h3.77a6.4527,6.4527,0,0,0,2.8713-2.9583L50,21.7228c-1.0151,1.6241-2.1173,2.3491-3.1323,2.3491-1.3631,0-1.9722-.725-1.9722-2.8712v-11.05h4.93V9.1068h-4.93V3.3353L41.9665,4.5824V8.9908L38.66,9.8027v.348h3.3064ZM109.8033,2.4072V22.3608L109.7163,25h.754l1.1892-1.421A9.98,9.98,0,0,0,114.7337,25h4.4084c3.3063-1.0151,5.3075-4.5243,5.3075-8.44,0-4.4954-2.4362-7.7728-6.4382-7.7728a6.8618,6.8618,0,0,0-5.2785,2.4944V.0579l-5.83.1451V.6091C109.455.6961,109.8033,1.1311,109.8033,2.4072Zm2.929,9.57a4.729,4.729,0,0,1,3.8568-1.9722c2.8713,0,4.6114,2.8131,4.6114,6.6994,0,4.7274-1.3921,7.9177-4.4084,7.9177a4.3659,4.3659,0,0,1-4.06-3.0162V11.9776Zm31.4095,12.9929h4.2924a7.753,7.753,0,0,0,4.4954-3.7992l-.3771-.29c-1.45,1.8852-2.6973,3.0163-4.9594,3.0163-3.7412,0-5.5974-3.1613-5.5974-7.0476v-.0291c0-.319,0-.667.029-.986h10.76a6.1673,6.1673,0,0,0-6.5255-7.0765,8.048,8.048,0,0,0-7.5408,8.4106,7.7211,7.7211,0,0,0,5.4235,7.8021ZM146.027,9.3672c2.8713,0,3.8283,2.1463,3.5093,5.9158h-7.5406c.319-3.9431,1.7981-5.9153,4.0313-5.9153Z"/></svg>