<svg xmlns="http://www.w3.org/2000/svg" viewBox="0 0 100 100"><defs><style>.a{fill:#fff;}</style></defs><title>automobileLogo</title><path class="a" d="M10.0791,52.0573H4.6243l-.7172,1.8686c-1.0948,2.8313-.7173,3.5485,1.34,3.8882v.302H0v-.302c1.4722-.3963,2.2272-1.1891,3.2465-3.7183L8.135,41.865h.4908l5.0206,13.6087c.6418,1.6987.9815,2.1328,2.7369,2.3593v.302H9.494v-.302c2.1517-.0944,2.416-.5851,1.9441-1.9252Zm-.151-.4529L7.55,44.8094H7.4555L4.8131,51.6232h5.115ZM36.013,58.1161h2.68a5.38,5.38,0,0,0,3.8127-5.2471,5.1443,5.1443,0,0,0-5.115-5.3227,5.2981,5.2981,0,0,0-5.134,5.3982A5.203,5.203,0,0,0,36.013,58.1161Zm1.2835-10.1546c1.812,0,3.0577,1.2269,3.0577,4.9452,0,3.7372-1.0947,4.9829-2.85,4.9829-1.8119,0-3.0577-1.2457-3.0577-4.9829C34.4464,49.1884,35.5034,47.9615,37.2965,47.9615Zm11.6269,9.89c1.1513-.0189,1.4533-.1321,1.4533-.906V51.359c0-1.812-.5285-2.7557-1.9063-2.7557-1.1136,0-1.963.8871-2.6048,2.2461v6.1154c0,.7738.151.8871,1.2835.906v.2642H42.3172v-.2642c1.3023-.0189,1.6421-.1322,1.6421-.906V49.2261c0-.68-.34-1.1324-1.6421-1.1513v-.2643l3.5107-.0943v2.548c1.0192-1.7364,2.265-2.6235,3.7938-2.6235A2.4558,2.4558,0,0,1,52.2264,50,4.6908,4.6908,0,0,1,56.02,47.6407c1.6232,0,2.6424,1.0192,2.6424,3.0577v6.2664c0,.7738.3209.8871,1.6421.906v.2642H55.454v-.2642c1.1514-.0189,1.3213-.1322,1.3213-.906V51.359c0-1.812-.5285-2.7557-1.9064-2.7557a3.2316,3.2316,0,0,0-2.6047,1.9252v6.4174c0,.7739.3209.8871,1.6421.906v.2642H48.9045v-.2642Zm32.1437,0c1.3023-.0189,1.6421-.1321,1.6421-.906V49.2073c0-.6795-.34-1.1325-1.6421-1.1514v-.2642l3.5484-.0944v9.2486c0,.7739.302.8871,1.7176.906v.2642h-5.266Zm1.2268-13.571a1.2356,1.2356,0,0,1,1.2458-1.34,1.2938,1.2938,0,0,1,0,2.5859A1.16,1.16,0,0,1,82.2939,44.2809Zm3.02,13.571c1.3023-.0189,1.6421-.1321,1.6421-.906V43.4316c0-.8116-.2265-1.1136-1.9064-1.1514v-.2831l3.8127-.0944V56.9459c0,.7739.3209.8871,1.6421.906v.2642H85.295v-.2642ZM16.119,49.17v6.0588c0,1.5666.6229,2.5292,1.68,2.8878H19.97a5.0948,5.0948,0,0,0,2.7557-2.4348v2.4348h3.5107v-.2453c-1.3212-.0189-1.6421-.302-1.6421-.8305v-9.343l-3.5673.0944v.2642c1.3023.0189,1.68.4341,1.68,1.1136v5.9267c-.6417,1.359-1.5666,2.2083-2.6613,2.2083-1.4911,0-1.9819-.9437-1.9819-2.7557V47.6973l-3.5673.0944v.2642C15.76,48.0748,16.119,48.49,16.119,49.17Zm47.6777,8.9466h2.68A5.38,5.38,0,0,0,70.29,52.869a5.1443,5.1443,0,0,0-5.1151-5.3227,5.2981,5.2981,0,0,0-5.1339,5.3982A5.182,5.182,0,0,0,63.7967,58.1161Zm1.2646-10.1546c1.8119,0,3.0577,1.2269,3.0577,4.9452,0,3.7372-1.0948,4.9829-2.85,4.9829-1.812,0-3.0577-1.2457-3.0577-4.9829C62.2112,49.1884,63.2682,47.9615,65.0613,47.9615ZM27.3118,55.4737c0,1.34.34,2.2272,1.1513,2.6424h2.4537a4.1993,4.1993,0,0,0,1.8686-1.9252l-.2453-.1887c-.6606,1.057-1.3779,1.5288-2.0385,1.5288-.8871,0-1.2835-.4718-1.2835-1.8686V48.4711h3.2087v-.6794H29.2181V44.0356l-1.9063.8116v2.869l-2.1518.5284v.2265h2.1518v7.0026ZM71.46,43.4316V56.4174l-.0566,1.7176h.4907l.7739-.9248a6.4944,6.4944,0,0,0,2.0007.9248h2.869c2.1517-.6606,3.4541-2.9444,3.4541-5.4925,0-2.9256-1.5855-5.0585-4.19-5.0585a4.4655,4.4655,0,0,0-3.4352,1.6233V41.9027l-3.7939.0944v.2643C71.2333,42.318,71.46,42.6011,71.46,43.4316ZM73.3662,49.66a3.0776,3.0776,0,0,1,2.51-1.2835c1.8686,0,3.0011,1.8308,3.0011,4.36,0,3.0766-.906,5.1528-2.869,5.1528a2.8413,2.8413,0,0,1-2.6424-1.9629V49.66Zm20.4413,8.4558H96.601a5.0458,5.0458,0,0,0,2.9256-2.4725l-.2454-.1888c-.9437,1.2269-1.7554,1.963-3.2276,1.963-2.4348,0-3.6428-2.0574-3.6428-4.5866v-.0189c0-.2076,0-.4341.0189-.6417h7.0025a4.0138,4.0138,0,0,0-4.2468-4.6054,5.2376,5.2376,0,0,0-4.9075,5.4736A5.0248,5.0248,0,0,0,93.8075,58.1161Zm1.2269-10.1546c1.8686,0,2.4914,1.3968,2.2838,3.85H92.4108C92.6184,49.245,93.581,47.9615,95.0344,47.9615Z"/></svg>