<svg xmlns="http://www.w3.org/2000/svg" viewBox="0 0 317.8375 25"><defs><style>.a{fill:#fff;}</style></defs><title>autoknowledgeLogo</title><path class="a" d="M19.0364,24.3256l-2.4052-5.834H7.0557l-2.4052,5.834H0L10.0506.6753h3.7441l10.05,23.65ZM11.8649,6.5466l-3.51,8.5955h6.9769Z"/><path class="a" d="M36.109,24.9934c-6.2269,0-10.8774-3.5842-10.8774-11.5848V.6743H30.118V13.2489c0,5.1243,2.2066,7.6057,6.07,7.6057s6.07-2.4815,6.07-7.6057V.6743h4.69V13.4076C46.9487,21.4092,42.3359,24.9934,36.109,24.9934Z"/><path class="a" d="M62.8,4.42V24.3256H57.991V4.42h-8V.6743H70.8018V4.42Z"/><path class="a" d="M84.2873,24.9934A12.5,12.5,0,0,1,83.4818.0065q.4027-.013.8055,0a12.4967,12.4967,0,0,1,.5694,24.9869Q84.572,25,84.2873,24.9934Zm0-21.1659a7.8589,7.8589,0,0,0-7.8459,8.6737,7.83,7.83,0,1,0,15.5694,0,7.8157,7.8157,0,0,0-7.7235-8.6737Z"/><path class="a" d="M116.4558,24.3256,105.9714,13.17V24.3256h-4.8076V.6743h4.8076V11.4751l9.5767-10.8H120.79L110.5822,11.9473l11.787,12.3783Z"/><path class="a" d="M141.2928,24.3256,128.9161,8.7169V24.3256h-4.2954V.6743h3.35L140.3468,16.285V.6743h4.2955V24.3256Z"/><path class="a" d="M161.6363,24.9934a12.3974,12.3974,0,1,1,.4783.0052Q161.8753,25.0007,161.6363,24.9934Zm0-21.1659a7.859,7.859,0,0,0-7.8433,8.6737,7.83,7.83,0,1,0,15.5691,0,7.8163,7.8163,0,0,0-7.7258-8.6737Z"/><path class="a" d="M200.8242,24.3256h-3.5079l-4.69-14.1485a12.2581,12.2581,0,0,1-.4754-1.8127c-.038.038-.355,1.3373-.51,1.8127l-4.69,14.1485h-3.5079L175.32.6753h4.77l4.77,14.8594c.1584.5134.4342,2.0506.4754,2.2089l.5893-2.2089L190.4981.6753h3.4287l4.6109,14.8594c.1587.5546.5517,2.2089.5517,2.2089a20.7872,20.7872,0,0,1,.4754-2.2089L204.2928.6753h4.6109Z"/><path class="a" d="M211.8677,24.3256V.6743h4.8076V20.5788h10.6035v3.7468Z"/><path class="a" d="M230.359,24.3256V.6743H245.77V4.42H235.1662V9.9785h8.6319V13.721h-8.6319v6.8578H245.77v3.7468Z"/><path class="a" d="M258.5822,24.3256h-8.3154V.6743h8.3154c9.4593,0,13.44,5.3219,13.44,11.8269S268.0415,24.3256,258.5822,24.3256Zm-.2346-19.7871H255.074V20.4627h3.2736c6.4615,0,8.75-3.2324,8.75-7.9605s-2.2881-7.9646-8.75-7.9646Z"/><path class="a" d="M287.5213,24.9934a12.4194,12.4194,0,1,1-.3065-24.837q.31-.0039.62.0078A14.7722,14.7722,0,0,1,296.23,2.5655V6.9421a11.7085,11.7085,0,0,0-7.9225-2.9186,8.6857,8.6857,0,0,0-.2758,17.3439,9.9233,9.9233,0,0,0,4.5729-.9855v-4.61h-4.1767v-3.55h8.7876V22.6706A24.2467,24.2467,0,0,1,287.5213,24.9934Z"/><path class="a" d="M302.4268,24.3256V.6743h15.4107V4.42H307.2323V9.9785h8.6319V13.721h-8.6319v6.8578h10.6036v3.7468Z"/></svg>