<svg xmlns="http://www.w3.org/2000/svg" viewBox="0 0 100 100"><defs><style>.a{fill:#fff;}</style></defs><title>autoknowledgeLogo</title><path class="a" d="M6.65,53.22l-.7412-1.7978H2.958L2.2168,53.22H.7837l3.0972-7.2881H5.0347L8.1318,53.22ZM4.44,47.7412,3.3584,50.39h2.15Z"/><path class="a" d="M11.9111,53.4258c-1.9189,0-3.352-1.1045-3.352-3.57V45.9316h1.5058v3.875c0,1.5791.68,2.3438,1.8706,2.3438s1.8707-.7647,1.8707-2.3438v-3.875h1.4453v3.9239C15.2515,52.3213,13.83,53.4258,11.9111,53.4258Z"/><path class="a" d="M20.1362,47.0859V53.22H18.6543V47.0859H16.189V45.9316h6.4131v1.1543Z"/><path class="a" d="M26.7578,53.4258a3.852,3.852,0,1,1,0-7.7,3.851,3.851,0,1,1,0,7.7Zm0-6.5225A2.4218,2.4218,0,0,0,24.34,49.5762a2.4129,2.4129,0,1,0,4.7979,0A2.4084,2.4084,0,0,0,26.7578,46.9033Z"/><path class="a" d="M36.6709,53.22,33.44,49.7822V53.22H31.9585V45.9316H33.44V49.26l2.9512-3.3282h1.6152l-3.1455,3.4737L38.4932,53.22Z"/><path class="a" d="M44.3247,53.22,40.5107,48.41v4.81H39.187V45.9316h1.0322l3.814,4.8106V45.9316h1.3237V53.22Z"/><path class="a" d="M50.5938,53.4258a3.851,3.851,0,1,1,3.9355-3.85A3.82,3.82,0,0,1,50.5938,53.4258Zm0-6.5225a2.4219,2.4219,0,0,0-2.417,2.6729,2.4128,2.4128,0,1,0,4.7978,0A2.4085,2.4085,0,0,0,50.5938,46.9033Z"/><path class="a" d="M62.67,53.22h-1.081l-1.4453-4.36a3.774,3.774,0,0,1-.1465-.5586c-.0117.0117-.1094.4121-.1573.5586l-1.4453,4.36h-1.081l-2.503-7.2881h1.47l1.47,4.5791c.0488.1582.1338.6319.1465.6807l.1816-.6807,1.4092-4.5791h1.0566l1.4209,4.5791c.0489.1709.17.6807.17.6807a6.4149,6.4149,0,0,1,.1465-.6807l1.457-4.5791h1.4209Z"/><path class="a" d="M66.0732,53.22V45.9316h1.4815v6.1338h3.2676V53.22Z"/><path class="a" d="M71.7715,53.22V45.9316h4.749v1.1543H73.2529v1.7129h2.66v1.1533h-2.66v2.1133h3.2676V53.22Z"/><path class="a" d="M80.4688,53.22H77.9063V45.9316h2.5625c2.915,0,4.1416,1.64,4.1416,3.6446S83.3838,53.22,80.4688,53.22Zm-.0723-6.0976H79.3877v4.9072h1.0088c1.9912,0,2.6963-.9961,2.6963-2.4531S82.3877,47.1221,80.3965,47.1221Z"/><path class="a" d="M89.3867,53.4258a3.8272,3.8272,0,1,1,.0967-7.6514,4.5521,4.5521,0,0,1,2.5869.74v1.3487a3.608,3.608,0,0,0-2.4414-.8994,2.6766,2.6766,0,0,0-.085,5.3447,3.0575,3.0575,0,0,0,1.4092-.3037V50.584H89.666V49.49h2.708v3.22A7.4715,7.4715,0,0,1,89.3867,53.4258Z"/><path class="a" d="M93.98,53.22V45.9316h4.749v1.1543H95.4609v1.7129h2.66v1.1533h-2.66v2.1133h3.2676V53.22Z"/></svg>