<svg xmlns="http://www.w3.org/2000/svg" viewBox="0 0 103.5457 100"><defs><style>.a{fill:#be1e2d;}</style></defs><title>byzantiumLogo</title><path class="a" d="M50.9385.0018C66.6753-.1067,79.1479,4.68,89.4553,14.6827c13.1928,12.8032,16.6826,28.62,12.2953,45.9C96.8337,79.9489,83.9914,92.6291,64.9024,98.0593c-11.8723,3.3773-24.0571,2.0955-35.7908-1.9077C19.7837,92.9692,13.6027,85.9737,8.4133,78.0844-.4244,64.6485-2,49.9443,2.2862,34.7124,7.2421,17.1005,24.9868,2.5461,43.17.5793,46.1986.2517,49.2488.1241,50.9385.0018Zm1.1755,96.956c15.95-.2761,29.8273-7.9,39.6756-21.9679,7.9623-11.3735,9.8555-24.39,6.1189-37.9327-1.1951-4.3315-2.148-8.9616-4.4309-12.7132A42.4322,42.4322,0,0,0,73.0644,7.0857C58.8,1.1567,44.357,1.0152,30.4585,7.5516,14.815,14.9087,4.8489,26.925,3.2258,44.8907,1.63,62.5505,7.9657,76.867,21.39,87.99,29.7363,94.9059,39.9577,96.7841,52.114,96.9578Z"/><path class="a" d="M51.6765,5.2292c5.9047-.0233,11.8409.4514,17.1212,3.0477,11.28,5.5466,19.977,13.9036,24.81,25.71a33.95,33.95,0,0,1,1.9491,17.4852A53.6282,53.6282,0,0,1,81.3753,81.5033C75.253,88.0491,66.8967,91.17,58.18,92.5917c-14.3815,2.3457-27.3745-1.16-38.3239-10.9156C12.1049,74.77,8.2368,65.74,7.0388,55.5232a51.1049,51.1049,0,0,1,.7424-15.8587c1.7507-8.9434,6.7722-15.985,13.1743-22.0713A43.03,43.03,0,0,1,45.68,5.5919C47.6634,5.3446,49.677,5.3437,51.6765,5.2292ZM59.8,76.1946a34.916,34.916,0,0,1-2.388,4.4829c-2.4019,3.2573-5.9512,3.5849-9.3678,1.0379-2.7589-2.0567-2.9048-4.4321-.4848-7.9676.4918-.7186,1.0358-1.4049,1.4813-2.15a4.481,4.481,0,0,0,.84-1.8731c.13-3.2141.2084-6.4348.1476-9.65-.029-1.53-.9005-2.5968-3.1846-2.9158a29.8956,29.8956,0,0,0-2.7143,3.4961c-4.54,7.8276-9.28,15.4269-18.3966,18.6658.7285,2.8586,1.706,4.1761,4.5115,5.034a134.5,134.5,0,0,0,13.1031,3.4865A35.77,35.77,0,0,0,71.28,82.444a11.2256,11.2256,0,0,0,4.3367-4.7857c-3.8538-1.8-6.3643-4.6032-8.6375-7.94-2.8276-4.1506-6.3257-7.8486-9.5951-11.69a16.5023,16.5023,0,0,0-2.6392-1.9436c-.3477,1.5713-.6711,2.6053-.7891,3.6623-.1928,1.7278.0041,3.5368-.4242,5.1924-.7414,2.8659.4831,4.8626,2.2841,6.7841C57.0571,73.0479,58.2345,74.4324,59.8,76.1946ZM22.394,24.0785l-.9562-.2239a64.9921,64.9921,0,0,0-3.8438,5.7191,24.0875,24.0875,0,0,0-2.6493,6.5036C13.8721,41.5129,12.46,47.0317,12.5176,52.503c.0761,7.246,3.2985,13.7985,7.19,19.8768.7034,1.0988,1.8949,1.885,3.3265,3.2637.9329-5.4611,5.0574-7.4234,8.4214-10.0675,2.3972-1.8841,4.9288-3.6006,7.2815-5.5365a25.3008,25.3008,0,0,0,4.0061-4.0781A13.4279,13.4279,0,0,0,44.115,52.544c-4.94-2.5882-9.6273-1.111-13.9887-1.0472-1.3756,1.4777-2.4905,2.8258-3.761,4.0063a5.54,5.54,0,0,1-6.952.9261c-5.2237-2.6462-5.6068-10.8544-.659-14.1207a5.5546,5.5546,0,0,1,6.3651.208c.82.6258,1.3782,1.6078,2.2214,2.186,1.6862,1.1564,3.3658,2.6137,5.2658,3.1057,3.8284.9915,7.713.3394,11.6375-.7078a11.8785,11.8785,0,0,0-4.7705-5.6111,61.1151,61.1151,0,0,0-6.4183-4.0071,17.4619,17.4619,0,0,1-7.5286-8.0455C24.5749,27.6027,23.4441,25.8615,22.394,24.0785Zm53.4682-2.5179a14.1084,14.1084,0,0,0-9.1128-7.801,44.2094,44.2094,0,0,0-22.2018-1.3165,93.0759,93.0759,0,0,0-12.006,3.45c-2.0008.6869-3.9176,1.861-4.544,4.2731a43.212,43.212,0,0,1,4.6688,3.0561c1.6365,1.3878,3.7026,2.81,4.3912,4.6609,1.3982,3.758,3.8017,6.7778,5.853,10.08,1.4636,2.3557,3.2689,3.699,6.4044,3.5971.8-5.16,2.5739-10.3613-2.01-14.8789a7.641,7.641,0,0,1-1.4536-2.1536A6.5733,6.5733,0,0,1,48.7761,15.81a6.2262,6.2262,0,0,1,7.2013,1.37c2.1326,2.0912,2.4164,3.8439,1.0555,6.5746-.6991,1.4027-1.4662,2.7745-2.1025,4.2048-2.1519,4.838-1.4455,9.571.419,14.3176,4.8762-2.7548,7.4641-7.2587,10.1949-11.5995C68.05,26.694,70.8533,23.109,75.8622,21.5606ZM58.7988,52.4a14.2043,14.2043,0,0,0,5.4253,6.3408c1.8234,1.1873,3.7055,2.2947,5.62,3.33a21.2416,21.2416,0,0,1,8.6967,9.1337c.3582.6776.7421,1.3415,1.38,2.4915,1.5316-1.298,3.1577-2.2434,4.1638-3.6366a23.0788,23.0788,0,0,0,3.0871-5.9912,44.5754,44.5754,0,0,0,1.973-20.1278c-.6668-5.2513-1.849-10.4816-5.0766-14.938-.98-1.3531-2.0248-2.592-3.9306-2.7284a9.2607,9.2607,0,0,0-1.3062,1.653c-2.4228,5.1592-6.7756,8.2711-11.4987,11.0244a16.8672,16.8672,0,0,0-2.979,2.1169c-1.6176,1.4972-3.117,3.1221-4.745,4.7743,6.52,3.7742,11.0246,3.2669,16.0987-1.5039a6.2465,6.2465,0,0,1,1.3852-1.1873c1.2993-.6276,2.6356-1.53,3.9986-1.61,4.4022-.2571,7.256,3.8222,6.3161,8.7092-.9456,4.9171-4.0591,6.5278-8.5859,4.4626-2.6084-1.19-5.1644-2.5436-7.8648-3.4726A14.4815,14.4815,0,0,0,58.7988,52.4Z"/></svg>