<svg xmlns="http://www.w3.org/2000/svg" viewBox="0 0 93.1498 25"><defs><style>.a{fill:#ffcb05;}.b{fill:#fff;}.c{fill:none;stroke:#fff;stroke-miterlimit:10;stroke-width:0.3789px;}</style></defs><title>daasLogo</title><path class="a" d="M17.3311,9.7564c.3031-.4167.5872-.8144.89-1.2311l6.08-8.41a.26.26,0,0,1,.2461-.1137h9.9251c.1516,0,.1706.0378.1706.17V6.801c0,.1516-.038.1706-.1706.1706H32.1808c-.1515,0-.17.0378-.17.17V17.6359c0,.1516.0568.17.1894.17h2.2729c.1516,0,.1894.0378.1894.1894v6.61c0,.1515-.0378.1894-.1894.1894h-12.69c-.1328,0-.1706-.0379-.1706-.17V17.9768c0-.1328.0378-.17.1706-.17h2.5c.1136,0,.1705-.019.1705-.1516V10.9125a.2058.2058,0,0,0-.0189-.0947c-.0948.0378-.1138.1136-.1706.1705-2.2728,3.1252-4.5268,6.1936-6.8,9.2811-.1328.1894-.1328.1894-.2842,0q-3.3525-4.6027-6.7429-9.2433a1.3284,1.3284,0,0,0-.1516-.1893c-.0568.0378-.0378.0946-.0378.1327v6.6672c0,.1327.0378.1705.17.1705h2.4816c.1327,0,.1705.0378.1705.17v6.6287c0,.1327-.019.1894-.1705.1894H.19c-.1327,0-.17-.019-.17-.17V17.9578c0-.1327.038-.1514.1515-.1514H2.4813c.1327,0,.1706-.0379.1706-.17V7.1426c0-.1516-.038-.1894-.1895-.1894H.1705c-.1327,0-.17-.0378-.17-.17V.1342C0,.0394.057.0015.1705.0015h9.9441a.2538.2538,0,0,1,.2462.1515Q13.5144,4.5,16.6492,8.8469C16.8954,9.15,17.1038,9.4537,17.3311,9.7564Z"/><path class="b" d="M53.4632.4829h3.8035c3.0286,0,3.7688,1.548,3.7688,3.9376V20.8448c0,2.3886-.74,3.9371-3.7688,3.9371H53.4632Zm3.3992,22.4146c1.4812,0,1.9517-.4717,1.9517-1.8857V4.2519c0-1.4132-.4705-1.8844-1.9517-1.8844h-1.178v20.53Z"/><path class="b" d="M70.0525,18.0506H66.1492l-.91,6.7313h-2.22L66.5849.4829h3.0289l3.5678,24.299H70.9609ZM68.1346,2.1659h-.0674l-1.6835,14h3.4329Z"/><path class="b" d="M81.2238,18.0506H77.32l-.91,6.7313H74.19L77.7565.4829h3.0287l3.5677,24.299H82.132ZM79.3058,2.1659h-.0674l-1.6834,14h3.4329Z"/><path class="b" d="M90.8445,3.8146c0-.9422-.2345-1.6489-1.2778-1.6489s-1.279.7069-1.279,1.6489V6.3723A4.3765,4.3765,0,0,0,88.792,8.56l3.534,6.0579a5.8212,5.8212,0,0,1,.8073,2.9626v3.8359a3.2586,3.2586,0,0,1-3.5664,3.5676c-2.4571,0-3.6351-1.1106-3.6351-3.5678V18.0843H88.153v3.1971c0,1.1443.438,1.8181,1.4139,1.8181.9085,0,1.3452-.6739,1.3452-1.8181V17.8821a4.3265,4.3265,0,0,0-.6389-2.3209L87.0087,9.8726a5.5952,5.5952,0,0,1-.9422-3.0966V3.8483a3.151,3.151,0,0,1,3.5-3.567c2.49,0,3.4992,1.1774,3.4992,3.3986v3.096H90.8445Z"/><line class="c" x1="44.0946" y1="0.0208" x2="44.0946" y2="24.7767"/></svg>