<svg xmlns="http://www.w3.org/2000/svg" viewBox="0 0 100 100"><defs><style>.a{fill:#ffcb05;}.b{fill:#fff;}.c{fill:none;stroke:#fff;stroke-miterlimit:10;stroke-width:0.3789px;}</style></defs><title>daasLogo</title><path class="a" d="M20.3573,47.3327c.3031-.4167.5872-.8144.89-1.2311l6.08-8.41a.26.26,0,0,1,.2461-.1136h9.9251c.1516,0,.1706.0378.1706.17v6.6293c0,.1516-.038.1706-.1706.1706H35.207c-.1515,0-.1705.0378-.1705.17V55.2122c0,.1515.0568.17.1894.17h2.2729c.1516,0,.1894.0378.1894.1894v6.61c0,.1515-.0378.1894-.1894.1894h-12.69c-.1328,0-.1706-.0379-.1706-.17V55.553c0-.1327.0378-.17.1706-.17h2.5c.1136,0,.1705-.019.1705-.1516V48.4887a.2061.2061,0,0,0-.0189-.0947c-.0948.0378-.1138.1136-.1706.1705-2.2728,3.1252-4.5268,6.1936-6.8,9.2811-.1328.1894-.1328.1894-.2842,0q-3.3525-4.6027-6.7429-9.2433a1.3284,1.3284,0,0,0-.1516-.1893c-.0568.0378-.0378.0946-.0378.1327v6.6672c0,.1327.0378.1705.17.1705h2.4816c.1327,0,.1705.0378.1705.17v6.6287c0,.1327-.019.1894-.1705.1894H3.2157c-.1327,0-.1705-.019-.1705-.17V55.5341c0-.1327.038-.1514.1515-.1514H5.5075c.1327,0,.1706-.0379.1706-.17V44.7189c0-.1516-.038-.1894-.1895-.1894H3.1967c-.1327,0-.1705-.0378-.1705-.17V37.7105c0-.0948.057-.1327.1705-.1327h9.9441a.2536.2536,0,0,1,.2462.1515q3.1536,4.3468,6.2884,8.6939C19.9216,46.7267,20.13,47.03,20.3573,47.3327Z"/><path class="b" d="M56.4894,38.0591h3.8035c3.0286,0,3.7688,1.548,3.7688,3.9377V58.421c0,2.3887-.74,3.9371-3.7688,3.9371H56.4894Zm3.3992,22.4146c1.4812,0,1.9517-.4717,1.9517-1.8856v-16.76c0-1.4132-.4705-1.8844-1.9517-1.8844h-1.178V60.4733Z"/><path class="b" d="M73.0787,55.6269H69.1754l-.91,6.7312h-2.22l3.5657-24.299H72.64l3.5678,24.299H73.9871ZM71.1608,39.7422h-.0674l-1.6835,14h3.4329Z"/><path class="b" d="M84.25,55.6269H80.3463l-.91,6.7312h-2.22l3.5664-24.299h3.0287l3.5677,24.299H85.1582Zm-1.918-15.8847h-.0674l-1.6834,14h3.4329Z"/><path class="b" d="M93.8707,41.3909c0-.9422-.2345-1.649-1.2778-1.649s-1.279.7069-1.279,1.649v2.5576a4.3763,4.3763,0,0,0,.5043,2.1875l3.534,6.058a5.8206,5.8206,0,0,1,.8073,2.9625v3.8359A3.2582,3.2582,0,0,1,92.5931,62.56c-2.4571,0-3.6351-1.1106-3.6351-3.5678V55.6606h2.2212v3.1971c0,1.1443.438,1.8181,1.4139,1.8181.9085,0,1.3452-.6739,1.3452-1.8181V55.4584a4.3266,4.3266,0,0,0-.6389-2.321l-3.2645-5.6886a5.5947,5.5947,0,0,1-.9422-3.0966V41.4246a3.1509,3.1509,0,0,1,3.5-3.567c2.49,0,3.4992,1.1774,3.4992,3.3986v3.096H93.8707Z"/><line class="c" x1="47.1208" y1="37.5971" x2="47.1208" y2="62.3529"/></svg>