<svg xmlns="http://www.w3.org/2000/svg" viewBox="0 0 100 100"><defs><style>.a,.b{isolation:isolate;}.b{font-size:11.5915px;font-family:MyriadPro-Regular, Myriad Pro;}.b,.c{fill:#fff;}</style></defs><title>fdptLogo</title><g class="a"><text class="b" transform="translate(14.8177 53.2913)"> </text><g class="a"><path class="c" d="M2.8311,48.1123H2.0732v4.4629H1.6543V48.1123H1.0391v-.2412l.6152-.1826v-.3653a2.9759,2.9759,0,0,1,.2178-1.3291.7872.7872,0,0,1,.7578-.4052,1.3964,1.3964,0,0,1,.5664.1113l-.1465.3916a1.0239,1.0239,0,0,0-.4287-.1113.4113.4113,0,0,0-.33.13.8888.8888,0,0,0-.164.4189,4.6082,4.6082,0,0,0-.0538.8027v.4053h.7579Z"/><path class="c" d="M4.957,47.6436a1.4046,1.4046,0,0,1,.4239.0625l-.1026.4238a.8424.8424,0,0,0-.33-.0674.6019.6019,0,0,0-.457.252,1.8165,1.8165,0,0,0-.332.7021,3.8591,3.8591,0,0,0-.12.9951v2.5635H3.6152V47.7373h.3477l.0449.8477h.0313Q4.3774,47.643,4.957,47.6436Z"/><path class="c" d="M7.4814,52.6641a1.316,1.316,0,0,1-1.18-.6534A3.4047,3.4047,0,0,1,5.89,50.19a3.9251,3.9251,0,0,1,.3682-1.8926,1.1558,1.1558,0,0,1,1.0586-.6533,1.065,1.065,0,0,1,.9492.5732,2.9555,2.9555,0,0,1,.3487,1.5449v.3926H6.3223a3.437,3.437,0,0,0,.2988,1.583.9411.9411,0,0,0,.8779.5254,1.895,1.895,0,0,0,.959-.2979v.41A1.8216,1.8216,0,0,1,7.4814,52.6641ZM7.29,48.0273q-.8745,0-.9589,1.7432H8.19a2.7939,2.7939,0,0,0-.2431-1.27A.7334.7334,0,0,0,7.29,48.0273Z"/><path class="c" d="M11.0615,52.6641a1.3162,1.3162,0,0,1-1.18-.6534A3.4057,3.4057,0,0,1,9.47,50.19a3.9251,3.9251,0,0,1,.3682-1.8926,1.1557,1.1557,0,0,1,1.0586-.6533,1.065,1.065,0,0,1,.9492.5732,2.9556,2.9556,0,0,1,.3486,1.5449v.3926H9.9023a3.4381,3.4381,0,0,0,.2989,1.583.941.941,0,0,0,.8779.5254,1.8952,1.8952,0,0,0,.959-.2979v.41A1.8216,1.8216,0,0,1,11.0615,52.6641ZM10.87,48.0273q-.8745,0-.959,1.7432h1.8594a2.7925,2.7925,0,0,0-.2432-1.27A.7332.7332,0,0,0,10.87,48.0273Z"/><path class="c" d="M17.2852,52.6641a1.6216,1.6216,0,0,1-1.38-.6817,3.8245,3.8245,0,0,1,.01-3.8017,1.6563,1.6563,0,0,1,1.4063-.6836,1.626,1.626,0,0,1,1.4355.73h.045a5.5446,5.5446,0,0,1-.1026-.9941V45.6377h1.3643v6.9375H19.02l-.2627-.6465h-.0576A1.5573,1.5573,0,0,1,17.2852,52.6641Zm.4775-1.083a.9188.9188,0,0,0,.7646-.3038,1.7636,1.7636,0,0,0,.2657-1.0293v-.1474a2.0353,2.0353,0,0,0-.2481-1.15.9194.9194,0,0,0-.8047-.3477.8.8,0,0,0-.707.3858,2.0653,2.0653,0,0,0-.251,1.1211,1.9465,1.9465,0,0,0,.2539,1.1035A.8275.8275,0,0,0,17.7627,51.5811Z"/><path class="c" d="M25.9482,52.5752H24.5889V49.6631a1.4668,1.4668,0,0,0-.1807-.8086.6346.6346,0,0,0-.5684-.27.8221.8221,0,0,0-.7578.3828,2.5094,2.5094,0,0,0-.2363,1.2617v2.3457h-1.36V47.59h1.039l.1826.6377h.0762a1.3908,1.3908,0,0,1,.5791-.5371,1.89,1.89,0,0,1,.87-.1933,1.5654,1.5654,0,0,1,1.5156.73h.12a1.3507,1.3507,0,0,1,.5908-.539,1.9673,1.9673,0,0,1,.8808-.1914,1.7352,1.7352,0,0,1,1.2813.4345,1.9057,1.9057,0,0,1,.4355,1.3926v3.251H27.6924V49.6631a1.4668,1.4668,0,0,0-.1807-.8086.6373.6373,0,0,0-.5693-.27.8465.8465,0,0,0-.7461.3564,2.0207,2.0207,0,0,0-.2481,1.1318Z"/><path class="c" d="M31.6377,52.5752,29.7383,47.59h1.4228l.9629,2.8409a5.07,5.07,0,0,1,.2,1.02h.0274a4.4058,4.4058,0,0,1,.2-1.02l.9589-2.8409h1.4219l-1.8994,4.9854Z"/><path class="c" d="M40.7549,52.6641a1.651,1.651,0,0,1-1.377-.6377h-.0713c.0469.417.0713.6572.0713.7226v2.02h-1.36V47.59H39.124l.1914.6465h.0625a1.5721,1.5721,0,0,1,1.4131-.7392,1.6156,1.6156,0,0,1,1.3819.6816,3.1555,3.1555,0,0,1,.5,1.8945,3.7439,3.7439,0,0,1-.2344,1.3877,1.9442,1.9442,0,0,1-.667.8955A1.7073,1.7073,0,0,1,40.7549,52.6641Zm-.4-4.0791a.8594.8594,0,0,0-.7363.3095,1.7811,1.7811,0,0,0-.24,1.0235v.1465a2.0975,2.0975,0,0,0,.2383,1.15.85.85,0,0,0,.7559.3477q.9139,0,.914-1.5068a2.1492,2.1492,0,0,0-.2256-1.1036A.7671.7671,0,0,0,40.3545,48.585Z"/><path class="c" d="M46.5781,47.4971a2.1483,2.1483,0,0,1,.459.04l-.1025,1.2744a1.5738,1.5738,0,0,0-.4014-.0439,1.4419,1.4419,0,0,0-1.0137.334,1.2086,1.2086,0,0,0-.3632.9365v2.5371h-1.36V47.59h1.03l.2.8389h.0674a1.874,1.874,0,0,1,.6259-.6758A1.5473,1.5473,0,0,1,46.5781,47.4971Z"/><path class="c" d="M51.1084,52.5752l-.2637-.6777H50.81a2.0177,2.0177,0,0,1-.7071.6,2.2843,2.2843,0,0,1-.9472.167,1.5307,1.5307,0,0,1-1.13-.41,1.5724,1.5724,0,0,1-.4131-1.168,1.3173,1.3173,0,0,1,.5557-1.1709,3.2148,3.2148,0,0,1,1.6738-.416l.8652-.0273v-.2188a.6782.6782,0,0,0-.7763-.7578,3.5484,3.5484,0,0,0-1.4043.3613l-.45-.9179a4.0477,4.0477,0,0,1,1.9082-.4512,2.38,2.38,0,0,1,1.539.4375,1.6149,1.6149,0,0,1,.5352,1.3281v3.3223Zm-.4014-2.31-.5263.0176a1.6818,1.6818,0,0,0-.8828.2139.6721.6721,0,0,0-.29.5976q0,.5757.66.5752a1.0465,1.0465,0,0,0,.7558-.2715.958.958,0,0,0,.2832-.7226Z"/><path class="c" d="M55.4824,52.6641q-2.3275,0-2.3271-2.5547a2.7255,2.7255,0,0,1,.6328-1.9414,2.3774,2.3774,0,0,1,1.8154-.6709,3.4472,3.4472,0,0,1,1.5508.3388l-.4014,1.0518q-.3207-.1289-.5966-.2119a1.9391,1.9391,0,0,0-.5528-.082q-1.062,0-1.0615,1.5068,0,1.4634,1.0615,1.4619a2.4437,2.4437,0,0,0,.7266-.1035,2.6652,2.6652,0,0,0,.6689-.3281v1.163a2.2058,2.2058,0,0,1-.667.29A3.7417,3.7417,0,0,1,55.4824,52.6641Z"/><path class="c" d="M60.2529,51.5811a2.928,2.928,0,0,0,.8555-.1563v1.0117a3.0379,3.0379,0,0,1-1.248.2276,1.5269,1.5269,0,0,1-1.1885-.4121A1.7952,1.7952,0,0,1,58.3,51.0146V48.6113h-.65v-.5752l.749-.455.3916-1.0518h.87v1.06h1.3955v1.0215H59.66v2.4033a.5333.5333,0,0,0,.1621.4288A.6438.6438,0,0,0,60.2529,51.5811Z"/><path class="c" d="M62.0586,46.3018q0-.6636.74-.6641t.74.6641a.644.644,0,0,1-.1856.4921.772.772,0,0,1-.5547.1768Q62.0592,46.9707,62.0586,46.3018Zm1.418,6.2734h-1.36V47.59h1.36Z"/><path class="c" d="M66.9268,52.6641q-2.3277,0-2.3272-2.5547a2.7255,2.7255,0,0,1,.6328-1.9414,2.3777,2.3777,0,0,1,1.8155-.6709,3.447,3.447,0,0,1,1.5507.3388l-.4013,1.0518q-.3208-.1289-.5967-.2119a1.9389,1.9389,0,0,0-.5527-.082q-1.0622,0-1.0616,1.5068,0,1.4634,1.0616,1.4619a2.443,2.443,0,0,0,.7265-.1035,2.6657,2.6657,0,0,0,.669-.3281v1.163a2.2058,2.2058,0,0,1-.667.29A3.7417,3.7417,0,0,1,66.9268,52.6641Z"/><path class="c" d="M71.8545,52.6641A2.5715,2.5715,0,0,1,69.9727,52a2.5153,2.5153,0,0,1-.6778-1.8818,2.7717,2.7717,0,0,1,.626-1.9375,2.2315,2.2315,0,0,1,1.7324-.6836,2.1951,2.1951,0,0,1,1.6455.6015,2.2773,2.2773,0,0,1,.5889,1.6631v.66H70.6729a1.3073,1.3073,0,0,0,.3427.9043,1.2067,1.2067,0,0,0,.9014.3261,3.7375,3.7375,0,0,0,.8516-.0937,4.2591,4.2591,0,0,0,.8378-.2988v1.0527a3.2139,3.2139,0,0,1-.7626.2646A4.7626,4.7626,0,0,1,71.8545,52.6641Zm-.1924-4.2a.8644.8644,0,0,0-.6777.2744,1.2692,1.2692,0,0,0-.28.7783h1.9082a1.1311,1.1311,0,0,0-.2637-.7783A.8893.8893,0,0,0,71.6621,48.4639Z"/><path class="c" d="M79.4648,51.5811a2.928,2.928,0,0,0,.8555-.1563v1.0117a3.0379,3.0379,0,0,1-1.248.2276,1.5269,1.5269,0,0,1-1.1885-.4121,1.7952,1.7952,0,0,1-.3721-1.2374V48.6113h-.65v-.5752l.7491-.455.3916-1.0518h.87v1.06h1.3955v1.0215H78.8721v2.4033a.5333.5333,0,0,0,.1621.4288A.6438.6438,0,0,0,79.4648,51.5811Z"/><path class="c" d="M83.585,52.6641A2.5717,2.5717,0,0,1,81.7031,52a2.5156,2.5156,0,0,1-.6777-1.8818,2.7717,2.7717,0,0,1,.626-1.9375,2.2314,2.2314,0,0,1,1.7324-.6836,2.1953,2.1953,0,0,1,1.6455.6015,2.2773,2.2773,0,0,1,.5889,1.6631v.66H82.4033a1.3074,1.3074,0,0,0,.3428.9043,1.2065,1.2065,0,0,0,.9014.3261,3.7367,3.7367,0,0,0,.8515-.0937,4.2576,4.2576,0,0,0,.8379-.2988v1.0527a3.2163,3.2163,0,0,1-.7627.2646A4.7615,4.7615,0,0,1,83.585,52.6641Zm-.1924-4.2a.8647.8647,0,0,0-.6778.2744,1.27,1.27,0,0,0-.28.7783h1.9082a1.1316,1.1316,0,0,0-.2637-.7783A.89.89,0,0,0,83.3926,48.4639Z"/><path class="c" d="M90.2012,51.0947a1.3714,1.3714,0,0,1-.5332,1.168,2.6328,2.6328,0,0,1-1.5938.4014,5.03,5.03,0,0,1-.9277-.0733,3.5082,3.5082,0,0,1-.7178-.2158V51.251a4.79,4.79,0,0,0,.8535.2988,3.4727,3.4727,0,0,0,.8369.12q.74,0,.7393-.4277a.3567.3567,0,0,0-.0977-.2608,1.3965,1.3965,0,0,0-.3388-.2275c-.16-.085-.375-.1836-.6416-.2969a4.0157,4.0157,0,0,1-.8457-.4453,1.2481,1.2481,0,0,1-.3916-.4707,1.5462,1.5462,0,0,1-.1231-.6533,1.1848,1.1848,0,0,1,.5147-1.0273,2.5106,2.5106,0,0,1,1.4609-.3633,4.1594,4.1594,0,0,1,1.752.3916l-.41.9814q-.375-.1611-.7-.2637a2.1992,2.1992,0,0,0-.6641-.1025c-.4013,0-.6025.1094-.6025.3262a.3832.3832,0,0,0,.1943.3164,5.2261,5.2261,0,0,0,.85.3965,3.9709,3.9709,0,0,1,.8554.4414,1.2961,1.2961,0,0,1,.4014.4726A1.4572,1.4572,0,0,1,90.2012,51.0947Z"/><path class="c" d="M93.3623,51.5811a2.9286,2.9286,0,0,0,.8555-.1563v1.0117a3.0381,3.0381,0,0,1-1.2481.2276,1.5268,1.5268,0,0,1-1.1884-.4121,1.7952,1.7952,0,0,1-.3721-1.2374V48.6113h-.65v-.5752l.749-.455.3916-1.0518h.87v1.06H94.165v1.0215H92.77v2.4033a.5333.5333,0,0,0,.1621.4288A.6441.6441,0,0,0,93.3623,51.5811Z"/><path class="c" d="M98.7041,51.0947a1.3712,1.3712,0,0,1-.5332,1.168,2.6328,2.6328,0,0,1-1.5938.4014,5.0314,5.0314,0,0,1-.9277-.0733,3.51,3.51,0,0,1-.7178-.2158V51.251a4.7943,4.7943,0,0,0,.8536.2988,3.472,3.472,0,0,0,.8369.12q.74,0,.7392-.4277a.357.357,0,0,0-.0976-.2608,1.3975,1.3975,0,0,0-.3389-.2275c-.16-.085-.375-.1836-.6416-.2969a4.0157,4.0157,0,0,1-.8457-.4453,1.2491,1.2491,0,0,1-.3916-.4707,1.5478,1.5478,0,0,1-.123-.6533,1.1847,1.1847,0,0,1,.5146-1.0273,2.511,2.511,0,0,1,1.4609-.3633,4.1594,4.1594,0,0,1,1.752.3916l-.41.9814q-.375-.1611-.7-.2637a2.1986,2.1986,0,0,0-.664-.1025c-.4014,0-.6026.1094-.6026.3262a.3834.3834,0,0,0,.1944.3164,5.2192,5.2192,0,0,0,.85.3965,3.9721,3.9721,0,0,1,.8555.4414,1.2967,1.2967,0,0,1,.4013.4726A1.4558,1.4558,0,0,1,98.7041,51.0947Z"/></g></g></svg>