<svg xmlns="http://www.w3.org/2000/svg" viewBox="0 0 100 9.4024"><defs><style>.a{fill:#fff;}</style></defs><title>fdptLogo</title><path class="a" d="M1.8348,2.5867h-.776v4.57H.63v-4.57H0V2.34l.63-.1869V1.7787A3.0466,3.0466,0,0,1,.8529.4179.8061.8061,0,0,1,1.6288.003a1.43,1.43,0,0,1,.58.114l-.15.4009A1.0485,1.0485,0,0,0,1.62.404a.4208.4208,0,0,0-.3379.1331A.91.91,0,0,0,1.114.966a4.7205,4.7205,0,0,0-.0551.8219v.4149h.776Z"/><path class="a" d="M4.0115,2.1068a1.4375,1.4375,0,0,1,.434.064L4.34,2.6047a.8619.8619,0,0,0-.3378-.069.6164.6164,0,0,0-.468.258,1.8609,1.8609,0,0,0-.34.7189,3.9456,3.9456,0,0,0-.1228,1.0188V7.1562H2.6376V2.2027h.356l.046.868h.032Q3.4181,2.1062,4.0115,2.1068Z"/><path class="a" d="M6.5962,7.2472a1.3476,1.3476,0,0,1-1.2082-.669A3.4853,3.4853,0,0,1,4.9668,4.714a4.0179,4.0179,0,0,1,.3769-1.9378,1.1833,1.1833,0,0,1,1.0839-.6689A1.09,1.09,0,0,1,7.4,2.6942,3.0263,3.0263,0,0,1,7.757,4.276v.402H5.4094a3.519,3.519,0,0,0,.3059,1.6208.9638.9638,0,0,0,.8989.5379,1.94,1.94,0,0,0,.9819-.305v.42A1.8652,1.8652,0,0,1,6.5962,7.2472ZM6.4,2.5q-.8954,0-.9818,1.7848H7.3217a2.8615,2.8615,0,0,0-.2489-1.3A.7509.7509,0,0,0,6.4,2.5Z"/><path class="a" d="M10.2618,7.2472a1.3476,1.3476,0,0,1-1.2082-.669A3.4863,3.4863,0,0,1,8.6323,4.714a4.018,4.018,0,0,1,.377-1.9378,1.1831,1.1831,0,0,1,1.0838-.6689,1.09,1.09,0,0,1,.9719.5869,3.0252,3.0252,0,0,1,.3569,1.5818v.402H9.0749a3.52,3.52,0,0,0,.306,1.6208.9634.9634,0,0,0,.8989.5379,1.94,1.94,0,0,0,.9819-.305v.42A1.8652,1.8652,0,0,1,10.2618,7.2472ZM10.0657,2.5q-.8954,0-.9819,1.7848h1.9038a2.8576,2.8576,0,0,0-.249-1.3A.7507.7507,0,0,0,10.0657,2.5Z"/><path class="a" d="M16.6341,7.2472a1.6606,1.6606,0,0,1-1.413-.698,3.9161,3.9161,0,0,1,.01-3.8925,1.6958,1.6958,0,0,1,1.44-.7,1.665,1.665,0,0,1,1.47.7474h.046a5.6839,5.6839,0,0,1-.105-1.0178V.053H19.479V7.1562H18.41l-.2689-.662h-.059A1.5945,1.5945,0,0,1,16.6341,7.2472Zm.4889-1.1089a.9409.9409,0,0,0,.7829-.311,1.8058,1.8058,0,0,0,.272-1.0539V4.6225a2.0842,2.0842,0,0,0-.254-1.1775A.9414.9414,0,0,0,17.1,3.089a.819.819,0,0,0-.7239.395,2.115,2.115,0,0,0-.257,1.1479,1.9938,1.9938,0,0,0,.26,1.13A.8466.8466,0,0,0,17.123,6.1383Z"/><path class="a" d="M25.504,7.1562H24.1122V4.1745a1.5013,1.5013,0,0,0-.185-.8279.65.65,0,0,0-.5819-.2764.8416.8416,0,0,0-.7759.3919,2.5691,2.5691,0,0,0-.242,1.2918V7.1557H20.9349V2.0519h1.0638l.187.6529h.078a1.4249,1.4249,0,0,1,.593-.55,1.9351,1.9351,0,0,1,.8907-.1979,1.6028,1.6028,0,0,1,1.5518.7474h.1229a1.3824,1.3824,0,0,1,.6049-.5518,2.0127,2.0127,0,0,1,.9018-.196,1.7767,1.7767,0,0,1,1.3119.4449,1.95,1.95,0,0,1,.4459,1.4258V7.156H27.29V4.1745a1.5022,1.5022,0,0,0-.1851-.8279A.6521.6521,0,0,0,26.522,3.07a.8667.8667,0,0,0-.764.3649,2.0692,2.0692,0,0,0-.254,1.1588Z"/><path class="a" d="M31.3294,7.1562,29.3846,2.0519h1.4568l.9859,2.9088a5.1881,5.1881,0,0,1,.2048,1.0443h.028a4.5173,4.5173,0,0,1,.2048-1.0443l.9818-2.9088h1.4559L32.7578,7.1564Z"/><path class="a" d="M40.6643,7.2472a1.69,1.69,0,0,1-1.41-.6529h-.073c.048.4269.073.6729.073.74V9.4024H37.862v-7.35h1.1325l.196.6619h.064a1.61,1.61,0,0,1,1.4468-.7568,1.654,1.654,0,0,1,1.4149.6979,3.2305,3.2305,0,0,1,.5119,1.94,3.8321,3.8321,0,0,1-.24,1.4209,1.99,1.99,0,0,1-.6829.9168A1.7473,1.7473,0,0,1,40.6643,7.2472Zm-.4095-4.1765a.88.88,0,0,0-.7539.3169,1.8232,1.8232,0,0,0-.2457,1.0479v.15a2.1472,2.1472,0,0,0,.244,1.1775.87.87,0,0,0,.7739.356q.9357,0,.9358-1.5428a2.201,2.201,0,0,0-.2309-1.13.7856.7856,0,0,0-.7236-.3755Z"/><path class="a" d="M46.6266,1.9568a2.2062,2.2062,0,0,1,.47.0409l-.105,1.3049a1.6111,1.6111,0,0,0-.411-.045,1.4769,1.4769,0,0,0-1.0379.342,1.2372,1.2372,0,0,0-.3718.9589V7.1562H43.7784V2.0519H44.833l.2047.8589h.0691a1.92,1.92,0,0,1,.6408-.6919A1.5849,1.5849,0,0,1,46.6266,1.9568Z"/><path class="a" d="M51.2651,7.1562l-.27-.6939H50.96a2.066,2.066,0,0,1-.724.6143,2.3389,2.3389,0,0,1-.97.171,1.5666,1.5666,0,0,1-1.157-.42,1.61,1.61,0,0,1-.423-1.1959,1.3491,1.3491,0,0,1,.569-1.1989,3.2916,3.2916,0,0,1,1.7138-.4259l.8858-.0279V3.7551a.6948.6948,0,0,0-.7948-.7759,3.6339,3.6339,0,0,0-1.4378.37l-.4608-.94a4.1439,4.1439,0,0,1,1.9538-.4619,2.4365,2.4365,0,0,1,1.5757.4479,1.6533,1.6533,0,0,1,.548,1.36V7.1568Zm-.411-2.3652-.5388.018a1.7221,1.7221,0,0,0-.9039.219.6885.6885,0,0,0-.297.6119q0,.59.6758.5889a1.0713,1.0713,0,0,0,.7739-.2779.9807.9807,0,0,0,.29-.74Z"/><path class="a" d="M55.7436,7.2472q-2.3831,0-2.3827-2.6157a2.7905,2.7905,0,0,1,.6479-1.9878,2.4343,2.4343,0,0,1,1.8588-.6869,3.5288,3.5288,0,0,1,1.5878.3469l-.411,1.0769q-.3284-.132-.6108-.217a1.9875,1.9875,0,0,0-.566-.0839q-1.0874,0-1.0869,1.5428,0,1.4984,1.0869,1.4968a2.5017,2.5017,0,0,0,.7439-.106,2.7259,2.7259,0,0,0,.6849-.3359V6.8682a2.2583,2.2583,0,0,1-.6829.2969A3.8343,3.8343,0,0,1,55.7436,7.2472Z"/><path class="a" d="M60.628,6.1383a2.9948,2.9948,0,0,0,.8759-.16V7.0142a3.1112,3.1112,0,0,1-1.2778.233,1.5631,1.5631,0,0,1-1.2168-.422,1.838,1.838,0,0,1-.3808-1.2669V3.0976h-.6656V2.5087l.7669-.4659.401-1.0769h.8908V2.0512H61.45V3.0971H60.021V5.5578a.5456.5456,0,0,0,.1659.439A.6589.6589,0,0,0,60.628,6.1383Z"/><path class="a" d="M62.4768.7329q0-.6793.7577-.68t.7577.68a.66.66,0,0,1-.19.5039.7908.7908,0,0,1-.568.181Q62.4775,1.4178,62.4768.7329Zm1.4519,6.4233H62.5362V2.0519h1.3925Z"/><path class="a" d="M67.4613,7.2472q-2.3832,0-2.3828-2.6157a2.791,2.791,0,0,1,.6479-1.9878,2.4346,2.4346,0,0,1,1.8589-.6869,3.5281,3.5281,0,0,1,1.5877.3469l-.4109,1.0769q-.3284-.132-.6109-.217a1.9868,1.9868,0,0,0-.5659-.0839q-1.0876,0-1.087,1.5428,0,1.4984,1.087,1.4968a2.5017,2.5017,0,0,0,.7439-.106,2.7259,2.7259,0,0,0,.6849-.3359V6.8682a2.2573,2.2573,0,0,1-.6829.2969A3.8337,3.8337,0,0,1,67.4613,7.2472Z"/><path class="a" d="M72.5067,7.2472a2.6329,2.6329,0,0,1-1.9267-.68,2.5746,2.5746,0,0,1-.694-1.9267,2.8378,2.8378,0,0,1,.6409-1.9838,2.2848,2.2848,0,0,1,1.7738-.7,2.2468,2.2468,0,0,1,1.6848.6159,2.332,2.332,0,0,1,.603,1.7028v.6757H71.2969a1.3379,1.3379,0,0,0,.3509.9259,1.2352,1.2352,0,0,0,.9229.3339,3.8236,3.8236,0,0,0,.8719-.0959A4.3545,4.3545,0,0,0,74.3,5.809V6.887a3.2869,3.2869,0,0,1-.7808.2709A4.8763,4.8763,0,0,1,72.5067,7.2472Zm-.197-4.3a.8853.8853,0,0,0-.6939.2809,1.3,1.3,0,0,0-.2867.7969h1.9538a1.1582,1.1582,0,0,0-.27-.7969A.9109.9109,0,0,0,72.31,2.947Z"/><path class="a" d="M80.2988,6.1383a2.998,2.998,0,0,0,.8759-.16V7.0142a3.1112,3.1112,0,0,1-1.2778.233,1.5635,1.5635,0,0,1-1.2169-.422,1.8373,1.8373,0,0,1-.381-1.2669V3.0976h-.6655V2.5087l.767-.4659L78.8014.9659h.8908V2.0512H81.121V3.0971H79.6919V5.5578a.546.546,0,0,0,.166.439A.6582.6582,0,0,0,80.2988,6.1383Z"/><path class="a" d="M84.5174,7.2472a2.6335,2.6335,0,0,1-1.9269-.68,2.5759,2.5759,0,0,1-.6939-1.9267,2.8383,2.8383,0,0,1,.641-1.9838,2.2848,2.2848,0,0,1,1.7738-.7,2.2479,2.2479,0,0,1,1.6848.6159,2.3317,2.3317,0,0,1,.6029,1.7028v.6757H83.3074a1.3389,1.3389,0,0,0,.351.9259,1.2348,1.2348,0,0,0,.9229.3339,3.8236,3.8236,0,0,0,.8719-.0959,4.36,4.36,0,0,0,.8579-.306V6.887a3.2937,3.2937,0,0,1-.7809.2709A4.8753,4.8753,0,0,1,84.5174,7.2472Zm-.197-4.3a.8855.8855,0,0,0-.694.2809,1.3,1.3,0,0,0-.2867.7969h1.9538a1.1593,1.1593,0,0,0-.27-.7969A.9116.9116,0,0,0,84.32,2.947Z"/><path class="a" d="M91.2916,5.64a1.404,1.404,0,0,1-.546,1.1959,2.6958,2.6958,0,0,1-1.6318.411,5.1436,5.1436,0,0,1-.95-.0751,3.5924,3.5924,0,0,1-.7349-.2209V5.8a4.898,4.898,0,0,0,.8739.306,3.5556,3.5556,0,0,0,.8569.1228q.7576,0,.7569-.4379a.3654.3654,0,0,0-.1-.267A1.4292,1.4292,0,0,0,89.47,5.291c-.1638-.0871-.384-.188-.6569-.304a4.1163,4.1163,0,0,1-.8659-.456,1.2781,1.2781,0,0,1-.401-.4819A1.583,1.583,0,0,1,87.42,3.38a1.2129,1.2129,0,0,1,.527-1.0518,2.57,2.57,0,0,1,1.4957-.372,4.26,4.26,0,0,1,1.7939.4009l-.42,1.0049q-.384-.165-.7167-.27a2.2538,2.2538,0,0,0-.68-.105c-.4109,0-.6169.112-.6169.334a.3924.3924,0,0,0,.199.324,5.3464,5.3464,0,0,0,.87.4059,4.066,4.066,0,0,1,.8758.452,1.3262,1.3262,0,0,1,.411.4839A1.4916,1.4916,0,0,1,91.2916,5.64Z"/><path class="a" d="M94.5282,6.1383a2.998,2.998,0,0,0,.8759-.16V7.0142a3.1116,3.1116,0,0,1-1.2779.233,1.5631,1.5631,0,0,1-1.2168-.422,1.8385,1.8385,0,0,1-.381-1.2669V3.0976h-.6655V2.5087l.7669-.4659L93.0307.9659h.8908V2.0512H95.35V3.0971H93.9217V5.5578a.546.546,0,0,0,.166.439A.6594.6594,0,0,0,94.5282,6.1383Z"/><path class="a" d="M99.9976,5.64a1.404,1.404,0,0,1-.546,1.1959,2.6963,2.6963,0,0,1-1.6319.411,5.1522,5.1522,0,0,1-.95-.0751,3.5843,3.5843,0,0,1-.7349-.2209V5.8a4.9059,4.9059,0,0,0,.8739.306,3.5507,3.5507,0,0,0,.8569.1228q.7576,0,.7569-.4379a.3654.3654,0,0,0-.1-.267,1.4292,1.4292,0,0,0-.3469-.2329c-.1639-.0871-.384-.188-.657-.304a4.1163,4.1163,0,0,1-.8659-.456,1.28,1.28,0,0,1-.4009-.4819,1.5846,1.5846,0,0,1-.126-.6689,1.2132,1.2132,0,0,1,.5269-1.0518,2.5706,2.5706,0,0,1,1.4958-.372,4.26,4.26,0,0,1,1.7939.4009l-.42,1.0049q-.384-.165-.7168-.27a2.2538,2.2538,0,0,0-.68-.105c-.411,0-.617.112-.617.334a.3924.3924,0,0,0,.199.324,5.3464,5.3464,0,0,0,.87.4059,4.0675,4.0675,0,0,1,.876.452,1.3275,1.3275,0,0,1,.4108.4839A1.4915,1.4915,0,0,1,99.9976,5.64Z"/></svg>