<svg xmlns="http://www.w3.org/2000/svg" viewBox="0 0 121.7153 25"><defs><style>.a{fill:#fff;}</style></defs><title>finalFantasyLogo</title><path class="a" d="M3.6515,24.8183H0V24.561a1.6568,1.6568,0,0,0,.7723-.3336V.7576A1.6253,1.6253,0,0,0,0,.439V.1815H6.0757l.6515,7.7122H6.4545L5.8333,5.9091q-.3941-1.2574-.8939-2.4546a4.7374,4.7374,0,0,0-.78-1.439A1.0182,1.0182,0,0,0,3.47,1.7731H2.8788v9.8787h.47a.8819.8819,0,0,0,.7349-.2955A5.544,5.544,0,0,0,4.6818,9.879l.53-1.7273H5.47v9.2422H5.2121l-.7273-2.378a8.4984,8.4984,0,0,0-.553-1.538.6554.6554,0,0,0-.5834-.235h-.47V24.228a1.1738,1.1738,0,0,0,.7727.3333Z"/><path class="a" d="M12.5849.7576v23.47a1.3881,1.3881,0,0,0,.7727.3333v.2576H9.7363V24.561a1.36,1.36,0,0,0,.7426-.3333V.7576A1.3146,1.3146,0,0,0,9.7363.4394V.1818h3.6214V.439A1.2417,1.2417,0,0,0,12.5849.7576Z"/><path class="a" d="M22.6924,18.9546,22.0339.7576a1.3,1.3,0,0,0-.7576-.3182V.1818H24.58V.439a1.0621,1.0621,0,0,0-.788.3182v24.061H22.2151L20.0219,14.0454q-.6061-2.97-.909-5.2878l-.9512-7.3637.7955,22.8334a1.2759,1.2759,0,0,0,.7728.3333v.2576H16.443V24.561a1.2777,1.2777,0,0,0,.7728-.3333V.7576A1.2664,1.2664,0,0,0,16.443.439V.1815h2.7878l1.6932,7.97q.4695,2.2125.8789,4.9091Z"/><path class="a" d="M31.9743,0,33.8,24.2274a.7479.7479,0,0,0,.5757.3333v.2576H31.1788V24.561q.4092-.106.4848-.3333l-.1745-4.9548H29.8878l-.2544,4.9548a1.1931,1.1931,0,0,0,.5.3333v.2575H27.5122V24.561a.65.65,0,0,0,.47-.3333L29.853,0Zm-.6011,17.6818L30.6585,1.561l-.7746,16.1212Z"/><path class="a" d="M40.9308.1818V.439a1.1443,1.1443,0,0,0-.7424.3182v22.47H40.87q1.2874,0,2.4848-4.7879l.4243-1.7425h.197l-.4391,8.122h-6.228V24.561a1.4709,1.4709,0,0,0,.7728-.3333V.7576A1.2666,1.2666,0,0,0,37.3089.439V.1815Z"/><path class="a" d="M56.9032,24.8183H53.2517V24.561a1.657,1.657,0,0,0,.7725-.3333V.7576a1.6248,1.6248,0,0,0-.7725-.3182V.1818h6.0757l.6515,7.7122h-.2727L59.085,5.9091q-.394-1.2574-.8939-2.4546a4.7374,4.7374,0,0,0-.78-1.439,1.0177,1.0177,0,0,0-.6894-.2424H56.13v9.8787h.47a.8813.8813,0,0,0,.7347-.2955,5.5365,5.5365,0,0,0,.5987-1.4773l.53-1.7273h.2576v9.2422h-.2574l-.7272-2.378a8.527,8.527,0,0,0-.5531-1.538.6554.6554,0,0,0-.5834-.235h-.47V24.228a1.1737,1.1737,0,0,0,.7726.3333Z"/><path class="a" d="M67.2835,0l1.8259,24.2274a.7476.7476,0,0,0,.5756.3333v.2576H66.488V24.561q.4092-.106.4848-.3333l-.1743-4.9548H65.197l-.254,4.9545a1.1921,1.1921,0,0,0,.5.3333v.2576H62.8211V24.561a.65.65,0,0,0,.47-.3333L65.1625,0Zm-.601,17.6818L65.9674,1.561l-.7746,16.1212Z"/><path class="a" d="M78.8683,18.9546,78.21.7576a1.3008,1.3008,0,0,0-.7575-.3182V.1818h3.303V.439a1.0619,1.0619,0,0,0-.7879.3182v24.061H78.3911L76.1978,14.0454q-.606-2.97-.9092-5.2878L74.338,1.3939l.7954,22.8334a1.2759,1.2759,0,0,0,.7728.3333v.2576H72.6184V24.561a1.2774,1.2774,0,0,0,.7726-.3333V.7576a1.2653,1.2653,0,0,0-.7726-.3182V.1818h2.788L77.1,8.1515q.4694,2.2125.8787,4.9091Z"/><path class="a" d="M86.7637,24.2274V1.6055h-.425a.5964.5964,0,0,0-.3868.1289,2.8337,2.8337,0,0,0-.47.8712,17.42,17.42,0,0,0-.6943,2.2349q-.3831,1.4925-.7356,3.25h-.2427L84.218.1814H91.4l.47,7.9091h-.2423a42.8963,42.8963,0,0,0-1.5065-5.5q-.4475-.9847-.9328-.9849h-.3335v22.622a1.6034,1.6034,0,0,0,.7728.3333v.2575H85.9758V24.561A1.47,1.47,0,0,0,86.7637,24.2274Z"/><path class="a" d="M99.2655,0l1.8258,24.2274a.7475.7475,0,0,0,.5756.3333v.2576H98.47V24.561q.4095-.106.4849-.3333L98.78,19.2729H97.1789l-.2544,4.9548a1.194,1.194,0,0,0,.5.3333v.2575h-2.622V24.561a.65.65,0,0,0,.47-.3333L97.1442,0Zm-.6011,17.6818L97.95,1.561l-.7749,16.1208Z"/><path class="a" d="M104.7668,19.0454l2.2575-2.6363.1971.1819a10.2206,10.2206,0,0,0-.3484,3.1969,15.59,15.59,0,0,0,.1666,2.97.738.738,0,0,0,.7575.6363q1.1364,0,1.1365-3.5152a14.0315,14.0315,0,0,0-.3415-3.3484,12.8219,12.8219,0,0,0-1.3257-3.1061q-1.0763-1.924-1.4622-2.8031a12.9743,12.9743,0,0,1-.7122-2.356,13.99,13.99,0,0,1-.3257-3.0228Q104.7663,0,107.8118,0q3.0909,0,3.0908,5.8333v.9849l-2.2878,1.7727-.1514-.1818a9.1393,9.1393,0,0,0,.3485-2.5909,23.8848,23.8848,0,0,0-.1516-3.1136q-.1515-1.0683-.7879-1.0683-1,0-1,3.1061a14.9368,14.9368,0,0,0,.3635,3.9319,16.4491,16.4491,0,0,0,1.5152,3.1742,17.5984,17.5984,0,0,1,1.887,4.1364,14.3207,14.3207,0,0,1,.4015,3.53Q111.04,25,107.782,25q-3.0151,0-3.0151-4.8635Z"/><path class="a" d="M118.943,13.1818V24.2274a1.6137,1.6137,0,0,0,.7879.3333v.2576h-3.6368V24.561a1.04,1.04,0,0,0,.7426-.3333V13.3032L114.73.7576Q114.6853.5,113.9578.4394V.1818h3.6212V.439a.8764.8764,0,0,0-.7423.3182l1.3559,11.2122L119.2306.7572a1.683,1.683,0,0,0-.7728-.3182V.1815h3.2575V.439a1.0257,1.0257,0,0,0-.7879.3182Z"/></svg>