<svg xmlns="http://www.w3.org/2000/svg" viewBox="0 0 100 100"><defs><style>.a{fill:#fff;}</style></defs><title>finalFantasyLogo</title><path class="a" d="M3.0909,60.101H.0967V59.89A1.3587,1.3587,0,0,0,.73,59.6165V40.3712A1.3333,1.3333,0,0,0,.0967,40.11v-.2112H5.0788l.5342,6.324H5.3894L4.88,44.5955q-.3231-1.0312-.733-2.0128a3.8846,3.8846,0,0,0-.64-1.18.8349.8349,0,0,0-.5653-.1988H2.4573v8.1006h.3851a.7233.7233,0,0,0,.6026-.2423,4.5444,4.5444,0,0,0,.4908-1.2114l.4348-1.4164h.2113V54.013H4.3706l-.5964-1.95a6.97,6.97,0,0,0-.4534-1.2611.5372.5372,0,0,0-.4784-.1927H2.4573v9.0078a.9629.9629,0,0,0,.6336.2733Z"/><path class="a" d="M10.4163,40.3712V59.6165a1.1384,1.1384,0,0,0,.6336.2733v.2112H8.0805V59.89a1.1155,1.1155,0,0,0,.6089-.2733V40.3712a1.0783,1.0783,0,0,0-.6089-.2609v-.2112H11.05V40.11A1.0182,1.0182,0,0,0,10.4163,40.3712Z"/><path class="a" d="M18.7045,55.2928l-.54-14.9216a1.0663,1.0663,0,0,0-.6212-.2609v-.2112h2.7086V40.11a.8712.8712,0,0,0-.6462.2609v19.73H18.3131l-1.7984-8.8337q-.4971-2.435-.7454-4.336l-.78-6.0382.6523,18.7234a1.0468,1.0468,0,0,0,.6337.2733v.2112H13.58V59.89a1.0477,1.0477,0,0,0,.6337-.2733V40.3712A1.0381,1.0381,0,0,0,13.58,40.11v-.2112h2.286l1.3884,6.5351q.385,1.8143.7207,4.0255Z"/><path class="a" d="M26.3156,39.75l1.4971,19.8665a.6135.6135,0,0,0,.4721.2733v.2112H25.6633V59.89q.3356-.0869.3976-.2733l-.1431-4.0629H24.6047l-.2086,4.0629a.9783.9783,0,0,0,.41.2733v.2112H22.6567V59.89a.5326.5326,0,0,0,.3851-.2733L24.5762,39.75Zm-.4929,14.4991L25.2367,41.03l-.6352,13.2194Z"/><path class="a" d="M33.66,39.8991V40.11a.938.938,0,0,0-.6088.2609V58.7964H33.61q1.0558,0,2.0376-3.9261l.3479-1.4288h.1615l-.36,6.66H30.69V59.89a1.2057,1.2057,0,0,0,.6337-.2733V40.3712A1.0381,1.0381,0,0,0,30.69,40.11v-.2112Z"/><path class="a" d="M46.7573,60.101H43.7631V59.89a1.3579,1.3579,0,0,0,.6335-.2733V40.3712a1.3331,1.3331,0,0,0-.6335-.2609v-.2112h4.9821l.5342,6.324h-.2236l-.5094-1.6276q-.3231-1.0312-.733-2.0128a3.884,3.884,0,0,0-.64-1.18.8347.8347,0,0,0-.5653-.1988h-.4845v8.1006h.3851a.723.723,0,0,0,.6025-.2423,4.5434,4.5434,0,0,0,.4909-1.2114l.4348-1.4164h.2112V54.013H48.037l-.5963-1.95a6.9837,6.9837,0,0,0-.4535-1.2611.5373.5373,0,0,0-.4784-.1927h-.3851v9.0078a.9632.9632,0,0,0,.6336.2733Z"/><path class="a" d="M55.2692,39.75l1.4972,19.8665a.6133.6133,0,0,0,.472.2733v.2112H54.6169V59.89q.3355-.0869.3975-.2733l-.1429-4.0629H53.5583L53.35,59.6165a.9779.9779,0,0,0,.41.2733v.2112H51.61V59.89a.5331.5331,0,0,0,.3853-.2733L53.53,39.75Zm-.4928,14.4991L54.19,41.03l-.6352,13.2194Z"/><path class="a" d="M64.7687,55.2928l-.54-14.9216a1.0668,1.0668,0,0,0-.6212-.2609v-.2112h2.7085V40.11a.8711.8711,0,0,0-.6461.2609v19.73H64.3774l-1.7985-8.8337q-.4969-2.435-.7455-4.336l-.7795-6.0382.6522,18.7234a1.0468,1.0468,0,0,0,.6337.2733v.2112h-2.696V59.89a1.047,1.047,0,0,0,.6335-.2733V40.3712a1.0374,1.0374,0,0,0-.6335-.2609v-.2112H61.93l1.3884,6.5351q.3849,1.8143.7205,4.0255Z"/><path class="a" d="M71.243,59.6165v-18.55h-.3485a.4889.4889,0,0,0-.3172.1057,2.3221,2.3221,0,0,0-.3857.7144,14.284,14.284,0,0,0-.5694,1.8326q-.3141,1.2238-.6032,2.665H68.82l.3355-6.4855h5.889l.3852,6.4855h-.1987a35.1652,35.1652,0,0,0-1.2353-4.51q-.3669-.8075-.7649-.8076h-.2735v18.55a1.3147,1.3147,0,0,0,.6337.2733v.2112H70.5969V59.89A1.205,1.205,0,0,0,71.243,59.6165Z"/><path class="a" d="M81.4944,39.75l1.4972,19.8665a.6131.6131,0,0,0,.472.2733v.2112H80.842V59.89q.3357-.0869.3976-.2733l-.143-4.0629H79.7834l-.2086,4.0629a.9787.9787,0,0,0,.41.2733v.2112h-2.15V59.89a.5327.5327,0,0,0,.3853-.2733L79.755,39.75Zm-.4929,14.4991L80.4154,41.03,79.78,54.2491Z"/><path class="a" d="M86.0055,55.3672l1.8512-2.1617.1616.1491a8.38,8.38,0,0,0-.2857,2.6215,12.7845,12.7845,0,0,0,.1366,2.4352.6052.6052,0,0,0,.6212.5218q.9318,0,.9319-2.8825a11.51,11.51,0,0,0-.28-2.7457,10.5145,10.5145,0,0,0-1.0871-2.547q-.8825-1.5777-1.199-2.2985a10.6325,10.6325,0,0,1-.584-1.9319,11.47,11.47,0,0,1-.2671-2.4787q0-4.2985,2.4973-4.2988,2.5346,0,2.5345,4.7833v.8076l-1.876,1.4536-.1242-.149a7.493,7.493,0,0,0,.2858-2.1246,19.5944,19.5944,0,0,0-.1243-2.5531q-.1243-.876-.6461-.876-.82,0-.82,2.547a12.2466,12.2466,0,0,0,.2981,3.2241,13.4879,13.4879,0,0,0,1.2424,2.6029A14.4282,14.4282,0,0,1,90.82,52.8576a11.7431,11.7431,0,0,1,.3292,2.8949q0,4.4977-2.6712,4.4975-2.4725,0-2.4724-3.9881Z"/><path class="a" d="M97.63,50.5591v9.0574a1.3241,1.3241,0,0,0,.6461.2733v.2112H95.2939V59.89a.8525.8525,0,0,0,.6089-.2733V50.6586L94.1757,40.3712q-.0371-.2111-.6336-.2609v-.2112h2.9694V40.11a.7186.7186,0,0,0-.6087.2609l1.1119,9.194.8511-9.194a1.38,1.38,0,0,0-.6337-.2609v-.2112h2.6712V40.11a.8409.8409,0,0,0-.6461.2609Z"/></svg>