<svg xmlns="http://www.w3.org/2000/svg" viewBox="0 0 96.247 25.0021"><defs><style>.a{fill:#ffcb05;}.b{fill:#fff;}.c{fill:none;stroke:#fff;stroke-miterlimit:10;stroke-width:0.382px;}</style></defs><title>hzLogo</title><path class="a" d="M17.4752,9.8379c.3056-.42.592-.8213.8976-1.2415l6.1306-8.48a.2619.2619,0,0,1,.2483-.1146H34.7594c.1528,0,.1719.0382.1719.1719V6.8582c0,.1528-.0382.1719-.1719.1719h-2.311c-.1527,0-.1718.0382-.1718.1719V17.7828c0,.1528.0573.1719.1909.1719h2.2919c.1528,0,.191.0382.191.191v6.6654c0,.1528-.0382.191-.191.191H21.9635c-.1336,0-.1718-.0382-.1718-.1719V18.1266c0-.1337.0381-.1719.1718-.1719h2.521c.1146,0,.1719-.0191.1719-.1528v-6.799a.2083.2083,0,0,0-.0191-.0955c-.0955.0382-.1146.1146-.1719.1719-2.2918,3.1512-4.5645,6.2452-6.8563,9.3582-.1337.191-.1337.191-.2865,0q-3.38-4.6409-6.7991-9.32a1.3372,1.3372,0,0,0-.1528-.191c-.0573.0382-.0382.0955-.0382.1337v6.7226c0,.1337.0382.1719.1719.1719h2.5019c.1337,0,.1719.0382.1719.1719v6.6845c0,.1337-.0191.191-.1719.191H.191c-.1337,0-.1719-.0191-.1719-.1719V18.1075c0-.1337.0382-.1528.1528-.1528h2.33c.1337,0,.1719-.0382.1719-.1719V7.2021c0-.1528-.0382-.191-.191-.191H.1719C.0382,7.0111,0,6.9729,0,6.8392V.1358C0,.04.0573.0021.1719.0021H10.1986a.2559.2559,0,0,1,.2483.1528q3.18,4.3832,6.3407,8.7662C17.0359,9.2267,17.246,9.5321,17.4752,9.8379Z"/><path class="b" d="M59.4035.2544h2.239V24.75h-2.239V12.9771H56.0444V24.75H53.8051V.2544h2.2393V11.0772h3.3591Z"/><path class="b" d="M69.2418,2.1542h-4.75v-1.9h6.8533v1.9L66.29,22.85h5.0212v1.9H64.1866V22.4427Z"/><path class="b" d="M84.7123.2544h2.1035L84.3391,24.75H81.4214L79.7249,2.9685h-.0677L77.9607,24.75H75.0429L72.5663.2544H74.67l1.8321,21.9169H76.57L78.3.2544h2.7821l1.8658,21.9169h.0679Z"/><path class="b" d="M88.9526.2544h3.5625c2.8838,0,3.7319.95,3.7319,3.7319V9.9915c0,2.782-.8481,3.7319-3.7319,3.7319H91.1918V24.75H88.9526Zm3.3249,11.5692c1.0178,0,1.73-.2716,1.73-1.5268V3.681c0-1.2552-.7126-1.5268-1.73-1.5268H91.1918v9.6694Z"/><line class="c" x1="44.4614" y1="0.0212" x2="44.4614" y2="24.983"/></svg>