<svg xmlns="http://www.w3.org/2000/svg" viewBox="0 0 100 100"><defs><style>.a{fill:#ffcb05;}.b{isolation:isolate;}.c{fill:#fff;}.d{fill:none;stroke:#fff;stroke-miterlimit:10;stroke-width:0.382px;}</style></defs><title>hzwpLogo</title><path class="a" d="M19.3517,47.3358c.3056-.42.592-.8213.8976-1.2415l6.1306-8.48a.2619.2619,0,0,1,.2483-.1146H36.6359c.1528,0,.1719.0382.1719.1719v6.6845c0,.1528-.0382.1719-.1719.1719h-2.311c-.1527,0-.1718.0382-.1718.1719V55.2807c0,.1528.0573.1719.1909.1719h2.2919c.1528,0,.191.0382.191.191V62.309c0,.1528-.0382.191-.191.191H23.84c-.1336,0-.1718-.0382-.1718-.1719V55.6245c0-.1337.0381-.1719.1718-.1719h2.521c.1146,0,.1719-.0191.1719-.1528v-6.799a.2077.2077,0,0,0-.0191-.0955c-.0955.0382-.1146.1146-.1719.1719-2.2918,3.1512-4.5645,6.2452-6.8563,9.3582-.1337.191-.1337.191-.2865,0q-3.38-4.6408-6.7991-9.32a1.3382,1.3382,0,0,0-.1528-.191c-.0573.0382-.0382.0955-.0382.1337v6.7226c0,.1337.0382.1719.1719.1719h2.5019c.1337,0,.1719.0382.1719.1719V62.309c0,.1337-.0191.191-.1719.191H2.0675c-.1337,0-.1719-.0191-.1719-.1719V55.6054c0-.1337.0382-.1528.1528-.1528h2.33c.1337,0,.1719-.0382.1719-.1719V44.7c0-.1528-.0382-.191-.191-.191H2.0484c-.1337,0-.1719-.0382-.1719-.1719V37.6337c0-.0955.0573-.1337.1719-.1337H12.0751a.2559.2559,0,0,1,.2483.1528q3.18,4.3832,6.3407,8.7662C18.9124,46.7246,19.1225,47.03,19.3517,47.3358Z"/><g class="b"><path class="c" d="M61.28,37.7523h2.239V62.2477H61.28V50.475H57.9209V62.2477H55.6816V37.7523h2.2393V48.5751H61.28Z"/><path class="c" d="M71.1183,39.6521h-4.75v-1.9h6.8533v1.9L68.1666,60.3477h5.0212v1.9H66.0631V59.9406Z"/><path class="c" d="M86.5888,37.7523h2.1035L86.2156,62.2477H83.2979L81.6014,40.4664h-.0677L79.8372,62.2477H76.9194L74.4428,37.7523h2.1034l1.8321,21.9169h.0679l1.73-21.9169h2.7821l1.8658,21.9169h.0679Z"/><path class="c" d="M90.8291,37.7523h3.5625c2.8838,0,3.7319.95,3.7319,3.7319v6.0052c0,2.782-.8481,3.7319-3.7319,3.7319H93.0683V62.2477H90.8291ZM94.154,49.3215c1.0178,0,1.73-.2716,1.73-1.5268V41.1789c0-1.2552-.7126-1.5268-1.73-1.5268H93.0683v9.6694Z"/></g><line class="d" x1="46.3379" y1="37.5191" x2="46.3379" y2="62.4809"/></svg>