<svg xmlns="http://www.w3.org/2000/svg" viewBox="0 0 81.0425 25"><defs><style>.a{fill:#ffcb05;}.b{fill:#fff;}.c{fill:none;stroke:#fff;stroke-miterlimit:10;stroke-width:0.3819px;}</style></defs><title>lsaLogo</title><path class="a" d="M17.4739,9.8365c.3055-.42.5921-.8211.8976-1.2413l6.13-8.4788A.2617.2617,0,0,1,24.75.0018h10.007c.1528,0,.1718.0383.1718.1718V6.8577c0,.1528-.0381.1719-.1718.1719H32.4462c-.1529,0-.172.0381-.172.1718v10.58c0,.1529.0574.172.1909.172h2.2918c.1528,0,.1909.0381.1909.1909v6.665c0,.1526-.0381.1909-.1909.1909H21.9625c-.1335,0-.1718-.0383-.1718-.1718V18.124c0-.1337.0383-.1718.1718-.1718h2.5209c.1146,0,.1718-.0191.1718-.1528v-6.798a.207.207,0,0,0-.0191-.0955c-.0955.0383-.1146.1146-.1718.172-2.2917,3.1509-4.5641,6.2448-6.8562,9.3576-.1337.191-.1337.191-.2864,0q-3.38-4.6407-6.7987-9.32a1.3419,1.3419,0,0,0-.1528-.1909c-.0572.0383-.0381.0955-.0381.1337v6.7222c0,.1337.0381.172.1718.172h2.5018c.1337,0,.1718.038.1718.1718v6.684c0,.1337-.0191.191-.1718.191H.1909c-.1337,0-.1718-.0192-.1718-.1719V18.1056c0-.1336.0381-.1527.1527-.1527h2.33c.1335,0,.1718-.0383.1718-.172V7.2011c0-.1528-.0383-.1909-.1909-.1909H.1718C.0383,7.01,0,6.9719,0,6.8382V.1352C0,.04.0572.0015.1718.0015H10.1979a.2559.2559,0,0,1,.2483.1528q3.18,4.3827,6.34,8.7656C17.0351,9.2256,17.2447,9.5309,17.4739,9.8365Z"/><path class="b" d="M53.8012.2328H56.04V22.8266h3.6978v1.9h-5.937Z"/><path class="b" d="M66.8959,3.5912c0-.95-.2376-1.6622-1.2892-1.6622s-1.2891.7122-1.2891,1.6622V6.17a4.4012,4.4012,0,0,0,.5088,2.2051l3.562,6.1064a5.8675,5.8675,0,0,1,.8143,2.9855v3.8668a3.2845,3.2845,0,0,1-3.596,3.596c-2.4765,0-3.6632-1.1193-3.6632-3.596V17.9749h2.2391v3.2229c0,1.1534.441,1.8316,1.4249,1.8316.9161,0,1.3569-.6785,1.3569-1.8316V17.7714a4.37,4.37,0,0,0-.6446-2.3409L63.03,9.6973a5.6354,5.6354,0,0,1-.95-3.1212V3.6246A3.1767,3.1767,0,0,1,65.6078.0286c2.51,0,3.5281,1.1874,3.5281,3.4264V6.5761h-2.24Z"/><path class="b" d="M77.8875,17.9414H73.9523l-.916,6.7849h-2.239L74.3931.2326h3.0534l3.596,24.4937H78.8034ZM75.9538,1.9288h-.0679L74.19,16.0416h3.46Z"/><line class="c" x1="44.4583" y1="0.0015" x2="44.4583" y2="24.9614"/></svg>