<svg xmlns="http://www.w3.org/2000/svg" viewBox="0 0 80.4431 25"><defs><style>.a{fill:#ffcb05;}.b{isolation:isolate;}.c{fill:#fff;}.d{fill:none;stroke:#fff;stroke-miterlimit:10;stroke-width:0.382px;}</style></defs><title>mcalLogo</title><path class="a" d="M17.4752,9.8358c.3055-.42.592-.8213.8976-1.2415l6.1306-8.48A.2619.2619,0,0,1,24.7517,0H34.7594c.1527,0,.1718.0382.1718.1719V6.8564c0,.1528-.0382.1719-.1718.1719h-2.311c-.1528,0-.1719.0382-.1719.1719V17.7807c0,.1528.0573.1719.191.1719h2.2919c.1527,0,.1909.0382.1909.191V24.809c0,.1528-.0382.191-.1909.191H21.9633c-.1337,0-.1719-.0382-.1719-.1719V18.1245c0-.1337.0382-.1719.1719-.1719h2.521c.1146,0,.1719-.0191.1719-.1528v-6.799a.2077.2077,0,0,0-.0191-.0955c-.0955.0382-.1146.1146-.1719.1719-2.2918,3.1512-4.5645,6.2452-6.8563,9.3582-.1337.191-.1337.191-.2865,0q-3.38-4.6409-6.7991-9.32a1.3382,1.3382,0,0,0-.1528-.191c-.0573.0382-.0382.0955-.0382.1337v6.7226c0,.1337.0382.1719.1719.1719h2.5019c.1337,0,.1719.0382.1719.1719V24.809c0,.1337-.0191.191-.1719.191H.191c-.1337,0-.1719-.0191-.1719-.1719V18.1054c0-.1337.0382-.1528.1528-.1528h2.33c.1337,0,.1719-.0382.1719-.1719V7.2c0-.1528-.0382-.191-.191-.191H.1719C.0382,7.0092,0,6.971,0,6.8373V.1337C0,.0382.0573,0,.1719,0H10.1986a.2559.2559,0,0,1,.2483.1528q3.18,4.3832,6.3407,8.7662C17.0359,9.2246,17.246,9.53,17.4752,9.8358Z"/><g class="b"><path class="c" d="M58.5561,3.495c0-1.05-.3819-1.566-1.2605-1.566s-1.2605.5156-1.2605,1.566V21.4859c0,1.05.382,1.566,1.2605,1.566s1.2605-.5156,1.2605-1.566V18.0481h2.2346v3.4951c0,2.0626-1.1459,3.3995-3.4951,3.3995s-3.495-1.3178-3.495-3.3995V3.4186c0-2.0626,1.1459-3.3995,3.495-3.3995s3.4951,1.3178,3.4951,3.4V6.6463H58.5561Z"/><path class="c" d="M69.0985,17.9335H65.1642l-.9167,6.78H62.013L65.6035.2292h3.0558l3.59,24.5034H70.0153ZM67.17,1.929h-.0764L65.4125,16.0428h3.4569Z"/><path class="c" d="M74.5034.2292H76.738V22.8228h3.7051v1.8907h-5.94Z"/></g><line class="d" x1="44.4614" x2="44.4614" y2="24.9618"/></svg>