<svg xmlns="http://www.w3.org/2000/svg" viewBox="0 0 100 100"><defs><style>.a{isolation:isolate;}.b{fill:#940064;}.c{fill:#fff;}</style></defs><title>mirLogo</title><g class="a"><g class="a"><path class="b" d="M13.7808,30.8936a2.9418,2.9418,0,0,1,.7348,2.1074v4.7314H12.374V33.6309a1.5644,1.5644,0,0,0-.3921-1.1338,1.41,1.41,0,0,0-1.0639-.4063A1.5494,1.5494,0,0,0,9.7,32.6367a2.0571,2.0571,0,0,0-.4478,1.3721v3.7236H7.11V33.6309a1.5882,1.5882,0,0,0-.3848-1.127,1.3743,1.3743,0,0,0-1.0571-.4131,1.5718,1.5718,0,0,0-1.2251.5459,2.0374,2.0374,0,0,0-.4546,1.3721v3.7236H1.833V30.2012H3.9888v1.3017a2.77,2.77,0,0,1,2.5478-1.3857,2.76,2.76,0,0,1,1.61.4551,2.4669,2.4669,0,0,1,.9375,1.28,2.73,2.73,0,0,1,1.0571-1.2871A3.14,3.14,0,0,1,11.8,30.1172,2.5981,2.5981,0,0,1,13.7808,30.8936Z"/></g><g class="a"><path class="c" d="M22.3765,31.1807a4.22,4.22,0,0,1,.9448,2.9257q0,.337-.0142.5186H17.9038A1.9144,1.9144,0,0,0,19.85,36.1367a2.6406,2.6406,0,0,0,1.022-.2031,2.7109,2.7109,0,0,0,.8818-.5947l1.1338,1.1474a3.8083,3.8083,0,0,1-1.3931.9873,4.6873,4.6873,0,0,1-1.8266.3428,4.34,4.34,0,0,1-2.0791-.4756,3.3392,3.3392,0,0,1-1.3716-1.3447,4.4062,4.4062,0,0,1,.0068-4.0244,3.4271,3.4271,0,0,1,1.3721-1.3574,4.124,4.124,0,0,1,2.0156-.4834A3.5321,3.5321,0,0,1,22.3765,31.1807Zm-1.085,2.17a1.7074,1.7074,0,0,0-.4761-1.19,1.6081,1.6081,0,0,0-1.19-.4482,1.6407,1.6407,0,0,0-1.169.4414,2.045,2.045,0,0,0-.5947,1.1963Z"/><path class="c" d="M32.168,27.3457V37.7324H30.0264V36.627a2.6731,2.6731,0,0,1-1.0078.8886,3.0355,3.0355,0,0,1-1.3721.3008,3.56,3.56,0,0,1-1.8692-.4834,3.2366,3.2366,0,0,1-1.2456-1.3642,4.4823,4.4823,0,0,1-.4409-2.03,4.419,4.419,0,0,1,.4341-2.002,3.1854,3.1854,0,0,1,1.2314-1.3437,3.5114,3.5114,0,0,1,1.834-.4756,2.7971,2.7971,0,0,1,2.4361,1.1894V27.3457ZM29.5015,35.5a2.42,2.42,0,0,0,0-3.01,1.8774,1.8774,0,0,0-2.7159,0,2.37,2.37,0,0,0,0,3.01,1.8794,1.8794,0,0,0,2.7159,0Z"/><path class="c" d="M36.2349,27.1914a1.3084,1.3084,0,0,1,0,1.7354,1.132,1.132,0,0,1-.8472.3359,1.1035,1.1035,0,0,1-.8325-.3428,1.2993,1.2993,0,0,1,0-1.7285,1.1123,1.1123,0,0,1,.8325-.3359A1.132,1.132,0,0,1,36.2349,27.1914Zm-1.9107,3.01H36.48v7.5312H34.3242Z"/></g><g class="a"><path class="c" d="M41.8975,31.9648a1.7211,1.7211,0,0,0-1.3233.5528,2.07,2.07,0,0,0-.5107,1.4629,2.14,2.14,0,0,0,.5039,1.4775,1.6456,1.6456,0,0,0,1.2881.5664,1.944,1.944,0,0,0,1.7495-.8818L45.0889,36.15a3.1889,3.1889,0,0,1-1.3369,1.2324,4.4106,4.4106,0,0,1-2.0088.4336,4.0955,4.0955,0,0,1-2.002-.4756,3.3711,3.3711,0,0,1-1.3506-1.3447,4.0412,4.0412,0,0,1-.4829-2.001,4.1183,4.1183,0,0,1,.4829-2.0234,3.389,3.389,0,0,1,1.3579-1.3574,4.1131,4.1131,0,0,1,2.023-.4834,4.29,4.29,0,0,1,1.9175.413,3.3708,3.3708,0,0,1,1.3442,1.169l-1.4561,1.05A2.0554,2.0554,0,0,0,41.8975,31.9648Z"/></g><g class="a"><path class="c" d="M50.6045,37.7324v-.8818a2.4192,2.4192,0,0,1-.98.7275,3.5652,3.5652,0,0,1-1.3862.252,2.6658,2.6658,0,0,1-1.89-.65,2.2159,2.2159,0,0,1-.7-1.7012,2.0022,2.0022,0,0,1,.7491-1.6592,3.3918,3.3918,0,0,1,2.1211-.6084H50.59V33.07a1.1412,1.1412,0,0,0-.3989-.9307,1.8034,1.8034,0,0,0-1.1689-.3291,4.6578,4.6578,0,0,0-2.24.6583l-.6719-1.4834a8.9425,8.9425,0,0,1,1.68-.6583,6.6613,6.6613,0,0,1,1.7217-.21,3.4977,3.4977,0,0,1,2.3452.7139,2.5157,2.5157,0,0,1,.8467,1.9873l.0147,4.914Zm-.6021-1.7636a1.2579,1.2579,0,0,0,.5879-.8125v-.6719H48.8965a1.6959,1.6959,0,0,0-.9312.2031.7289.7289,0,0,0-.3007.6514.85.85,0,0,0,.3149.6924,1.3157,1.3157,0,0,0,.8608.26A2.0674,2.0674,0,0,0,50.0024,35.9688Z"/><path class="c" d="M54.65,27.3457h2.1553V37.7324H54.65Z"/></g><g class="a"><path class="b" d="M18.9092,42.356a1.3083,1.3083,0,0,1,0,1.7353,1.132,1.132,0,0,1-.8472.3359,1.1034,1.1034,0,0,1-.8325-.3427,1.2993,1.2993,0,0,1,0-1.7285,1.112,1.112,0,0,1,.8325-.336A1.1317,1.1317,0,0,1,18.9092,42.356Zm-1.9107,3.01h2.1558v7.5318H16.9985Z"/></g><g class="a"><path class="c" d="M33.1738,46.0581a2.9416,2.9416,0,0,1,.7349,2.1074v4.732H31.7671V48.7954a1.565,1.565,0,0,0-.3921-1.1338,1.41,1.41,0,0,0-1.064-.4062,1.549,1.549,0,0,0-1.2177.5459,2.0565,2.0565,0,0,0-.4478,1.372v3.7242H26.5034V48.7954a1.5877,1.5877,0,0,0-.3847-1.1269,1.3746,1.3746,0,0,0-1.0572-.4131,1.5714,1.5714,0,0,0-1.2251.5459,2.0378,2.0378,0,0,0-.4546,1.372v3.7242H21.2261V45.3657h2.1557v1.3018a3.0488,3.0488,0,0,1,4.1578-.9307,2.4686,2.4686,0,0,1,.9375,1.28A2.7284,2.7284,0,0,1,29.5342,45.73a3.1392,3.1392,0,0,1,1.6587-.4483A2.5979,2.5979,0,0,1,33.1738,46.0581Z"/><path class="c" d="M40.1382,52.8975v-.8819a2.421,2.421,0,0,1-.98.7276,3.5671,3.5671,0,0,1-1.3862.2519,2.6658,2.6658,0,0,1-1.89-.65,2.2159,2.2159,0,0,1-.7-1.7016,2.0021,2.0021,0,0,1,.7491-1.6592,3.3911,3.3911,0,0,1,2.121-.6084H40.124v-.1406a1.141,1.141,0,0,0-.3989-.9307,1.8028,1.8028,0,0,0-1.1689-.3291,4.6576,4.6576,0,0,0-2.24.6582L35.6445,46.15a8.9417,8.9417,0,0,1,1.68-.6582,6.6611,6.6611,0,0,1,1.7217-.21,3.4956,3.4956,0,0,1,2.3447.7139,2.5164,2.5164,0,0,1,.8472,1.9873l.0142,4.9146Zm-.6021-1.7637a1.26,1.26,0,0,0,.5879-.813v-.6719H38.43a1.6958,1.6958,0,0,0-.9312.2032.7289.7289,0,0,0-.3008.6513.85.85,0,0,0,.315.6929,1.3155,1.3155,0,0,0,.8608.26A2.0674,2.0674,0,0,0,39.5361,51.1338Z"/><path class="c" d="M51.1689,45.3657v6.8316a3.3794,3.3794,0,0,1-.5039,1.8554,3.2936,3.2936,0,0,1-1.414,1.2178,4.8978,4.8978,0,0,1-2.1.4268,5.7551,5.7551,0,0,1-1.7569-.2657,5.9171,5.9171,0,0,1-1.519-.7285l.7978-1.5117a3.95,3.95,0,0,0,2.3379.7559,2.2226,2.2226,0,0,0,1.47-.4551,1.51,1.51,0,0,0,.5459-1.2246v-.8535a2.4916,2.4916,0,0,1-.9521.8115,2.9675,2.9675,0,0,1-1.3159.28,3.2418,3.2418,0,0,1-1.7149-.4551,3.06,3.06,0,0,1-1.1616-1.2818,4.1989,4.1989,0,0,1-.4131-1.9033,4.0392,4.0392,0,0,1,.4131-1.8691,3.0392,3.0392,0,0,1,1.1616-1.2529,3.2727,3.2727,0,0,1,1.7149-.4483,2.87,2.87,0,0,1,1.3017.2871,2.7355,2.7355,0,0,1,.9663.8047V45.3657Zm-2.6318,4.9629a2.0106,2.0106,0,0,0,.49-1.4072,2.0367,2.0367,0,0,0-.49-1.4141,1.7593,1.7593,0,0,0-2.5478,0,2.2384,2.2384,0,0,0-.0069,2.8213,1.7851,1.7851,0,0,0,2.5547,0Z"/><path class="c" d="M55.0537,42.356a1.3083,1.3083,0,0,1,0,1.7353,1.1305,1.1305,0,0,1-.8467.3359,1.1046,1.1046,0,0,1-.833-.3427,1.2993,1.2993,0,0,1,0-1.7285,1.1132,1.1132,0,0,1,.833-.336A1.13,1.13,0,0,1,55.0537,42.356Zm-1.91,3.01h2.1552v7.5318H53.1436Z"/><path class="c" d="M64.1387,46.0659a2.91,2.91,0,0,1,.749,2.1v4.732H62.7324V48.7954a1.55,1.55,0,0,0-.3994-1.1269,1.4378,1.4378,0,0,0-1.085-.4131,1.6149,1.6149,0,0,0-1.26.5527,2.0466,2.0466,0,0,0-.4619,1.3789v3.7105H57.3711V45.3657h2.1553v1.3155A2.8146,2.8146,0,0,1,62.13,45.2817,2.6452,2.6452,0,0,1,64.1387,46.0659Z"/><path class="c" d="M73.8057,45.3657v6.8316a3.38,3.38,0,0,1-.5039,1.8554,3.2973,3.2973,0,0,1-1.4141,1.2178,4.8972,4.8972,0,0,1-2.1.4268,5.7517,5.7517,0,0,1-1.7568-.2657,5.921,5.921,0,0,1-1.52-.7285l.7979-1.5117a3.9517,3.9517,0,0,0,2.3379.7559,2.2242,2.2242,0,0,0,1.4707-.4551,1.5123,1.5123,0,0,0,.5459-1.2246v-.8535a2.4927,2.4927,0,0,1-.9522.8115,2.9682,2.9682,0,0,1-1.3164.28,3.2426,3.2426,0,0,1-1.7148-.4551A3.0584,3.0584,0,0,1,66.52,50.769a4.1989,4.1989,0,0,1-.4131-1.9033,4.0392,4.0392,0,0,1,.4131-1.8691,3.0376,3.0376,0,0,1,1.1612-1.2529,3.2736,3.2736,0,0,1,1.7148-.4483,2.87,2.87,0,0,1,1.3018.2871,2.738,2.738,0,0,1,.9668.8047V45.3657Zm-2.6319,4.9629a2.013,2.013,0,0,0,.49-1.4072,2.0391,2.0391,0,0,0-.49-1.4141,1.7593,1.7593,0,0,0-2.5478,0,2.2384,2.2384,0,0,0-.0069,2.8213,1.7851,1.7851,0,0,0,2.5547,0Z"/></g><g class="a"><path class="b" d="M35.3418,60.8262a2.9759,2.9759,0,0,1,1.47-.378v2.0293a3.1363,3.1363,0,0,0-.3359-.0136,2.2251,2.2251,0,0,0-1.5752.539,1.8642,1.8642,0,0,0-.5806,1.4346v3.626H32.1641V60.5322H34.32V61.89A2.7414,2.7414,0,0,1,35.3418,60.8262Z"/></g><g class="a"><path class="c" d="M43.9858,61.5117a4.22,4.22,0,0,1,.9449,2.9258q0,.3369-.0142.5186H39.5132a1.9144,1.9144,0,0,0,1.9458,1.5117,2.6388,2.6388,0,0,0,1.022-.2032,2.7088,2.7088,0,0,0,.8818-.5947l1.1338,1.1475a3.8083,3.8083,0,0,1-1.3931.9873,4.6877,4.6877,0,0,1-1.8266.3428,4.3394,4.3394,0,0,1-2.0791-.4756,3.3383,3.3383,0,0,1-1.3716-1.3448,4.4062,4.4062,0,0,1,.0068-4.0244,3.4277,3.4277,0,0,1,1.3721-1.3574,4.1237,4.1237,0,0,1,2.0156-.4834A3.532,3.532,0,0,1,43.9858,61.5117Zm-1.0849,2.17a1.7081,1.7081,0,0,0-.4761-1.1894,1.6082,1.6082,0,0,0-1.19-.4483,1.64,1.64,0,0,0-1.169.4415,2.0441,2.0441,0,0,0-.5947,1.1962Z"/><path class="c" d="M49.8716,62.2051a3.648,3.648,0,0,0-1.0777-.19,1.2276,1.2276,0,0,0-.63.1407.4551.4551,0,0,0-.2383.42.52.52,0,0,0,.3222.4756,6.1033,6.1033,0,0,0,1.05.3779,11.3481,11.3481,0,0,1,1.3159.4687,2.4559,2.4559,0,0,1,.896.6866,1.81,1.81,0,0,1,.3779,1.1963,2.0289,2.0289,0,0,1-.86,1.7431,3.6736,3.6736,0,0,1-2.2055.6231,5.7867,5.7867,0,0,1-1.7779-.2735,4.5735,4.5735,0,0,1-1.4838-.7763l.7-1.4561a4.3971,4.3971,0,0,0,1.2807.6934,4.0965,4.0965,0,0,0,1.3369.2451,1.4062,1.4062,0,0,0,.6929-.1475.4766.4766,0,0,0,.2588-.4414.56.56,0,0,0-.3286-.5039,5.5116,5.5116,0,0,0-1.0572-.3916,10.675,10.675,0,0,1-1.2807-.4482,2.2705,2.2705,0,0,1-.875-.6787,1.8338,1.8338,0,0,1-.3643-1.1827,2.0279,2.0279,0,0,1,.84-1.7363,3.5052,3.5052,0,0,1,2.1274-.6162,5.6577,5.6577,0,0,1,1.54.2178,5.144,5.144,0,0,1,1.4.623l-.7422,1.47A6.2882,6.2882,0,0,0,49.8716,62.2051Z"/><path class="c" d="M58.8379,60.9385a3.4313,3.4313,0,0,1,1.4209,1.3437,4.27,4.27,0,0,1,0,4.0244,3.4633,3.4633,0,0,1-1.4209,1.3575,4.863,4.863,0,0,1-4.2275,0A3.4627,3.4627,0,0,1,53.19,66.3066a4.2688,4.2688,0,0,1,0-4.0244A3.4307,3.4307,0,0,1,54.61,60.9385a4.9256,4.9256,0,0,1,4.2275,0Zm-3.4717,1.89a2.4005,2.4005,0,0,0,0,2.9951,1.7656,1.7656,0,0,0,1.3652.5743,1.7458,1.7458,0,0,0,1.3506-.5743,2.3969,2.3969,0,0,0,0-2.9951,1.7461,1.7461,0,0,0-1.3506-.5742A1.7659,1.7659,0,0,0,55.3662,62.8281Z"/><path class="c" d="M69.3447,60.5322v7.5313H67.2021v-1.33a2.6471,2.6471,0,0,1-2.52,1.4141,2.5927,2.5927,0,0,1-1.98-.7774,2.9381,2.9381,0,0,1-.7353-2.1064V60.5322H64.123v4.1153a1.5788,1.5788,0,0,0,.378,1.12,1.346,1.346,0,0,0,1.0361.4062,1.5505,1.5505,0,0,0,1.2178-.5459,2.0619,2.0619,0,0,0,.4472-1.372V60.5322Z"/><path class="c" d="M74.6084,60.8262a2.9745,2.9745,0,0,1,1.47-.378v2.0293a3.15,3.15,0,0,0-.3359-.0136,2.2235,2.2235,0,0,0-1.5752.539,1.8628,1.8628,0,0,0-.5811,1.4346v3.626H71.4307V60.5322h2.1552V61.89A2.746,2.746,0,0,1,74.6084,60.8262Z"/></g><g class="a"><path class="c" d="M80.6,62.2959a1.7219,1.7219,0,0,0-1.3232.5527,2.07,2.07,0,0,0-.5108,1.4629,2.1409,2.1409,0,0,0,.5039,1.4776,1.6466,1.6466,0,0,0,1.2881.5664,1.9443,1.9443,0,0,0,1.75-.8819l1.4834,1.0078a3.1892,3.1892,0,0,1-1.3369,1.2325,4.4087,4.4087,0,0,1-2.0088.4336,4.0968,4.0968,0,0,1-2.0019-.4756,3.3757,3.3757,0,0,1-1.3506-1.3448,4.04,4.04,0,0,1-.4824-2.0009,4.1171,4.1171,0,0,1,.4824-2.0235,3.39,3.39,0,0,1,1.3584-1.3574,4.1108,4.1108,0,0,1,2.0224-.4834,4.2893,4.2893,0,0,1,1.918.4131,3.3727,3.3727,0,0,1,1.3438,1.1689l-1.4561,1.05A2.0547,2.0547,0,0,0,80.6,62.2959Z"/></g><g class="a"><path class="c" d="M90.8955,61.5117a4.22,4.22,0,0,1,.9443,2.9258q0,.3369-.0136.5186H86.4229a1.9134,1.9134,0,0,0,1.9453,1.5117,2.64,2.64,0,0,0,1.0224-.2032,2.7092,2.7092,0,0,0,.8819-.5947l1.1338,1.1475a3.811,3.811,0,0,1-1.3936.9873,4.6853,4.6853,0,0,1-1.8262.3428,4.3386,4.3386,0,0,1-2.0791-.4756,3.3392,3.3392,0,0,1-1.372-1.3448,4.4094,4.4094,0,0,1,.0068-4.0244,3.43,3.43,0,0,1,1.3721-1.3574,4.1235,4.1235,0,0,1,2.0156-.4834A3.5333,3.5333,0,0,1,90.8955,61.5117Zm-1.085,2.17a1.7079,1.7079,0,0,0-.4765-1.1894,1.6079,1.6079,0,0,0-1.19-.4483,1.64,1.64,0,0,0-1.1689.4415,2.0407,2.0407,0,0,0-.5947,1.1962Z"/><path class="c" d="M96.7813,62.2051a3.6483,3.6483,0,0,0-1.0782-.19,1.228,1.228,0,0,0-.63.1407.4552.4552,0,0,0-.2382.42.52.52,0,0,0,.3222.4756,6.1211,6.1211,0,0,0,1.05.3779,11.3194,11.3194,0,0,1,1.3164.4687,2.4567,2.4567,0,0,1,.8955.6866,1.81,1.81,0,0,1,.378,1.1963,2.0289,2.0289,0,0,1-.86,1.7431,3.6722,3.6722,0,0,1-2.2051.6231,5.7869,5.7869,0,0,1-1.7783-.2735,4.5715,4.5715,0,0,1-1.4834-.7763l.7-1.4561a4.39,4.39,0,0,0,1.28.6934,4.0989,4.0989,0,0,0,1.3369.2451,1.4083,1.4083,0,0,0,.6934-.1475.4776.4776,0,0,0,.2588-.4414.56.56,0,0,0-.3291-.5039,5.5067,5.5067,0,0,0-1.0567-.3916,10.68,10.68,0,0,1-1.2812-.4482,2.2727,2.2727,0,0,1-.875-.6787,1.8367,1.8367,0,0,1-.3643-1.1827,2.0272,2.0272,0,0,1,.8408-1.7363,3.5041,3.5041,0,0,1,2.127-.6162,5.6528,5.6528,0,0,1,1.54.2178,5.1372,5.1372,0,0,1,1.4.623l-.7422,1.47A6.2844,6.2844,0,0,0,96.7813,62.2051Z"/></g></g></svg>