<svg xmlns="http://www.w3.org/2000/svg" viewBox="0 0 117.3962 50"><defs><style>.a{fill:#940064;}.b{fill:#fff;}</style></defs><title>mirLogo</title><path class="a" d="M14.4651,4.89a3.5614,3.5614,0,0,1,.89,2.5514V13.17H12.7619V8.2039a1.8937,1.8937,0,0,0-.4747-1.3727,1.7067,1.7067,0,0,0-1.2881-.4919A1.8756,1.8756,0,0,0,9.5245,7a2.49,2.49,0,0,0-.5421,1.6612V13.17H6.3888V8.2039A1.923,1.923,0,0,0,5.923,6.8394a1.6639,1.6639,0,0,0-1.28-.5A1.9028,1.9028,0,0,0,3.16,7a2.4668,2.4668,0,0,0-.55,1.6612V13.17H0V4.0515H2.61v1.576A3.3538,3.3538,0,0,1,5.6946,3.95a3.3417,3.3417,0,0,1,1.9492.551,2.9871,2.9871,0,0,1,1.1351,1.55,3.3054,3.3054,0,0,1,1.28-1.5583A3.8019,3.8019,0,0,1,12.067,3.95,3.1457,3.1457,0,0,1,14.4651,4.89Z"/><path class="b" d="M24.8719,5.2374A5.1091,5.1091,0,0,1,26.0157,8.78q0,.408-.0172.6279H19.4568a2.3177,2.3177,0,0,0,2.3563,1.83,3.1946,3.1946,0,0,0,1.2373-.2459,3.2813,3.2813,0,0,0,1.0676-.72l1.3727,1.3892a4.6107,4.6107,0,0,1-1.6867,1.1953,5.6726,5.6726,0,0,1-2.2114.415,5.2552,5.2552,0,0,1-2.5172-.5758,4.0424,4.0424,0,0,1-1.66-1.628,5.3343,5.3343,0,0,1,.0082-4.8723,4.1478,4.1478,0,0,1,1.6612-1.6434,4.9929,4.9929,0,0,1,2.44-.5853A4.2767,4.2767,0,0,1,24.8719,5.2374ZM23.5583,7.8646a2.0676,2.0676,0,0,0-.5764-1.4407,1.947,1.947,0,0,0-1.4408-.5426,1.9858,1.9858,0,0,0-1.4153.5344,2.476,2.476,0,0,0-.72,1.4483Z"/><path class="b" d="M36.7264.5944V13.17H34.1336V11.8312a3.2352,3.2352,0,0,1-1.22,1.0758,3.6745,3.6745,0,0,1-1.6612.3642,4.31,4.31,0,0,1-2.263-.5852,3.918,3.918,0,0,1-1.508-1.6517,5.4253,5.4253,0,0,1-.5338-2.4577,5.35,5.35,0,0,1,.5255-2.4238A3.8567,3.8567,0,0,1,28.9638,4.526a4.2522,4.2522,0,0,1,2.22-.5758,3.3865,3.3865,0,0,1,2.9494,1.44V.5944Zm-3.2283,9.8724a2.93,2.93,0,0,0,0-3.6442,2.273,2.273,0,0,0-3.2136-.0746q-.0381.0365-.0746.0746a2.87,2.87,0,0,0,0,3.6442,2.2753,2.2753,0,0,0,3.2171.071Q33.4633,10.5031,33.4981,10.4668Z"/><path class="b" d="M41.65.4076a1.584,1.584,0,0,1,0,2.101,1.3705,1.3705,0,0,1-1.0257.4067A1.3364,1.3364,0,0,1,39.6165,2.5a1.5733,1.5733,0,0,1,0-2.0927A1.3473,1.3473,0,0,1,40.6244.0009,1.3705,1.3705,0,0,1,41.65.4076ZM39.3369,4.0518h2.61V13.17h-2.61Z"/><path class="b" d="M48.5058,6.1867a2.0836,2.0836,0,0,0-1.6021.6693,2.5062,2.5062,0,0,0-.6183,1.7711,2.5908,2.5908,0,0,0,.61,1.7888,1.9923,1.9923,0,0,0,1.56.6858,2.3538,2.3538,0,0,0,2.1181-1.0676l1.7965,1.22a3.8612,3.8612,0,0,1-1.6186,1.4921,5.34,5.34,0,0,1-2.432.5249,4.9578,4.9578,0,0,1-2.4238-.5758,4.0817,4.0817,0,0,1-1.6352-1.628,4.8927,4.8927,0,0,1-.5846-2.4226,4.9856,4.9856,0,0,1,.5846-2.45,4.1043,4.1043,0,0,1,1.644-1.6434,4.98,4.98,0,0,1,2.4493-.5852,5.1937,5.1937,0,0,1,2.3215.5,4.0817,4.0817,0,0,1,1.6274,1.4153L50.5393,7.1525A2.4886,2.4886,0,0,0,48.5058,6.1867Z"/><path class="b" d="M59.0473,13.17V12.1019a2.9288,2.9288,0,0,1-1.1865.8808,4.3156,4.3156,0,0,1-1.6782.3051,3.2269,3.2269,0,0,1-2.2882-.787,2.6826,2.6826,0,0,1-.8475-2.06,2.4242,2.4242,0,0,1,.9069-2.0088,4.1061,4.1061,0,0,1,2.568-.7365H59.03V7.5248a1.3817,1.3817,0,0,0-.483-1.1268A2.1834,2.1834,0,0,0,57.1316,6a5.6391,5.6391,0,0,0-2.7119.797l-.8135-1.796a10.8247,10.8247,0,0,1,2.034-.797,8.0642,8.0642,0,0,1,2.0844-.2542,4.2345,4.2345,0,0,1,2.8394.8643A3.0456,3.0456,0,0,1,61.589,7.22l.0178,5.9493Zm-.7289-2.1352a1.5228,1.5228,0,0,0,.7117-.9836V9.2372H56.98a2.0525,2.0525,0,0,0-1.1274.2459.8824.8824,0,0,0-.3641.7886,1.0291,1.0291,0,0,0,.3813.8383,1.5926,1.5926,0,0,0,1.0421.3148A2.5029,2.5029,0,0,0,58.3184,11.0343Z"/><path class="b" d="M63.9452.5944h2.6094V13.17H63.9452Z"/><path class="a" d="M20.674,18.7673a1.5838,1.5838,0,0,1,0,2.1009,1.3705,1.3705,0,0,1-1.0257.4067A1.3363,1.3363,0,0,1,18.64,20.86a1.5733,1.5733,0,0,1,0-2.0927,1.3463,1.3463,0,0,1,1.0079-.4068A1.37,1.37,0,0,1,20.674,18.7673Zm-2.3132,3.6442h2.61V31.53h-2.61Z"/><path class="b" d="M37.9441,23.2494a3.5615,3.5615,0,0,1,.89,2.5514V31.53H36.241V26.5634a1.8948,1.8948,0,0,0-.4747-1.3727,1.7076,1.7076,0,0,0-1.2882-.4918,1.8751,1.8751,0,0,0-1.4742.661,2.4893,2.4893,0,0,0-.5422,1.661V31.53H29.8683V26.5634a1.9221,1.9221,0,0,0-.4658-1.3643,1.6643,1.6643,0,0,0-1.28-.5,1.9024,1.9024,0,0,0-1.4832.661,2.4665,2.4665,0,0,0-.55,1.661V31.53h-2.61V22.4111h2.61v1.5761A3.6912,3.6912,0,0,1,31.1228,22.86a2.9884,2.9884,0,0,1,1.135,1.55,3.3032,3.3032,0,0,1,1.28-1.5579,3.8,3.8,0,0,1,2.0081-.5428A3.1454,3.1454,0,0,1,37.9441,23.2494Z"/><path class="b" d="M46.3758,31.53V30.4621a2.9312,2.9312,0,0,1-1.1864.8809,4.32,4.32,0,0,1-1.6783.305,3.2279,3.2279,0,0,1-2.2882-.787,2.6829,2.6829,0,0,1-.8475-2.06,2.4241,2.4241,0,0,1,.9069-2.0088,4.1059,4.1059,0,0,1,2.5679-.7366h2.5085v-.17a1.3814,1.3814,0,0,0-.483-1.1268,2.1821,2.1821,0,0,0-1.4152-.3984,5.6383,5.6383,0,0,0-2.7119.7969l-.8132-1.7963a10.814,10.814,0,0,1,2.0339-.7969,8.0645,8.0645,0,0,1,2.0845-.2543,4.2327,4.2327,0,0,1,2.8387.8643A3.0469,3.0469,0,0,1,48.9182,25.58l.0172,5.95Zm-.7289-2.1353a1.525,1.525,0,0,0,.7117-.9843v-.8135H44.3077a2.0538,2.0538,0,0,0-1.1274.2461.8826.8826,0,0,0-.3641.7885,1.029,1.029,0,0,0,.3813.8389,1.5924,1.5924,0,0,0,1.0422.3147A2.5027,2.5027,0,0,0,45.6469,29.3945Z"/><path class="b" d="M59.7306,22.4111v8.271a4.0912,4.0912,0,0,1-.61,2.2463,3.9882,3.9882,0,0,1-1.712,1.4744,5.93,5.93,0,0,1-2.5424.5167,6.9688,6.9688,0,0,1-2.1271-.3217,7.1649,7.1649,0,0,1-1.839-.882l.9659-1.83a4.7823,4.7823,0,0,0,2.83.9152,2.6912,2.6912,0,0,0,1.78-.551,1.8282,1.8282,0,0,0,.6609-1.4826V29.7339a3.0169,3.0169,0,0,1-1.1527.9824,3.5921,3.5921,0,0,1-1.5932.339,3.9245,3.9245,0,0,1-2.0762-.551,3.7034,3.7034,0,0,1-1.4063-1.5518,5.0839,5.0839,0,0,1-.5-2.3043,4.8905,4.8905,0,0,1,.5-2.2629,3.6792,3.6792,0,0,1,1.4063-1.5169,3.9621,3.9621,0,0,1,2.0762-.5428,3.4756,3.4756,0,0,1,1.576.3476,3.3121,3.3121,0,0,1,1.17.9743V22.4111ZM56.5443,28.42a2.434,2.434,0,0,0,.5933-1.7036,2.4657,2.4657,0,0,0-.5933-1.7121,2.13,2.13,0,0,0-3.0113-.0732q-.0375.0357-.0733.0732a2.71,2.71,0,0,0-.0083,3.4157,2.1612,2.1612,0,0,0,3.0562.0368Z"/><path class="b" d="M64.4339,18.7673a1.5838,1.5838,0,0,1,0,2.1009,1.3687,1.3687,0,0,1-1.0251.4067A1.3377,1.3377,0,0,1,62.4,20.86a1.5733,1.5733,0,0,1,0-2.0927,1.3479,1.3479,0,0,1,1.0085-.4068A1.3677,1.3677,0,0,1,64.4339,18.7673Zm-2.3124,3.6442h2.6093V31.53H62.1214Z"/><path class="b" d="M75.4331,23.2588a3.5231,3.5231,0,0,1,.9068,2.5425V31.53H73.7305V26.5634a1.8766,1.8766,0,0,0-.4836-1.3643,1.7407,1.7407,0,0,0-1.3136-.5,1.9553,1.9553,0,0,0-1.5254.6692,2.478,2.478,0,0,0-.5593,1.6694V31.53H67.24V22.4111H69.849v1.5927a3.4076,3.4076,0,0,1,3.1522-1.6944A3.2025,3.2025,0,0,1,75.4331,23.2588Z"/><path class="b" d="M87.1369,22.4111v8.271a4.0929,4.0929,0,0,1-.61,2.2463,3.9922,3.9922,0,0,1-1.7121,1.4744,5.9286,5.9286,0,0,1-2.5424.5167,6.961,6.961,0,0,1-2.1269-.3217,7.1649,7.1649,0,0,1-1.84-.882l.966-1.83a4.784,4.784,0,0,0,2.8305.9152,2.6931,2.6931,0,0,0,1.7806-.551,1.8308,1.8308,0,0,0,.6609-1.4826V29.7339a3.0175,3.0175,0,0,1-1.1529.9824,3.5925,3.5925,0,0,1-1.5937.339,3.9257,3.9257,0,0,1-2.0761-.551,3.7023,3.7023,0,0,1-1.4043-1.5515,5.0832,5.0832,0,0,1-.5-2.3043,4.89,4.89,0,0,1,.5-2.2629,3.6782,3.6782,0,0,1,1.4059-1.5169,3.9642,3.9642,0,0,1,2.0761-.5427,3.4733,3.4733,0,0,1,1.576.3476,3.3138,3.3138,0,0,1,1.1705.9742V22.4111ZM83.95,28.42a2.4373,2.4373,0,0,0,.5933-1.7036,2.4688,2.4688,0,0,0-.5933-1.7121,2.13,2.13,0,0,0-3.0113-.0732q-.0375.0357-.0733.0732a2.71,2.71,0,0,0-.0083,3.4157,2.1612,2.1612,0,0,0,3.0562.0368Z"/><path class="a" d="M40.5689,41.129a3.6024,3.6024,0,0,1,1.78-.4576v2.4568a3.8081,3.8081,0,0,0-.4067-.0164,2.6937,2.6937,0,0,0-1.9071.6525,2.2572,2.2572,0,0,0-.7029,1.7369v4.39h-2.61V40.7731h2.61V42.417A3.319,3.319,0,0,1,40.5689,41.129Z"/><path class="b" d="M51.0341,41.959a5.1088,5.1088,0,0,1,1.144,3.5422q0,.4079-.0172.6279H45.6192a2.3176,2.3176,0,0,0,2.3557,1.83,3.1967,3.1967,0,0,0,1.2374-.246,3.2788,3.2788,0,0,0,1.0675-.72l1.3727,1.3892a4.61,4.61,0,0,1-1.6866,1.1953,5.6751,5.6751,0,0,1-2.2114.4151,5.2552,5.2552,0,0,1-2.5172-.5758,4.0419,4.0419,0,0,1-1.6606-1.6282,5.3346,5.3346,0,0,1,.0083-4.8723,4.1494,4.1494,0,0,1,1.6611-1.6434,4.992,4.992,0,0,1,2.44-.5852A4.2759,4.2759,0,0,1,51.0341,41.959Zm-1.3135,2.6272a2.0677,2.0677,0,0,0-.5764-1.44,1.9469,1.9469,0,0,0-1.4407-.5428,1.9857,1.9857,0,0,0-1.4153.5345,2.4748,2.4748,0,0,0-.72,1.4483Z"/><path class="b" d="M58.16,42.7985a4.4168,4.4168,0,0,0-1.3048-.23,1.486,1.486,0,0,0-.7627.17.5509.5509,0,0,0-.2885.5085.63.63,0,0,0,.39.5758,7.3935,7.3935,0,0,0,1.2712.4575,13.7456,13.7456,0,0,1,1.5932.5674,2.9726,2.9726,0,0,1,1.0847.8313,2.1916,2.1916,0,0,1,.4576,1.4483,2.4565,2.4565,0,0,1-1.0412,2.11,4.4477,4.4477,0,0,1-2.67.7544,7.0056,7.0056,0,0,1-2.1525-.3311,5.5364,5.5364,0,0,1-1.7964-.94l.8474-1.7629a5.3236,5.3236,0,0,0,1.5506.84,4.9585,4.9585,0,0,0,1.6186.2968,1.7032,1.7032,0,0,0,.8388-.1786.577.577,0,0,0,.3134-.5344.678.678,0,0,0-.3979-.61,6.6727,6.6727,0,0,0-1.28-.4741,12.935,12.935,0,0,1-1.55-.5426,2.7491,2.7491,0,0,1-1.0594-.8217,2.22,2.22,0,0,1-.4411-1.4319,2.4554,2.4554,0,0,1,1.017-2.1021,4.2436,4.2436,0,0,1,2.5757-.7461,6.8522,6.8522,0,0,1,1.8644.2637,6.2268,6.2268,0,0,1,1.695.7543l-.8986,1.78A7.6138,7.6138,0,0,0,58.16,42.7985Z"/><path class="b" d="M69.0154,41.265a4.1539,4.1539,0,0,1,1.72,1.6268,5.17,5.17,0,0,1,0,4.8723,4.1922,4.1922,0,0,1-1.72,1.6435,5.8872,5.8872,0,0,1-5.1182,0,4.1917,4.1917,0,0,1-1.72-1.6435,5.1681,5.1681,0,0,1,0-4.8723,4.1525,4.1525,0,0,1,1.7192-1.6268,5.9631,5.9631,0,0,1,5.1182,0Zm-4.2031,2.2882a2.9063,2.9063,0,0,0,0,3.6261,2.1372,2.1372,0,0,0,1.6528.6953A2.1132,2.1132,0,0,0,68.1,47.1793a2.902,2.902,0,0,0,0-3.6261,2.114,2.114,0,0,0-1.6352-.6952,2.138,2.138,0,0,0-1.6528.6947Z"/><path class="b" d="M81.736,40.7731v9.1181H79.1419v-1.61A3.2048,3.2048,0,0,1,76.091,49.993a3.1389,3.1389,0,0,1-2.3972-.9412,3.5573,3.5573,0,0,1-.89-2.55V40.7731h2.6105v4.9823a1.9114,1.9114,0,0,0,.4576,1.356,1.63,1.63,0,0,0,1.2544.4918,1.8774,1.8774,0,0,0,1.4744-.6609,2.4962,2.4962,0,0,0,.5414-1.6611V40.7731Z"/><path class="b" d="M88.1087,41.129a3.6014,3.6014,0,0,1,1.78-.4576v2.4568a3.8081,3.8081,0,0,0-.4067-.0164,2.6922,2.6922,0,0,0-1.9071.6525,2.2556,2.2556,0,0,0-.7035,1.7369v4.39h-2.61V40.7731h2.6092V42.417A3.3255,3.3255,0,0,1,88.1087,41.129Z"/><path class="b" d="M95.3627,42.9084a2.0849,2.0849,0,0,0-1.602.6691,2.5059,2.5059,0,0,0-.6184,1.7712,2.5917,2.5917,0,0,0,.61,1.7889,1.9939,1.9939,0,0,0,1.56.6857,2.3538,2.3538,0,0,0,2.1187-1.0677l1.796,1.22a3.8608,3.8608,0,0,1-1.6186,1.4922,5.3383,5.3383,0,0,1-2.432.525,4.96,4.96,0,0,1-2.4237-.5758,4.0872,4.0872,0,0,1-1.6352-1.6282,4.891,4.891,0,0,1-.584-2.4225,4.9835,4.9835,0,0,1,.584-2.45,4.1045,4.1045,0,0,1,1.6446-1.6434A4.9765,4.9765,0,0,1,95.21,40.688a5.1917,5.1917,0,0,1,2.3221.5,4.0839,4.0839,0,0,1,1.627,1.4152l-1.7629,1.2712A2.4877,2.4877,0,0,0,95.3627,42.9084Z"/><path class="b" d="M107.8274,41.959a5.1089,5.1089,0,0,1,1.1432,3.5422q0,.4079-.0165.6279h-6.5417a2.3165,2.3165,0,0,0,2.3552,1.83,3.1972,3.1972,0,0,0,1.2378-.246,3.28,3.28,0,0,0,1.0677-.72l1.3727,1.3892a4.6133,4.6133,0,0,1-1.6873,1.1953,5.672,5.672,0,0,1-2.2109.4151,5.254,5.254,0,0,1-2.5172-.5758,4.0437,4.0437,0,0,1-1.6611-1.6282,5.3385,5.3385,0,0,1,.0083-4.8723,4.1528,4.1528,0,0,1,1.6612-1.6434,4.9916,4.9916,0,0,1,2.44-.5852A4.2776,4.2776,0,0,1,107.8274,41.959Zm-1.3136,2.6272a2.0683,2.0683,0,0,0-.5769-1.44,1.9472,1.9472,0,0,0-1.4408-.5428,1.9858,1.9858,0,0,0-1.4151.5345,2.4712,2.4712,0,0,0-.72,1.4483Z"/><path class="b" d="M114.9533,42.7985a4.4149,4.4149,0,0,0-1.3054-.23,1.487,1.487,0,0,0-.7627.17.5508.5508,0,0,0-.2884.5085.63.63,0,0,0,.39.5758,7.41,7.41,0,0,0,1.2712.4575,13.6911,13.6911,0,0,1,1.5937.5674,2.9739,2.9739,0,0,1,1.0842.8313,2.1915,2.1915,0,0,1,.4577,1.4483,2.4565,2.4565,0,0,1-1.0412,2.11,4.4462,4.4462,0,0,1-2.67.7544,7.0087,7.0087,0,0,1-2.153-.3311,5.5355,5.5355,0,0,1-1.796-.94l.8475-1.7629a5.3153,5.3153,0,0,0,1.55.84,4.9642,4.9642,0,0,0,1.6186.2968,1.7057,1.7057,0,0,0,.84-.1786.5783.5783,0,0,0,.3133-.5344.6781.6781,0,0,0-.3984-.61,6.6657,6.6657,0,0,0-1.2794-.4741,12.9264,12.9264,0,0,1-1.5511-.5426,2.7525,2.7525,0,0,1-1.0594-.8217,2.2236,2.2236,0,0,1-.441-1.4319,2.4544,2.4544,0,0,1,1.0179-2.1021,4.2428,4.2428,0,0,1,2.5752-.7461,6.8439,6.8439,0,0,1,1.8644.2637,6.2194,6.2194,0,0,1,1.695.7543l-.8986,1.78A7.6052,7.6052,0,0,0,114.9533,42.7985Z"/></svg>