<svg xmlns="http://www.w3.org/2000/svg" viewBox="0 0 99.8455 27.3136"><defs><style>.a{fill:#231f20;}.b{fill:#006bb5;}.c{fill:#fefefe;}.d{fill:#fdfdfd;}.e{fill:#006bb4;}.f{fill:#fcfcfd;}.g{fill:#fbfbfb;}.h{fill:#d1d2d4;}.i{fill:#f9f9f9;}.j{fill:#e2e3e4;}.k{fill:#f7f8f8;}.l{fill:#d7d8da;}.m{fill:#e6e6e8;}.n{fill:#caccce;}.o{fill:#dbddde;}.p{fill:#c3c5c6;}.q{fill:#f6f7f7;}.r{fill:#f5f5f6;}.s{fill:#b9bbbe;}.t{fill:#b1b3b5;}.u{fill:#eeeeef;}.v{fill:#f6f7f8;}.w{fill:#403f42;}.x{fill:#b5b7ba;}.y{fill:#979a9d;}.z{fill:#d3d4d6;}.aa{fill:#c5c7ca;}.ab{fill:#dcddde;}.ac{fill:#eaebec;}.ad{fill:#acaeb0;}.ae{fill:#9c9ea1;}.af{fill:#f0f1f2;}.ag{fill:#333233;}.ah{fill:#353539;}.ai{fill:#a9abad;}.aj{fill:#949699;}.ak{fill:#757679;}.al{fill:#c7c8ca;}.am{fill:#bfc1c3;}.an{fill:#838487;}.ao{fill:#ededee;}.ap{fill:#c4c6c8;}.aq{fill:#7c7e80;}.ar{fill:#a5a6a9;}.as{fill:#b8babc;}.at{fill:#747577;}.au{fill:#a7a8ab;}.av{fill:#f3f4f5;}.aw{fill:#f8f9f9;}.ax{fill:#a2a4a6;}.ay{fill:#8b8e92;}.az{fill:#e8e9ea;}.ba{fill:#d2d3d5;}.bb{fill:#7f8083;}.bc{fill:#7a7c7e;}.bd{fill:#e4e5e6;}.be{fill:#929396;}.bf{fill:#cdcecf;}.bg{fill:#717274;}.bh{fill:#babcbe;}.bi{fill:#e8e8e9;}.bj{fill:#1d1e21;}.bk{fill:#464648;}.bl{fill:#858789;}.bm{fill:#b1b3b6;}.bn{fill:#3e3d3d;}.bo{fill:#97999b;}.bp{fill:#c4c5c7;}.bq{fill:#d1d2d3;}.br{fill:#9d9fa1;}.bs{fill:#b0b2b4;}.bt{fill:#dbdcdd;}.bu{fill:#c1c3c5;}.bv{fill:#bbbdbf;}.bw{fill:#98999b;}.bx{fill:#c0c2c5;}.by{fill:#363537;}.bz{fill:#d8d9da;}.ca{fill:#373536;}.cb{fill:#afb0b3;}.cc{fill:#797a7c;}.cd{fill:#f4f4f5;}.ce{fill:#9fa1a3;}.cf{fill:#d4d5d7;}.cg{fill:#8b8c8e;}.ch{fill:#929496;}.ci{fill:#eceded;}.cj{fill:#d9dadc;}.ck{fill:#aeb0b2;}.cl{fill:#616265;}.cm{fill:#b4b6b8;}.cn{fill:#a3a5a8;}.co{fill:#a8aaac;}.cp{fill:#b1b2b5;}.cq{fill:#8a8c8f;}.cr{fill:#bfc2c3;}.cs{fill:#8d8f91;}.ct{fill:#ebebec;}.cu{fill:#9b9d9f;}.cv{fill:#939598;}.cw{fill:#bcbec0;}.cx{fill:#e0e1e2;}.cy{fill:#f2f3f4;}.cz{fill:#b7b8bb;}.da{fill:#7b7d7f;}.db{fill:#b9bbbd;}.dc{fill:#e1e2e3;}.dd{fill:#e5e6e7;}.de{fill:#376ca0;}.df{fill:#ccced0;}.dg{fill:#909194;}.dh{fill:#484f5b;}.di{fill:#dddee0;}.dj{fill:#abadaf;}.dk{fill:#f5f5f5;}.dl{fill:#8c8f94;}.dm{fill:#989a9c;}.dn{fill:#c8cacb;}.do{fill:#474e5a;}.dp{fill:#1b68ae;}.dq{fill:#7a8091;}.dr{fill:#286fb1;}.ds{fill:#406fa4;}.dt{fill:#222021;}.du{fill:#c9cacc;}.dv{fill:#bbbdbe;}.dw{fill:#d6d7d8;}.dx{fill:#cdced0;}.dy{fill:#727173;}.dz{fill:#9fa0a1;}.ea{fill:#727275;}.eb{fill:#202021;}.ec{fill:#62687a;}.ed{fill:#242021;}.ee{fill:#0369b7;}.ef{fill:#353236;}.eg{fill:#414045;}.eh{fill:#211f1d;}.ei{fill:#262223;}.ej{fill:#262224;}.ek{fill:#2b2829;}.el{fill:#3e3e3f;}.em{fill:#3d3d3e;}.en{fill:#474747;}.eo{fill:#424242;}.ep{fill:#383839;}.eq{fill:#454546;}.er{fill:#3d3c3e;}.es{fill:#414141;}.et{fill:#1f1f20;}.eu{fill:#444445;}.ev{fill:#202020;}.ew{fill:#212122;}.ex{fill:#1f1f1f;}.ey{fill:#3a3a3b;}.ez{fill:#3b3b3b;}.fa{fill:#404041;}.fb{fill:#424142;}.fc{fill:#3d3d3d;}.fd{fill:#454446;}.fe{fill:#414142;}.ff{fill:#474748;}.fg{fill:#3b3a3b;}.fh{fill:#888a8c;}.fi{fill:#818284;}.fj{fill:#909295;}.fk{fill:#7d7f82;}.fl{fill:#9da0a2;}.fm{fill:#c8c9cb;}.fn{fill:#f6f6f7;}.fo{fill:#adafb1;}.fp{fill:#b7b9bb;}.fq{fill:#eeeff0;}.fr{fill:#424243;}.fs{fill:#3e3d3e;}.ft{fill:#444344;}.fu{fill:#4c4c4d;}.fv{fill:#464647;}.fw{fill:#3e3e3e;}.fx{fill:#434244;}.fy{fill:#201f20;}.fz{fill:#444;}.ga{fill:#4b4a4b;}.gb{fill:#272728;}.gc{fill:#cecfd1;}.gd{fill:#f0f1f1;}.ge{fill:#838587;}.gf{fill:#9fa2a4;}.gg{fill:#cacccd;}.gh{fill:#b8babb;}.gi{fill:#9b9da0;}.gj{fill:#c5c6c7;}.gk{fill:#bdbfc1;}.gl{fill:#a1a3a5;}.gm{fill:#bfc2c5;}.gn{fill:#d0d1d3;}.go{fill:#b4b6bd;}.gp{fill:#f6f7f9;}.gq{fill:#d6d8da;}.gr{fill:#86888a;}.gs{fill:#78797b;}.gt{fill:#97999c;}.gu{fill:#cfd0d2;}.gv{fill:#e5e6e9;}.gw{fill:#dcdddf;}.gx{fill:#a4a6a9;}.gy{fill:#f0f0f1;}.gz{fill:#6a6b6d;}</style></defs><title>mrLogo</title><path class="a" d="M.0091,27.2516Q.0091,13.8871,0,.5226C0,.1289.0462,0,.497,0Q50.14.0218,99.7834.0132A1.0683,1.0683,0,0,1,99.83.5519q.0039,13.0694.0013,26.1386c0,.68.0752.61-.615.61q-49.3342.0007-98.6684-.0021A1.0709,1.0709,0,0,1,.0091,27.2516Z"/><path class="b" d="M7.8553,14.363l-.2615.7183c-.6466.3323-.72.481-.5931,1.2149a.7778.7778,0,0,1,.001.2964,5.8144,5.8144,0,0,0-.4153,2.4015c-.1268.4385-.2.92-.7806,1.0071a.5229.5229,0,0,0-.2611.5476c0,.1452,0,.29,0,.4347,0,.1038,0,.2072-.0063.3107a6.6773,6.6773,0,0,0-.3567,2.4272,4.84,4.84,0,0,1-.5178,1.2113,1.3917,1.3917,0,0,0-.2045.7477c-.0207.192.1222.3815.0193.58-.1516.293-.3116-.0306-.4548.0072a10.5656,10.5656,0,0,1-2.1061.0836c-.22.0138-.3975-.0421-.4081-.3119Q1.4974,14.0655,1.5076,2.0948a.81.81,0,0,1,.07-.4849,1.0588,1.0588,0,0,1,.5388-.0475q4.3149-.005,8.63-.0027-4.3351-.0006-8.67,0c-.5659,0-.569.0009-.5691.5755q-.0014,11.6476-.0006,23.2953a3.8793,3.8793,0,0,1-.004.4485c-.019.1613.0776.4416-.1675.4322-.2067-.0079-.17-.2828-.1764-.4614-.0051-.1495-.0012-.2993-.0012-.4489q0-11.5479-.0033-23.0957c0-.2366.0906-.5113-.1843-.679.0033-.1613.0153-.3229.0076-.4837-.011-.2317.1075-.26.3091-.26q5.6249.0117,11.25.0107a.9221.9221,0,0,1,.1468.0237c.0151.2763-.2271.3427-.3929.454a1.9294,1.9294,0,0,0-.7835,1.0455,16.48,16.48,0,0,0-.6586,2.4789.4446.4446,0,0,1-.1174.2658.4367.4367,0,0,0-.1633.2922c-.0636.2923-.1254.5822-.54.56-.1289-.0069-.226.1244-.2535.2692a3.2063,3.2063,0,0,1,.042,1.0834,5.71,5.71,0,0,0-.4,2.0274.3366.3366,0,0,1-.1442.3475.3146.3146,0,0,0-.0469.0844c-.08.4129-.2219.7631-.734.7548-.11.1658-.0213.3656-.091.5384a.9973.9973,0,0,0-.0009.6906.6238.6238,0,0,1-.0147.2277,6.12,6.12,0,0,0-.4036,2.03C7.99,14.1784,7.9892,14.3036,7.8553,14.363Z"/><path class="c" d="M38.3985,7.852a31.889,31.889,0,0,1-2.0131,3.4046c-.3748.5687-.4442.5715-.8164.0093a25.7536,25.7536,0,0,1-2.0026-3.3834c-.1478,1.22-.3055,2.3257-.4035,3.4363-.0357.4052-.19.4922-.5513.4653a8.3253,8.3253,0,0,0-1.1455,0c-.3062.02-.3934-.0474-.34-.38.365-2.2622.7067-4.5282,1.0558-6.7929.0657-.4267.1231-.8548.2007-1.2793.0211-.1154-.0273-.288.1538-.3283.1914-.0425.2548.1131.3339.2378,1.0222,1.6119,2.0887,3.1963,3.0173,4.8663.032.0574.0648.1143.0934.1647.16.0319.162-.104.2046-.1784.9483-1.6585,2.0272-3.2348,3.0529-4.8445.0783-.1229.143-.2784.3332-.25.2251.0339.1517.2292.171.3582.4035,2.6933.7965,5.3881,1.2066,8.08.0408.2675.0014.3546-.2782.3446-.4977-.0179-.9972-.02-1.4948.0009-.2693.0112-.3314-.1073-.3611-.3435C38.6706,10.295,38.4821,9.1555,38.3985,7.852Z"/><path class="c" d="M91.4869,24.4661a4.4869,4.4869,0,1,1-.1551-8.9725q.1226-.0021.2451.0025A4.3373,4.3373,0,0,1,96.0625,19.68q.0039.1118.002.2237a4.4483,4.4483,0,0,1-4.3307,4.5629Q91.61,24.47,91.4869,24.4661Z"/><path class="c" d="M61.3691,19.9505c0-1.3132.0043-2.6265-.0039-3.94-.0014-.2269.0179-.3722.3-.3871a13.6832,13.6832,0,0,1,3.7256.0853A3.6492,3.6492,0,0,1,68.455,18.73a4.4579,4.4579,0,0,1-1.6756,4.7437,4.54,4.54,0,0,1-2.611.8645c-.779.033-1.5612-.0154-2.3419-.0106-.35.0022-.4765-.1064-.4681-.4884C61.3864,22.544,61.369,21.2471,61.3691,19.9505Z"/><path class="c" d="M55.3825,7.4154c0-1.33.01-2.66-.0076-3.9892-.0042-.3129.0876-.403.3917-.3865.4474.0243.8979.0214,1.3457.001.287-.0131.3666.0885.3615.3693-.0165.8973.0061,1.7953-.013,2.6925-.0064.3017.07.4025.3852.3941.8305-.0223,1.6625-.0243,2.4929,0,.33.01.3827-.1176.3776-.4044-.0154-.8641.0069-1.7289-.0119-2.5928-.007-.3236.0464-.4987.4254-.4589.5408.0569,1.2675-.23,1.5766.1113.2692.2969.0884,1.0108.0893,1.54.0039,2.2108-.0088,4.4216.0108,6.6322.0034.3816-.1022.4895-.4718.461a10.4118,10.4118,0,0,0-1.2957-.0027c-.2725.013-.3356-.0939-.3324-.3458.0118-.9141-.0146-1.829.0136-2.7423.0113-.3665-.1129-.4391-.45-.4289-.7971.0241-1.5958.0213-2.3931.0006-.3145-.0082-.4283.0641-.4189.4044.0255.9135-.0012,1.8283.0143,2.7423.0047.2755-.0625.3863-.3565.37a10.529,10.529,0,0,0-1.2957.0012c-.3421.0238-.4539-.0684-.4475-.43C55.3964,10.0419,55.3825,8.7284,55.3825,7.4154Z"/><path class="c" d="M92.9914,7.7351c0-1.4872.0164-2.8632-.01-4.2383-.0077-.39.1159-.4948.4766-.4547.4734.0526,1.1088-.2072,1.3809.1069.2341.27.0774.887.078,1.3506q.0049,3.4646-.0035,6.9293c-.0005.1478.1084.3559-.0977.4408-.1842.076-.3027-.095-.4249-.1989-1.6585-1.4091-3.3356-2.7975-4.8761-4.3393-.0429-.043-.0912-.08-.1935-.17,0,1.3886-.0218,2.7084.0118,4.0268.0119.4654-.0829.6682-.5836.598a3.9343,3.9343,0,0,0-.9454-.0018c-.3675.0384-.4316-.1172-.43-.4479.0124-2.6421.0062-5.2842.0118-7.9263,0-.1363-.0845-.3206.0865-.4035.1829-.0888.3066.0645.4318.1706C89.54,4.5626,91.177,5.9458,92.6976,7.46,92.7664,7.5284,92.8389,7.5926,92.9914,7.7351Z"/><path class="c" d="M38.1878,24.3323c-.6645,0-1.2961-.0151-1.9263.007a.55.55,0,0,1-.5494-.3219c-.5486-.9092-1.1123-1.8093-1.6751-2.71-.0753-.12-.1225-.3358-.2887-.2994-.1934.0424-.09.2543-.0913.3864-.01.8469-.0154,1.6942.0012,2.5408.0056.2879-.047.4268-.3766.4036a12.0218,12.0218,0,0,0-1.2449-.003c-.24.008-.36-.0412-.36-.3222q.0129-4.0356,0-8.0712c-.0007-.2434.0967-.322.3168-.33a12.4512,12.4512,0,0,1,3.1273.1007,2.26,2.26,0,0,1,1.9266,1.8387,2.5411,2.5411,0,0,1-.93,2.7545c-.3156.2323-.3361.3632-.1174.6721.6712.9478,1.31,1.9191,1.9549,2.8851C38.0437,23.9945,38.1869,24.1015,38.1878,24.3323Z"/><path class="c" d="M76.4128,9.6312c0,.5317-.0057,1.0636.0035,1.5951.0035.2022-.0227.3525-.2552.4081a6.2288,6.2288,0,0,1-5.0516-.5366A4.3971,4.3971,0,0,1,72.26,3.2313a7.6784,7.6784,0,0,1,3.7465-.1764c.2377.0382.3406.1186.3157.3823-.0451.4788.1187,1.0928-.1224,1.4051-.24.3107-.8311-.0877-1.2819-.0911a5.6989,5.6989,0,0,0-1.5319.1317,2.6482,2.6482,0,0,0-1.5975,4.0388,2.3873,2.3873,0,0,0,2.296,1.1193c.24-.0078.26-.1261.2575-.3153-.0072-.5815.017-1.1641-.01-1.7443-.0152-.3211.097-.3973.3954-.3806a12.1178,12.1178,0,0,0,1.2955.0006c.2979-.0153.4122.0671.3971.3851C76.3936,8.5336,76.4124,9.0828,76.4128,9.6312Z"/><path class="c" d="M53.5953,24.3314c-.7183,0-1.3495-.0188-1.9787.0083a.4465.4465,0,0,1-.5-.353c-.3611-.9122-.369-.9091-1.35-.9091a2.6977,2.6977,0,0,1-.398-.0027c-.8362-.1258-1.4949.0237-1.6478,1.0119-.0306.1982-.17.2521-.3643.2489-.5969-.01-1.194-.0036-1.78-.0036-.0861-.1438.01-.242.0535-.3405q1.8015-4.0713,3.6144-8.1374c.0672-.1506.0654-.3851.3188-.39.256-.005.2589.2257.3261.3786q1.77,4.0311,3.53,8.0666C53.47,24.0268,53.518,24.1458,53.5953,24.3314Z"/><path class="c" d="M85.7707,11.7778c-.6674,0-1.3449-.011-2.0218.0057-.254.0062-.29-.1577-.3609-.3274-.397-.9451-.3988-.9443-1.4353-.9446a2.3994,2.3994,0,0,1-.3985-.0031c-.8232-.14-1.413.0705-1.5666.9912-.0339.2029-.1644.29-.3909.2837-.596-.0167-1.1927-.0056-1.799-.0056a1.4517,1.4517,0,0,1,.2325-.67q1.7207-3.8961,3.4559-7.7856c.0729-.1634.062-.4283.3453-.42.2492.0072.2443.2422.3116.3952q1.7752,4.0352,3.5373,8.0762C85.7306,11.4884,85.833,11.5984,85.7707,11.7778Z"/><path class="c" d="M51.6008,11.8807a4.6724,4.6724,0,0,1-1.4346-.1287,4.4167,4.4167,0,0,1,.0976-8.6361A7.7575,7.7575,0,0,1,52.8913,3c.3188.0375.4237.1556.3856.4733a6.6581,6.6581,0,0,0-.0485,1.0942c.0157.3421-.1137.3786-.4091.3177a3.9856,3.9856,0,0,0-2.2116.1373,2.59,2.59,0,0,0,.5576,4.969,4.3386,4.3386,0,0,0,1.6365-.0443c.39-.0962.4662.0334.4392.3712a3.2868,3.2868,0,0,0,.0188.398c.0466,1.0834.0466,1.0855-1.061,1.1626C52,11.8925,51.8,11.8807,51.6008,11.8807Z"/><path class="c" d="M7.8553,14.363A4.2731,4.2731,0,0,1,8.2577,11.98c.2183.0865.2287.3013.2938.4807a8.0368,8.0368,0,0,0,.8044,1.63,4.7616,4.7616,0,0,0,.414.632,3.4358,3.4358,0,0,0,.7238.8557.5784.5784,0,0,1,.0978.0975,4.0355,4.0355,0,0,0,1.1239,1.1088.7729.7729,0,0,1,.1488.1453c.0924.2214.3024.32.4784.4537a2.314,2.314,0,0,0,.5216.41c.3127.2371.6256.4735.9571.6839.19.17.4318.2635.6251.4275.0619.0248.1255.0457.1849.0763.2.0946.3743.2326.5642.345.4418.1905.85.4518,1.3071.6094a3.1842,3.1842,0,0,1,.44.2158c.3518.1244.7062.241,1.0532.3785a3.158,3.158,0,0,0,.404.1268,2.5977,2.5977,0,0,0,.6875.1968,6.12,6.12,0,0,0,1.0446.3537,2.8568,2.8568,0,0,1,.7089.2012c.067.0783.0553.1771-.0265.2046-.56.1882-.6511.7357-.7967,1.1684-.1184.3518-.2447.4422-.5615.389a3.42,3.42,0,0,1-1.2416-.2907,17.81,17.81,0,0,1-8.1444-4.893A9.3638,9.3638,0,0,1,7.8553,14.363Z"/><path class="c" d="M9.2723,9.7408a4.1366,4.1366,0,0,1,.4009-2.3487c.3782.3022.3129.8063.5379,1.1778.0269.1458.0092.31.1639.4052.0166.0146.032.03.0488.0444a.6145.6145,0,0,1,.0828.1046,5.4615,5.4615,0,0,0,.8469,1.2769,3.0339,3.0339,0,0,0,.3269.4211,5.6316,5.6316,0,0,0,.98,1.0768,6.2632,6.2632,0,0,0,.8874.7916,1.9378,1.9378,0,0,0,.4948.4062,3.1063,3.1063,0,0,0,.4118.3061,5.0983,5.0983,0,0,0,.69.48c.1962.1392.395.2746.602.3977a4.1661,4.1661,0,0,0,.6825.4076,9.0818,9.0818,0,0,1,1.4021.7834.2308.2308,0,0,0,.2988.1082c.2229-.0078.4013.135.61.1744.9264.3822,1.886.6646,2.8432.9542a.5676.5676,0,0,1,.2666.1147c.0219.0254.0511.0676.0376.0835-.4142.4869-.48,1.1462-.826,1.6658l-.1983-.009a.2773.2773,0,0,0-.3636-.1469l-.0119.0054-.1359-.0349a6.962,6.962,0,0,0-1.0851-.3075l-.0077-.0017a1.9832,1.9832,0,0,0-.6007-.1957,16.86,16.86,0,0,1-5.8567-3.2955A11.07,11.07,0,0,1,9.2723,9.7408Z"/><path class="c" d="M10.73,5.1612c.2031-1.6207.2563-3.31,1.9524-4.2442a.2885.2885,0,0,0,.0942-.0117A7.47,7.47,0,0,1,14.03.8613c.1064.003.2116.015.14.1642-.0631.131-.26.1517-.2845.3473.2538.1127.4745-.0317.7032-.09a2.9689,2.9689,0,0,0,.4346-.1113,17.7686,17.7686,0,0,1,2.0133-.308q.4634-.0056.9261,0c.0888.0012.2073-.0222.1945.1343-1.3845.1877-2.7418.5125-4.1088.7918a2.9065,2.9065,0,0,0-2.1677,1.8536,1.1811,1.1811,0,0,0,.0734,1.4343,4.3936,4.3936,0,0,1,1.6823-2.3891c.3211-.005.1217.1956.1016.2942-.0689.3388.04.4381.3586.3008a6.9942,6.9942,0,0,1,.8348-.1908c.1139-.0367.2325-.0571.3442-.1019a1.7762,1.7762,0,0,0,.42-.1118c.282-.1035.5912-.0837.8713-.196a2.3571,2.3571,0,0,0,.523-.1c.35-.1051.7215-.092,1.0711-.1988a3.1153,3.1153,0,0,0,.6214-.1053c.2627-.0628.5436.0245.799-.0989a3.4264,3.4264,0,0,0,.9076-.1019c.4521-.0952.9222.07,1.3694-.0962a2.3325,2.3325,0,0,1,.7033-.0533c.35,0,.6989.0351,1.0489.019a.6809.6809,0,0,1,.2628-.0163c.23.0592.4671-.0421.6971.0259.4269.0691.8938-.0526,1.2686.2651.0852.2939-.1074.2421-.2782.2273a30.8433,30.8433,0,0,0-9.0089.6542c-.65.1356-1.2955.2912-1.9381.4571a3.1064,3.1064,0,0,0-2.0615,2.348c-.0218.1685-.01.1916.35.667a5.1938,5.1938,0,0,1,.7812-1.4715c.29.0818.1778.3433.2222.5258.0579.2386.0245.4915.0618.8022a5.0619,5.0619,0,0,0,.28-.4785,2.338,2.338,0,0,1,.6548-.6431,3.3524,3.3524,0,0,1,.56-.3158,2.5006,2.5006,0,0,1,.4138-.1314c.231-.0812.4816-.0879.7074-.1893.2861-.098.5954-.0924.8793-.2.29-.0945.6-.092.8891-.1926a1.9085,1.9085,0,0,0,.5207-.1023,2.0974,2.0974,0,0,0,.6041-.1,2.2449,2.2449,0,0,0,.6931-.1054,2.2651,2.2651,0,0,0,.7127-.1033,2.8131,2.8131,0,0,0,.9056-.1062,4.8689,4.8689,0,0,0,1.2176-.0938c.8032-.09,1.608.0363,2.4113-.022a.4725.4725,0,0,1,.4251.168c.0867.3581-.19.2361-.3335.2319a36.8332,36.8332,0,0,0-9.132,1.0663,3.1565,3.1565,0,0,0-2.4031,2.2605.4554.4554,0,0,0,.1127.521c.2481.2951.2878.0473.38-.1051.1527-.0386.1693.0746.1972.1758a1.9919,1.9919,0,0,0,.4056,1.34,19.2221,19.2221,0,0,0,1.0562,1.8838c.082.1164.29.3555-.09.4141a13.08,13.08,0,0,1-4.9075-5.2177A4.8985,4.8985,0,0,1,10.73,5.1612Z"/><path class="c" d="M65.1764,7.4476c0-1.3294.0115-2.659-.0084-3.9881-.005-.3307.0873-.4376.4146-.42.4474.0245.8974.0164,1.3456.0021.2451-.0078.3523.05.3513.327q-.0143,4.0382,0,8.0761c.0008.2592-.0693.3494-.3342.3382a13.5835,13.5835,0,0,0-1.3952.0018c-.324.02-.3828-.105-.38-.3991C65.1846,10.0733,65.1764,8.76,65.1764,7.4476Z"/><path class="c" d="M78.7758,19.9651c0,1.3108-.0119,2.6218.0078,3.9323.0053.3512-.1008.4734-.4471.4385-.5383-.0543-1.2426.2311-1.5749-.1123-.3054-.3155-.0819-1.0106-.0837-1.538-.0074-2.2067.0058-4.4136-.0118-6.62-.003-.3723.0918-.5012.47-.4668A6.8354,6.8354,0,0,0,78.28,15.6c.3763-.0291.5161.07.5068.4831C78.7575,17.3763,78.7764,18.6709,78.7758,19.9651Z"/><path class="c" d="M44.8526,7.3939c0,1.312-.0181,2.6245.0105,3.9359.0086.3944-.12.4817-.4775.4548a8.2435,8.2435,0,0,0-1.1948,0c-.3425.024-.45-.078-.4467-.4356.0187-1.7935.0081-3.5873.0079-5.381,0-.83.0178-1.6613-.0083-2.4909-.0114-.3592.1082-.4605.4511-.4376A9.6644,9.6644,0,0,0,44.44,3.04c.3279-.02.4258.0859.421.4181C44.8419,4.77,44.8529,6.0818,44.8526,7.3939Z"/><path class="d" d="M7.492,15.2784c.0349.0735.1081.1522.099.22A4.2619,4.2619,0,0,0,8.5264,18.47a15.6516,15.6516,0,0,0,6.9871,5.5716,20.9529,20.9529,0,0,0,9.8333,1.5978c.1654-.01.4889-.2711.5224.1826.0323.4384-.31.2735-.5172.3262-.0321.0081-.0648.0137-.0972.02a.708.708,0,0,1-.4692.1111,24.6135,24.6135,0,0,1-3.691-.0767c-.082-.0012-.1647-.0036-.2462-.0119a1.5327,1.5327,0,0,0-.7822-.0665.4465.4465,0,0,1-.1388-.0246,1.5024,1.5024,0,0,0-.46-.1554c-.5738-.0725-1.1213-.2636-1.6884-.3647-.4927-.1809-.9881-.3543-1.4935-.4969-.2727-.0919-.5248-.2378-.8052-.31a4.57,4.57,0,0,0-.6349-.2877,1.1872,1.1872,0,0,1-.2489-.1277c-.4516-.23-.8915-.4828-1.3506-.6984a7.66,7.66,0,0,0-.8738-.5077,3.2146,3.2146,0,0,0-.249-.2068,4.0529,4.0529,0,0,0-.4072-.298,3.3536,3.3536,0,0,0-.4074-.304c-.1567-.1528-.3552-.2531-.5126-.4051a4.3772,4.3772,0,0,0-.5642-.4679,1.3965,1.3965,0,0,0-.2563-.2119A.5958.5958,0,0,1,9.88,21.161a1.9924,1.9924,0,0,0-.4524-.4926,1.1869,1.1869,0,0,0-.2538-.2127.5773.5773,0,0,1-.0936-.0971,2.9119,2.9119,0,0,0-.49-.6367,5.6889,5.6889,0,0,0-.6212-.7758c-.2428-.4511-.4864-.9033-.686-1.3731a3.2507,3.2507,0,0,1-.288-2.0559C7.0572,15.2533,7.2019,15.0984,7.492,15.2784Z"/><path class="e" d="M.9689,1.6259c.1912-.022.3331.021.334.2519.0006.15.0031.2992.0031.4488V26.21h.077V1.4912h9.6634V1.61H1.6054a1.0449,1.0449,0,0,0-.0479.5377q-.0041,11.7345,0,23.4691a1.0449,1.0449,0,0,0,.0479.5377,8.4871,8.4871,0,0,0,2.1963.0856c.2389.0082.158-.246.2355-.3721.2191.0543.0773.3444.3743.4577a4.8887,4.8887,0,0,1-.0568-1.3169c-.02-.3058.0979-.2062.2432-.15a3.4672,3.4672,0,0,1,.1169,1.3662.3739.3739,0,0,1-.2382.222q-1.4208,0-2.8417-.001c-.6554,0-.6562-.0006-.6562-.64V6.9111Q.9778,4.2684.9689,1.6259Z"/><path class="f" d="M11.7789,16.9738l-.0943-.0921c-.4037-.4014-.8082-.802-1.2052-1.21l.0122.0128c-.3118-.31-.5455-.6863-.8477-1.0047a5.1,5.1,0,0,0-.4319-.6538,8.41,8.41,0,0,1-.88-2.2366A1.296,1.296,0,0,1,8.5,10.7165c.36-.08.529.0141.478.43a3.4637,3.4637,0,0,0,.5489,2.084,13.5752,13.5752,0,0,0,4.9758,4.9772A19.56,19.56,0,0,0,25.3588,21.1c.0664-.0009.1329.0009.1991-.0028.1829-.01.3176.0055.317.2556,0,.2293-.0963.2687-.2973.2792-.9305.0486-1.8551-.08-2.7835-.0781a6.7636,6.7636,0,0,1-1.18.044c-.45-.0684-.8631-.2821-1.3174-.3329a8.6319,8.6319,0,0,1-1.0273-.3c-.2235-.105-.4786-.1-.7034-.2007a1.8789,1.8789,0,0,0-.4125-.1234c-.3354-.1214-.6609-.2692-1.002-.3755-.2335-.05-.4282-.2007-.6607-.2528-.4171-.202-.82-.433-1.2385-.6315-.2167-.071-.3655-.2608-.5812-.3338a1.1772,1.1772,0,0,0-.2407-.1137c-.16-.1965-.43-.2289-.6027-.4062-.3214-.2016-.6279-.4262-.954-.6206-.1232-.2225-.3942-.2793-.5378-.479A4.0649,4.0649,0,0,1,11.7789,16.9738Z"/><path class="d" d="M9.9127,6.3114c.2981-.2219.5311-.2032.4893.2214a3.9413,3.9413,0,0,0,.6515,2.3582,13.5953,13.5953,0,0,0,4.67,4.6733,19.39,19.39,0,0,0,9.58,3.0035c.116.0067.2325.0172.3483.0128.2289-.0088.2091.1455.2186.2993.0115.1867-.0818.2238-.2413.2169-.3811-.0165-.7625-.0246-1.1437-.0361-.52-.1-1.0341.121-1.571-.0165a5.046,5.046,0,0,0-1.0045-.2578,21.13,21.13,0,0,1-3.179-.9534c-.7823-.2926-1.5-.721-2.2556-1.0713-.2445-.1357-.4838-.281-.7283-.4166-.2079-.1742-.464-.2726-.6813-.4318a2.77,2.77,0,0,0-.5969-.3963c-.0907-.1893-.3048-.2368-.4364-.3793-.1561-.1551-.3778-.2286-.5117-.4114-.2966-.3021-.655-.5318-.9628-.8208-.3165-.3462-.613-.71-.921-1.0632-.1549-.13-.22-.34-.3957-.4519-.3048-.4232-.5568-.8812-.8616-1.3043l.0123.0117a4.9513,4.9513,0,0,1-.6053-2.3363C9.8,6.6033,9.7486,6.4273,9.9127,6.3114Z"/><path class="d" d="M5.0393,23.7328a4.2044,4.2044,0,0,1,.3616-2.44c.2377-.0581.2035.1412.2424.2626a8.0542,8.0542,0,0,0,.5321,1.3154,1.1681,1.1681,0,0,1,.08.1973c.2124.2976.42.5989.6256.9009a1.9344,1.9344,0,0,0,.3968.5233c.128.1477.1981.3414.3662.4569a1.2862,1.2862,0,0,0,.2927.2344,1.2631,1.2631,0,0,1,.2228.2174.7562.7562,0,0,0,.2441.2658.5706.5706,0,0,1,.086.0911.8756.8756,0,0,1,.1168.29l.2644.3865H6.5291a.83.83,0,0,1-.3348-.1628,7.9671,7.9671,0,0,1-1.0912-1.8667A1.1707,1.1707,0,0,1,5.0393,23.7328Z"/><path class="g" d="M8.0931,25.4564a.3636.3636,0,0,1-.2036-.2052c-.09-.0853-.1764-.1747-.2643-.2623-.1774-.1279-.2365-.35-.3943-.4935-.1808-.1349-.2486-.3589-.4051-.513a8.0749,8.0749,0,0,1-.6224-.9772c-.05-.1145-.15-.1976-.1958-.3151a4.5746,4.5746,0,0,1-.5153-2.1695.6747.6747,0,0,1,.2416-.5589c.3887-.14.5511.0917.5418.4092a4.612,4.612,0,0,0,.8519,2.6039,11.2457,11.2457,0,0,0,2.321,2.702c.2241.1875.4993.337.5877.6506a.1017.1017,0,0,1-.084.1076,1.53,1.53,0,0,1-1.2718-.451.9.9,0,0,1-.2968-.2369l.0145.0143Q8.2438,25.6107,8.0931,25.4564Z"/><path class="h" d="M20.8484,11.785c-.0855.3642.27.2718.4131.3989a10.8862,10.8862,0,0,0,1.9993,1.5112,2.1175,2.1175,0,0,1,.5881.3631c.1129.1133.29.2424.19.41-.08.134-.268.0638-.4105.0236a3.5557,3.5557,0,0,1-1.0864-.2c.019-.0467.0363-.1083-.01-.1339a15.7338,15.7338,0,0,1-3.5911-3.1808c-.207-.2183-.1226-.4548-.09-.6939a1.1529,1.1529,0,0,1,.3036-.5117l.0593.0364c.13.864.9085,1.2548,1.3693,1.8757C20.6546,11.7606,20.7611,11.7484,20.8484,11.785Z"/><path class="i" d="M25.8516,5.4c.0384.3368-.2251.2181-.37.2244a44.202,44.202,0,0,0-7.12,1.0156,3.4716,3.4716,0,0,0-2.8062,2.3547c-.0377.0968-.0952.1652-.2126.147a.1988.1988,0,0,1-.1347-.2242,4.01,4.01,0,0,1,.2161-.58,1.035,1.035,0,0,1,.1542-.2922,2.6284,2.6284,0,0,0,.2785-.4182,2.4172,2.4172,0,0,1,.3233-.3936c.0431-.0478.09-.0916.1373-.1352a2.7232,2.7232,0,0,1,.4209-.3015c.1237-.0518.222-.1473.3439-.2026a2.7122,2.7122,0,0,1,.3959-.135c.2477-.09.5163-.0877.764-.177a1.6518,1.6518,0,0,0,.4145-.0994,2.1431,2.1431,0,0,0,.4153-.1022,2.4,2.4,0,0,0,.4918-.1023,2.0992,2.0992,0,0,0,.4973-.1,2.0605,2.0605,0,0,0,.5041-.1017,2.2169,2.2169,0,0,0,.5154-.1052,2.2794,2.2794,0,0,0,.6864-.0984,2.6955,2.6955,0,0,0,.707-.1,2.5827,2.5827,0,0,0,.8135-.1147,4.3315,4.3315,0,0,0,1.2084-.1106C24.9464,5.3113,25.4264,5.1175,25.8516,5.4Z"/><path class="j" d="M17.855,10.4892c.0346.3068.3861.2844.5138.4947.6488.879,1.51,1.5593,2.2211,2.3781.211.2429.0851.3952-.2394.3291a2.2207,2.2207,0,0,1-.81-.2921c-.1924-.4875-.6712-.7211-.979-1.1046a23.0533,23.0533,0,0,1-1.9024-2.6687c-.164-.2772-.3407-.5983-.0139-.9041.2192-.1253.3869-.0751.46.1676a5.2474,5.2474,0,0,0,.6838,1.1328C17.9014,10.1646,17.7251,10.3484,17.855,10.4892Z"/><path class="k" d="M17.855,10.4892c-.0494.0426-.0967.1172-.1486.12-.0843.0053-.0906-.0782-.07-.145.0385-.1266.0837-.2513.1262-.3767-.1409-.1947-.02-.362.0547-.5343a3.35,3.35,0,0,1,.4142-.6227,2.2292,2.2292,0,0,1,.257-.3162,2.6009,2.6009,0,0,1,.26-.2251,2.898,2.898,0,0,1,.6215-.3155c.2189-.09.4581-.1082.6784-.1937a2.4088,2.4088,0,0,0,.4133-.1037,1.7853,1.7853,0,0,0,.42-.1061c.2927-.0443.5776-.1232.8638-.1962a2.233,2.233,0,0,0,.5086-.1,1.7765,1.7765,0,0,0,.5115-.1,2.049,2.049,0,0,0,.5941-.1029,2.2479,2.2479,0,0,0,.6053-.1049,2.6156,2.6156,0,0,0,.6971-.1029,5.0078,5.0078,0,0,0,.8822-.0771.3635.3635,0,0,1,.2971.1218c.0882.362-.1992.2682-.3663.2863a52.8891,52.8891,0,0,0-5.2376.9278,2.8918,2.8918,0,0,0-2.2811,2.0406C17.9287,10.34,17.889,10.4138,17.855,10.4892Z"/><path class="d" d="M25.8264,23.6484l-.4984.026a1.9322,1.9322,0,0,1-1.0388.0408c-.2211-.5024.1623-.9054.2341-1.36.0363-.23.1053-.5024.4263-.54.95-.0037.9579-.0036.9455.9653A1.7285,1.7285,0,0,1,25.8264,23.6484Z"/><path class="l" d="M18.851,10.2834c.1436.7981.8,1.241,1.31,1.749a8.5721,8.5721,0,0,0,1.0824,1.0216,4.1285,4.1285,0,0,1,.9425.7953c.1276.1633.5021.1329.6959.35-.1082.1249-.2363.0572-.34.093a3.7394,3.7394,0,0,1-1.2012-.2964c-.679-.8845-1.65-1.4818-2.3243-2.3753a1.209,1.209,0,0,1-.3492-.9312A.6637.6637,0,0,1,18.851,10.2834Z"/><path class="m" d="M16.6716,8.793a.5639.5639,0,0,0,.07.6921A15.4819,15.4819,0,0,0,19.185,12.66c.2178.19.486.3738.3551.7393a2.3951,2.3951,0,0,1-.7793-.3113,2.9933,2.9933,0,0,1-.789-.8917,18.6822,18.6822,0,0,0-1.24-1.8455,2.3764,2.3764,0,0,1-.46-1.1581,1.542,1.542,0,0,1,.3149-.6939C16.7931,8.5455,16.7489,8.6645,16.6716,8.793Z"/><path class="n" d="M23.6282,14.4918l.3161-.0311a.8111.8111,0,0,0-.5771-.5471,5.3441,5.3441,0,0,1-1.5082-1.015c-.1718-.131-.2922-.3068-.5292-.3648-.1686-.0413-.274-.1882-.0683-.35a.2971.2971,0,0,0,.3789-.1816l.007-.0228c.0942-.0524.1923.0125.1867.073-.0217.2382.1953.2342.306.3359a5.8961,5.8961,0,0,0,1.4614,1.0666c.456.2682.8715.5984,1.3275.8672a.26.26,0,0,1,.124.2824,1.8229,1.8229,0,0,1-.7261-.0139A1.48,1.48,0,0,1,23.6282,14.4918Z"/><path class="o" d="M18.667,10.6891a6.0945,6.0945,0,0,0,1.6809,2.0628,4.6444,4.6444,0,0,1,1.121,1.14c.0406.0751-.0732.0819-.1285.1041a3.1147,3.1147,0,0,1-.99-.3044c.1135-.0509.3885-.0344.1452-.2581-.4946-.4546-.9582-.941-1.4585-1.3911a1.9429,1.9429,0,0,1-.6684-1.058C18.608,11.027,18.5493,10.7689,18.667,10.6891Z"/><path class="p" d="M22.0593,12.3851c-.3348.0655-.2376-.3079-.4119-.4056a1.16,1.16,0,0,1,.2892-.6018.1121.1121,0,0,1,.1274-.0148,1.0947,1.0947,0,0,0,.309.4783,11.9975,11.9975,0,0,0,3.3493,2.1747c.0617.04.0832.1111.1268.1652l-.1011.3a.4047.4047,0,0,1-.572.0181l-.0106-.01c-.699-.5285-1.51-.8786-2.2108-1.4051C22.6518,12.8557,22.3569,12.619,22.0593,12.3851Z"/><path class="q" d="M20.8484,11.785c-.0651.0831-.1288.2333-.1956.2348-.126.0026-.0718-.1453-.0876-.2323a.5545.5545,0,0,1-.0111-.25,2.9138,2.9138,0,0,0,.0772-.3094,1.0839,1.0839,0,0,1,.2205-.4011c.1436-.19.2686-.3926.4129-.582.0725-.081.1515-.1559.2244-.2368a1.7591,1.7591,0,0,1,.2546-.2115c.135-.08.276-.1492.4137-.2251a4.5081,4.5081,0,0,1,.59-.1929,1.9512,1.9512,0,0,0,.4018-.1,1.8957,1.8957,0,0,0,.4041-.1019,2.1055,2.1055,0,0,0,.41-.1019,1.86,1.86,0,0,0,.4893-.1006,2.1108,2.1108,0,0,0,.5-.1053,2.3212,2.3212,0,0,0,.4485-.1032.503.503,0,0,1,.4541.123c.0569.3084-.2026.2485-.352.2829-.7249.1668-1.4473.36-2.1818.4667A2.9365,2.9365,0,0,0,20.8484,11.785Z"/><path class="r" d="M16.0344,11.6043c.12-.3783-.2049-.5827-.3529-.8441a20.5052,20.5052,0,0,1-1.165-2.3056.3925.3925,0,0,1,.0594-.46c.234.0948.21.3955.4128.5155a.4332.4332,0,0,1,.0708.1178c.0588.1824-.0189.4232.2264.526a.3325.3325,0,0,1,.08.1114,1.6744,1.6744,0,0,0,.46.8349.63.63,0,0,1,.1106.17.6575.6575,0,0,0,.3464.5141c.4062.3681.604.912,1.053,1.2445a.2852.2852,0,0,1,.0658.2047c-.0591.1162-.1461.1182-.2477.06A3.5861,3.5861,0,0,1,16.0344,11.6043Z"/><path class="s" d="M22.059,11.3875l-.1224-.01a.9847.9847,0,0,1,.4016-.5c.0821-.0444.1313.0029.1766.0624a4.202,4.202,0,0,0,1.762,1.595,6.2034,6.2034,0,0,0,1.3682.7756c.2534.0764.1587.3176.1107.5077a.4121.4121,0,0,1-.4687.0157A16.1387,16.1387,0,0,1,22.228,11.73.6186.6186,0,0,1,22.059,11.3875Z"/><path class="t" d="M22.4585,10.9884l-.12-.11a.6541.6541,0,0,1,.3983-.3c.3255.0688.47.3669.6964.5586a9.4906,9.4906,0,0,0,2.332,1.525.2771.2771,0,0,1,.0348.1373,1.102,1.102,0,0,1-.0181.29c-.168.2667-.4017.15-.5694.0466A12.7986,12.7986,0,0,1,22.6811,11.31C22.589,11.2153,22.4764,11.1339,22.4585,10.9884Z"/><path class="u" d="M17.37,12.1859l-.1-.1a13.5927,13.5927,0,0,0-.9787-1.3406c-.4454-.4906-.485-.7349-.2443-1.1637.2268-.0537.2676.1357.3469.27a18.9356,18.9356,0,0,0,1.6749,2.3338,5.3593,5.3593,0,0,0,.8028.8c.0588.0373-.0556.0818-.11.1022a5.2423,5.2423,0,0,1-1.4064-.6921C17.3794,12.327,17.4276,12.26,17.37,12.1859Z"/><path class="v" d="M19.4564,23.1713c.4853-.11.4383-.5934.5846-.91.1826-.3958.3171-.7612.8211-.79.1743-.13.3268-.0213.483.0439.034.0392.0579.1168.0287.13-.5159.23-.4871.7743-.6546,1.1867-.16.3943-.358.5578-.7667.4421A.776.776,0,0,1,19.4564,23.1713Z"/><path class="w" d="M25.8264,23.6484c.01-.49.0053-.9815.0363-1.47.0191-.3007-.1068-.3671-.3714-.3367-.2106.0242-.4246.0193-.6371.0273a1.94,1.94,0,0,1-.2637.1333c-.3459.11-.282.4518-.3848.6957-.1451.3445-.1375.7552-.4514,1.0265a.666.666,0,0,1-.3837.0086c-.2412-.1323-.2248-.3433-.1532-.5553.1565-.4638.2471-.9476.4312-1.4027.4022-.0123.1519.3129.2654.5223.1025-.5611.4912-.5474.8955-.5455,1.1481.0053,1.1562-.0012,1.1417,1.1521C25.9484,23.1519,26.0742,23.4362,25.8264,23.6484Z"/><path class="x" d="M22.4585,10.9884a20.1931,20.1931,0,0,0,2.7779,2.016.5217.5217,0,0,0,.514.0795c.0731.0465.0326.1487.0977.199l.001.8982-.0983-.1a.2113.2113,0,0,1-.0005-.2987l.0005-.0005c.0265-.2016-.0409-.2947-.25-.3927a8.7953,8.7953,0,0,1-2.8934-2.0084C22.515,11.2784,22.2811,11.2036,22.4585,10.9884Z"/><path class="y" d="M23.9553,17.1553l.8873.1263a1.9018,1.9018,0,0,1-.4594,1.7321.3659.3659,0,0,1-.1645.0073,3.5642,3.5642,0,0,1-.967-.0555.1155.1155,0,0,1,.0159-.1376,1.4717,1.4717,0,0,0,.6572-1.61Z"/><path class="z" d="M18.3583,8.9869l-.3987.6009c-.3017.14-.3362-.1633-.4054-.2942a4.9829,4.9829,0,0,0-.475-.8672c-.1576-.1943-.0317-.3742.0528-.5521a.8458.8458,0,0,1,.5153-.287c.0995-.0528.2379-.0563.2467.0529C17.9336,8.1324,18.3185,8.5,18.3583,8.9869Z"/><path class="aa" d="M22.0593,12.3851a1.3286,1.3286,0,0,1,.715.4152A12.1965,12.1965,0,0,0,24.9107,14.11c.2733.1362.4224.5545.8374.3709.0515.098.2281.2474-.061.2343a4.8686,4.8686,0,0,1-1.36-.1242h.7485c-.7709-.4962-1.4037-.9414-2.0747-1.3185-.3129-.1758-.4919-.5369-.896-.5852C21.95,12.6684,22.0733,12.49,22.0593,12.3851Z"/><path class="ab" d="M17.132,7.8743c-.0571.56.45.8808.6028,1.3584.023.0717-.013.3528.2249.3552l-.1973.5a1.8628,1.8628,0,0,1-.772-1.0817c-.0575-.229-.1315-.2614-.3188-.2133a.351.351,0,0,0-.0847-.2945A1.1768,1.1768,0,0,1,17.132,7.8743Z"/><path class="ac" d="M18.0686,12.1851c-.1619.096-.2668-.0347-.3337-.1254-.3394-.46-.6648-.93-.9861-1.4021-.2337-.3436-.4535-.6967-.6794-1.0455-.0717.013-.0985-.0215-.0943-.089.2606.0349.169-.2465.2969-.3307.3339.0426.1157.3436.2323.5189.4261.6406.8382,1.289,1.3107,1.8986A.782.782,0,0,1,18.0686,12.1851Z"/><path class="ad" d="M25.751,12.6844a.3117.3117,0,0,1-.3245.0214,13.4383,13.4383,0,0,1-2.5628-1.8737.8888.8888,0,0,1-.1273-.2537l.2-.0965c.1682-.0868.2825.0026.39.1182a10.038,10.038,0,0,0,2.4625,1.8061C25.7977,12.5015,25.8233,12.6,25.751,12.6844Z"/><path class="ae" d="M25.849,11.3871l-.0011.5985c-.1255.0362-.17-.0553-.2193-.1384a12.1834,12.1834,0,0,0-1.219-1.03c-.1922-.1782-.429-.3224-.3821-.64a.6462.6462,0,0,1,.401-.0963.35.35,0,0,1,.3763.0116C25.2338,10.456,25.85,10.6757,25.849,11.3871Z"/><path class="af" d="M15.9751,9.5231l.0943.0889a.9924.9924,0,0,0,.3494,1.0631c.3235.3372.5074.77.8143,1.1154.0749.0844.1691.1794.0367.2955a1.9523,1.9523,0,0,1-.8026-.8866.7905.7905,0,0,0-.2946-.3108,2.9333,2.9333,0,0,1-.2994-.5986l-.1-.1a3.3537,3.3537,0,0,1-.4989-.898v-.1c.0041-.0626.0616-.0711.1-.099l.1812-.0989C15.6081,9.24,15.8483,9.3367,15.9751,9.5231Z"/><path class="ag" d="M20.96,26.0611a36.0238,36.0238,0,0,0,4.295.1074c.07.093.3234.2168-.0425.2334-.2869.0131-.5734.0335-.86.0506a15.264,15.264,0,0,0-1.9258-.0494h-.4875a7.9216,7.9216,0,0,0-1.1741-.0248.1782.1782,0,0,1-.0478-.1961C20.7673,26.08,20.8916,26.1265,20.96,26.0611Z"/><path class="ah" d="M7.492,15.2784c-.3133-.0615-.4019.1154-.4318.3847A3.6352,3.6352,0,0,0,7.4314,17.53c.2061.4745.45.9326.6772,1.398a.1077.1077,0,0,1,.0031.1439.3269.3269,0,0,1-.413-.1866,4.0508,4.0508,0,0,1-.83-2.3294,4.7186,4.7186,0,0,1-.0459-.8856c.0711-.4523.2831-.6942.7707-.5893Z"/><path class="ai" d="M25.7506,12.3854c-.4.1909-.6145-.1838-.8543-.34a6.87,6.87,0,0,1-1.8211-1.5166c-.0246-.0323-.0913-.0326-.1384-.0478a.3744.3744,0,0,1,.3-.1c.2731-.1273.3941.12.5349.2477a9.05,9.05,0,0,0,1.8157,1.3221C25.7727,12.05,25.87,12.1753,25.7506,12.3854Z"/><path class="aj" d="M25.849,11.3871a2.8827,2.8827,0,0,0-1.42-1.3067L25.52,9.8139c.2576-.0636.3575.0357.3473.299C25.8506,10.5372,25.854,10.9623,25.849,11.3871Z"/><path class="ak" d="M25.8388,2.2218l-1.2855-.1109c-.08-.4575-.0206-.5372.597-.7955C25.9013,1.3112,25.9013,1.3112,25.8388,2.2218Z"/><path class="al" d="M18.3815,4.4125a2.7262,2.7262,0,0,1-.907.1934.3168.3168,0,0,1-.4362-.1018.3212.3212,0,0,1-.0229-.0444c-.1913-.2986-.0443-.5337.1322-.7661a.9174.9174,0,0,1,.4909-.1c.336-.1153.5385-.0119.5933.3524C18.2564,4.1084,18.3719,4.2437,18.3815,4.4125Z"/><path class="am" d="M21.3755,10.3l-.4146.588c-.1826.0567-.2832-.0776-.37-.1868a11.0474,11.0474,0,0,0-.7359-.8693.6047.6047,0,0,1-.1064-.6466c.094-.1408.2664-.1273.3947-.2.0969-.0484.2146-.0691.242.0553a1.4927,1.4927,0,0,0,.95,1.1228C21.37,10.177,21.37,10.251,21.3755,10.3Z"/><path class="r" d="M14.3755,5.9984a2.4052,2.4052,0,0,1-.4817.7928c-.1715-.5845-.0911-1.15-.2107-1.6868a.8342.8342,0,0,1,.3648-.4161.8786.8786,0,0,1,.3836,1.0362C14.3964,5.8137,14.3227,5.8916,14.3755,5.9984Z"/><path class="an" d="M25.8551,8.8884l-.4693.0189c-.3127.1064-.3971-.1773-.536-.3356a1.2491,1.2491,0,0,1-.3261-.4931,3.822,3.822,0,0,1,.38-.0828C25.882,7.88,25.8822,7.8818,25.8551,8.8884Z"/><path class="ao" d="M14.3755,5.9984a6.7647,6.7647,0,0,1-.121-.85.5341.5341,0,0,0-.2066-.46,1.0185,1.0185,0,0,1,.6056-.3935c.27-.106.3264.0722.3266.27a5.1717,5.1717,0,0,1-.0064.8358C14.8221,5.6472,14.4946,5.7184,14.3755,5.9984Z"/><path class="ap" d="M19.7488,9.1852c.1613.74.8266,1.1219,1.2121,1.7027-.0425.1454-.212.2252-.2045.3963-.1951.0517-.2463-.1183-.3294-.2243a5.1491,5.1491,0,0,0-.9344-.9167.3269.3269,0,0,1-.1184-.2359c-.0461-.2763.1443-.4521.2781-.6522Z"/><path class="aq" d="M25.8516,5.4l-1.3647.0124a.4255.4255,0,0,1-.3327.03c-.1578-.0693-.4351.2339-.4921-.2223-.05-.3985.0344-.5453.41-.56.2471-.0152.4947-.0054.7421-.0062.0807,0,.2279-.0047.2213.0564-.06.5593.4078.3639.6582.4746a.6814.6814,0,0,1,.1591.1158Z"/><path class="ar" d="M25.7506,12.3854c-.02-.0775-.0179-.2058-.0628-.2251a11.0845,11.0845,0,0,1-2.4514-1.7787.5961.5961,0,0,1,.3834-.104c.0782-.0267.177-.0682.2306.0042a6.6619,6.6619,0,0,0,1.9,1.5049l.0972.1989.0014.7988q-.05.09-.0979-.0008v-.0992Z"/><path class="as" d="M21.3755,10.3c-.0137-.0089-.0292-.0275-.0407-.0253-.6091.1192-.6128-.5561-.9821-.746-.2428-.1248.0772-.4476-.2092-.5438a.5789.5789,0,0,1,.3778-.1065.2478.2478,0,0,1,.3373.095l.0035.0064c.2186.3847.5195.7168.7111,1.1185Z"/><path class="at" d="M25.8524,5.301h-.498c-.5916-.0007-.5916-.0007-.411-.5933h-.8947a1.0946,1.0946,0,0,1-.5393.0391l-.0535-.0588a7.9179,7.9179,0,0,1,2.1695-.0718C26.051,4.64,25.7918,5.0619,25.8524,5.301Z"/><path class="au" d="M22.7691,9.5l-.6052.196c-.371-.0912-.5055-.4146-.6382-.7078a1.7833,1.7833,0,0,0-.199-.3117,2.4319,2.4319,0,0,1,.827-.1843c.1075-.08.2308-.0366.3472-.0442C22.4423,8.8359,22.75,9.131,22.7691,9.5Z"/><path class="av" d="M19.952,23.2734c.7143.0476.7344-.6576.7822-.9839.0693-.4721.2975-.58.6263-.7087a.0924.0924,0,0,1,.1228-.0135,4.4033,4.4033,0,0,1-.4986,1.65.33.33,0,0,1-.4365.165l-.0119-.0056A.9007.9007,0,0,1,19.952,23.2734Z"/><path class="aw" d="M21.0605,18.572a2.2138,2.2138,0,0,1,.799-1.6934c.2272-.1721.39-.0935.5137.1321a2.323,2.323,0,0,0-.6489,1.4346.2011.2011,0,0,1-.13.19,1.101,1.101,0,0,1-.3672-.05Z"/><path class="ax" d="M25.7507,11.7867a3.3156,3.3156,0,0,1-1.9976-1.4553c-.02-.0328-.0875-.0365-.133-.0538a.66.66,0,0,1,.4074-.101,5.2086,5.2086,0,0,0,1.58,1.3227C25.7409,11.5684,25.7436,11.6709,25.7507,11.7867Z"/><path class="ay" d="M23.055,21.7693l.2964.0077a.2676.2676,0,0,1,.1962.3236l-.0076.0255a11.5291,11.5291,0,0,1-.5077,1.5723,3.2143,3.2143,0,0,1-.8623-.0271.1155.1155,0,0,1-.0134-.141.7964.7964,0,0,0,.45-.5831A2.528,2.528,0,0,1,23.055,21.7693Z"/><path class="az" d="M20.5364,23.3766a.8848.8848,0,0,0,.5858-.8247c-.0175-.409.2167-.6523.3374-.9683a.1112.1112,0,0,1,.1189-.0687.6707.6707,0,0,1,.4919.1269.1738.1738,0,0,1-.0568.1955c-.3218.1759-.3241.5181-.3953.8106a1.6948,1.6948,0,0,1-.4179.8594c-.1445-.0124-.2954.0419-.4325-.043Z"/><path class="ba" d="M17.1476,3.6936c.1558.0288.122.0631.0385.174-.2448.325-.133.5874.2884.7383a2.4493,2.4493,0,0,1-.8975.1994c-.2588.1187-.35.0165-.3514-.2471a1.8877,1.8877,0,0,0,.011-.6716C16.5164,3.7084,16.8676,3.87,17.1476,3.6936Z"/><path class="bb" d="M25.5841,7.0142A2.7181,2.7181,0,0,1,24.69,7.11c-.3112.0955-.5426.0465-.5935-.3284a2.4961,2.4961,0,0,0-.1691-.3966A3.41,3.41,0,0,1,25.031,6.29c.1389-.051.3346-.1068.4.0169.1042.1978-.171.3225-.1749.5509C25.3354,6.9153,25.5222,6.8518,25.5841,7.0142Z"/><path class="ar" d="M20.8834,4.015a1.5794,1.5794,0,0,1-.7079.0944c-.2624.082-.4958.1159-.4279-.2875.0306-.182-.1062-.25-.2123-.3426a.2737.2737,0,0,1-.09-.1866,1.8362,1.8362,0,0,1,.7774-.1c.6012-.0728.7426.0674.5529.6611C20.7113,4.0557,20.9383,3.9132,20.8834,4.015Z"/><path class="bc" d="M22.14,2.9939a11.5272,11.5272,0,0,1,2.2158-.0808c.1549.0964.3347.0039.4938.0652l.018.0421c-.1769.1633-.3189.3344-.1523.5871a.2906.2906,0,0,1-.158.1306,2.7712,2.7712,0,0,1-.3949.0171c-.2672.0194-.5044.01-.4994-.358.0018-.1345-.0989-.2-.2236-.2276-.2131-.0469-.4242.0581-.6362.0048C22.5824,3.1125,22.3128,3.2294,22.14,2.9939Z"/><path class="bd" d="M14.9737,5.4c-.2377-.2094-.1568-.4857-.1413-.74.01-.1688.07-.3346-.1789-.3656a3.2716,3.2716,0,0,1,1.02-.2823,8.4349,8.4349,0,0,1-.2,1.09Z"/><path class="be" d="M22.14,2.9939l.7051.0225c.035.1265-.06.1617-.1428.2062-.1769.0743-.5229.0541-.2176.3938a1.4215,1.4215,0,0,0,.3311.0649.26.26,0,0,1,.1657.1387,4.6117,4.6117,0,0,1-1.1991.0945,1.0639,1.0639,0,0,1-.4915.0329c-.1407-.0053-.1641-.084-.0833-.1953.1446-.1317.42-.217.1719-.4867-.1262-.0348-.2718-.03-.342-.1719A4.1909,4.1909,0,0,1,22.14,2.9939Z"/><path class="bf" d="M18.3583,8.9869A1.9238,1.9238,0,0,1,17.79,7.69c.0026-.03-.0926-.0683-.1423-.1027a.3758.3758,0,0,1,.3-.0988c.2143-.0817.3857-.0694.394.2133.0036.1246.0879.1553.1681.2024.1285.1044.2647.2073.1151.3925-.0045.0411-.1151.0008-.0651.0552a.2587.2587,0,0,1,.0121.3546Z"/><path class="bg" d="M24.5569,3.7009l.0964-.0959a3.58,3.58,0,0,0,.4809-.4876.29.29,0,0,1-.2826-.11c-.1679-.0173-.3518.0483-.4958-.0945.2938-.001.5877-.007.8814-.0019.6343.011.6347.0133.6221.6607-.0016.0814-.0117.1627-.0179.244L25.45,3.793C25.1608,3.6784,24.8434,3.8393,24.5569,3.7009Z"/><path class="bh" d="M18.3815,4.4125a.4149.4149,0,0,1-.34-.4624c.0551-.3811-.1864-.3337-.4027-.357a4.5752,4.5752,0,0,1,1.187-.2031.477.477,0,0,1,.2044-.0269c.16.1685-.0652.2382-.0937.3586-.0465.1958-.1787.3823-.0495.5924A.8727.8727,0,0,1,18.3815,4.4125Z"/><path class="bi" d="M15.97,7.6942c-.0765.15-.1243.3212-.2965.4a.2982.2982,0,0,1-.392-.2659A4.9217,4.9217,0,0,1,15.05,6.6872a.7038.7038,0,0,1,.294-.3035c.2911-.0485.3475.1758.4121.37C15.8575,7.06,15.8976,7.381,15.97,7.6942Z"/><path class="bj" d="M20.458,26.4784a.5759.5759,0,0,1-.3815.0739q-2.9554.0008-5.911,0a.6548.6548,0,0,1-.3849-.0659l.052-.0811a.6405.6405,0,0,1,.4268-.0983q2.883-.0058,5.7662,0a.8493.8493,0,0,1,.2939.0419A.2832.2832,0,0,1,20.458,26.4784Z"/><path class="j" d="M15.97,7.6942c-.2834-.0949-.2333-.361-.3012-.5713-.0828-.2561-.0142-.5822-.3246-.7389a.7043.7043,0,0,1,.4088-.2927c.0942-.0467.23-.0674.2386.0475.03.4049.2708.7542.2833,1.16Z"/><path class="bk" d="M24.3625,18.959a6.494,6.494,0,0,0,.48-1.6774c.2817-.0333.4645.0032.3341.3669-.155.4328-.28.8764-.4178,1.3154a.2528.2528,0,0,1-.3963-.0049Z"/><path class="bl" d="M23.9273,6.3847c.1869.021.4119-.0216.3355.31-.0784.3412.14.424.4269.4145a1.623,1.623,0,0,1-.71.0975c-.3105.1144-.5087.0219-.5835-.3107a.3936.3936,0,0,0-.1594-.2424.331.331,0,0,1-.2022-.1671A2.5072,2.5072,0,0,1,23.9273,6.3847Z"/><path class="bm" d="M21.5732,10.0984c-.4735-.1943-.5572-.7077-.8474-1.0527-.0641-.0763-.0994-.1535-.2044-.1672a.4575.4575,0,0,1,.3307-.0885c.256-.1083.4542-.0709.5411.2238.0933.3164.5641.4739.3805.906Z"/><path class="bn" d="M8.4992,10.7163a2.5252,2.5252,0,0,0,.0924,1.6272c.2362.5645.4764,1.1274.7149,1.6909a.1357.1357,0,0,1-.0377.1853,6.0944,6.0944,0,0,1-1.011-2.2392l.0224-.165a1.6283,1.6283,0,0,1-.0014-.76c-.0035-.1917-.03-.3934.2125-.4753Z"/><path class="bo" d="M20.4364,1.3949a5.3535,5.3535,0,0,1,1.301-.1A3.1168,3.1168,0,0,1,22.449,1.26c.2494.1445.0653.2328-.058.2486-.2074.0266-.3117.085-.332.3167-.0248.2839-.3039.2491-.4942.3186-.3229.0656-.5163-.0042-.4252-.3925.0392-.1673-.0829-.1863-.2068-.1939C20.7542,1.5422,20.5564,1.5884,20.4364,1.3949Z"/><path class="bp" d="M18.5672,8.2945c.0969-.1434-.033-.2108-.1-.2992-.24-.32-.0134-.5045.2-.693a.0594.0594,0,0,1,.0752-.0151c.1874-.0648.3689-.0888.3982.1751.029.2617.2607.4563.2268.7341l-.5864.31C18.5864,8.5607,18.644,8.36,18.5672,8.2945Z"/><path class="bq" d="M17.0727,2.7128c-.144.1366-.3259.0836-.4942.0992-.288.1175-.4652.06-.46-.29.0028-.1725-.1408-.2832-.1864-.4354.3093-.1719.68-.0249.99-.19a.4075.4075,0,0,1,.3415.002.15.15,0,0,1,.02.1285.5515.5515,0,0,0-.21.6206Z"/><path class="br" d="M21.36,3.8044a.143.143,0,0,0-.0477.0119c-.07.0492-.0327.0782.0242.082.1481.01.2968.0113.4454.0162a2.5257,2.5257,0,0,1-.899.1c-.3912.0729-.2784-.2955-.2458-.3859.1692-.4686-.1311-.432-.4144-.436a2.1777,2.1777,0,0,1,.8144-.0995l.5163.0176A1.6846,1.6846,0,0,0,21.36,3.8044Z"/><path class="bs" d="M23.055,21.7693a13.2263,13.2263,0,0,1-.3737,1.4669c-.0659.2941-.2584.3478-.5149.3095a3.3575,3.3575,0,0,1,.598-1.7992Z"/><path class="bt" d="M15.9324,2.0871c.2465.04.4574.07.325.4342-.0663.1825.0728.3468.3211.2906a2.44,2.44,0,0,1-.9017.1966c-.2252.1061-.2458-.033-.2339-.2a1.1293,1.1293,0,0,0,.0005-.6153A.9427.9427,0,0,1,15.9324,2.0871Z"/><path class="bu" d="M18.67,6.3005a.5262.5262,0,0,1-.3984.1c-.5472.16-.47-.3028-.581-.578-.0292-.0955-.1266-.1478-.1579-.2423a2.6286,2.6286,0,0,1,1.1306-.1652A4.2637,4.2637,0,0,0,18.67,6.3005Z"/><path class="bv" d="M19.3676,8.1964c-.1892-.2233-.42-.4145-.358-.7709.0281-.1621-.1678-.1052-.267-.1383a.6465.6465,0,0,1,.4068-.0962c.2715-.1078.4659-.0544.5535.2513.0639.2231.2618.3614.3706.5572A2.0911,2.0911,0,0,1,19.3676,8.1964Z"/><path class="bw" d="M18.1569.9984A3.213,3.213,0,0,0,16.9705.9361q-.8264.0811-1.6543.1423a4.0986,4.0986,0,0,0-.7264.0073c-.1454-.0361-.3074-.0276-.4215-.1512L12.7763.9056a.5785.5785,0,0,1,.4264-.0818q2.6294-.0015,5.2588.0009a.1.1,0,0,1-.0009.1714Z"/><path class="bx" d="M22.7644,21.7465a9.7278,9.7278,0,0,1-.5981,1.7993l.005.0316a2.133,2.133,0,0,1-.5978.0314.1816.1816,0,0,1-.1363-.0478.1723.1723,0,0,1,.0248-.1385.5439.5439,0,0,1,.2521-.1256c.4121-.3665.4181-.9038.5789-1.3747-.0222-.028.12-.0724-.0211-.1005-.1461-.0291-.2021-.1213-.0448-.2329a.3123.3123,0,0,1,.3311.0746Z"/><path class="by" d="M22.3642,17.071a.6583.6583,0,0,0-.5047-.1924l-.2987-.0184c-.0467-.3274.161-.2267.3279-.1949.8514.2256,1.734.2472,2.5972.3954-.1716.0609-.3709-.0336-.5306.0946l.0066.0432a.3309.3309,0,0,1-.1872.1086.9893.9893,0,0,1-.1457.0136c-.0971,0-.1943,0-.2915-.0032a1.1979,1.1979,0,0,1-.43-.0762c-.1653-.0418-.351.0082-.5-.11Z"/><path class="bz" d="M16.2364,3.8866c.2728.1886.2093.4889.15.713-.0685.26.0815.1826.19.2056a1.6279,1.6279,0,0,1-.703.1935c-.3979-.2923-.055-.67-.1161-1.0016A.8766.8766,0,0,1,16.2364,3.8866Z"/><path class="ca" d="M9.9127,6.3114a3.65,3.65,0,0,0,.3382,2.1206,1.1836,1.1836,0,0,1,.1416.6658l-.1139-.0032a2.1646,2.1646,0,0,1-.1913-.4041L9.6732,7.3922c.04-.3692-.1053-.7548.1-1.1093Z"/><path class="cb" d="M21.7737,9.92c-.0959-.4328-.5768-.6414-.6459-1.0965-.0037-.0245-.18-.0228-.2757-.0333a.8673.8673,0,0,1,.4747-.1138c.1111.0594.3109-.1006.309.2429-.0016.2788.4139.4652.5281.7766Z"/><path class="cc" d="M25.5841,7.0142c-.1651-.07-.4757.0833-.4863-.11-.0089-.1629-.1035-.4928.3958-.578L25.0311,6.29c.8128-.21.8722-.1577.81.7174Z"/><path class="cd" d="M14.078,3.4068c-.12.112-.2933.2736-.41.1375a.4962.4962,0,0,1-.1-.5314c.0483-.0986.18-.1894.0684-.325.1477-.1366.3514-.1171.5228-.1875.24-.0978.3126.0339.2652.23A1.0689,1.0689,0,0,1,14.078,3.4068Z"/><path class="ce" d="M22.2746,7.5032a.8922.8922,0,0,1-.4982.1005c-.5509.0625-.8477-.3173-.6386-.8175a1.1906,1.1906,0,0,1,.59-.1014.58.58,0,0,1,.2782-.0327C22.054,6.9489,21.945,7.2953,22.2746,7.5032Z"/><path class="ad" d="M20.5764,5.907a.8541.8541,0,0,1-.505.0958c-.385.1449-.5181-.0127-.4861-.3927.012-.1428.1445-.31-.0574-.427a1.0055,1.0055,0,0,1,.5138-.09c.2369-.0984.3858-.0331.4181.232C20.4838,5.5223,20.5515,5.71,20.5764,5.907Z"/><path class="cf" d="M17.0728,6.7129a.3517.3517,0,0,1-.3011.1854c-.2123.0307-.1688-.1527-.1935-.2536a1.8932,1.8932,0,0,0-.3272-.7542c.2423-.1672.5536-.0534.8017-.197.2363-.0757.42-.09.2745.25C17.22,6.1927,17.35,6.52,17.0728,6.7129Z"/><path class="cg" d="M24.5237,8.0784c.3992.04.3748.4974.6511.6694.0661.0411.103.15.2108.1593a.6738.6738,0,0,1-.4231.09c-.2259.0613-.4245.1383-.4838-.232-.03-.1881-.3257-.2347-.4522-.4024-.08-.0442-.1638-.0839-.1957-.18A1.5955,1.5955,0,0,1,24.5237,8.0784Z"/><path class="ch" d="M23.8308,8.1826l.32.0172c-.083.3652.2445.5863.3149.8976a.8421.8421,0,0,1-.49.104c-.3233.15-.2736-.2784-.481-.3093a.4472.4472,0,0,1-.0931-.0972,1.52,1.52,0,0,1-.1672-.5113A1.2493,1.2493,0,0,1,23.8308,8.1826Z"/><path class="ci" d="M14.078,3.4068a1.6863,1.6863,0,0,1,.2133-.676c.1052-.1561-.007-.2-.1322-.23a.618.618,0,0,1,.3985-.1c.2313-.091.3867-.0587.35.236a2.5429,2.5429,0,0,0,.0674.5692A3.3962,3.3962,0,0,1,14.078,3.4068Z"/><path class="cj" d="M16.251,5.8905c.5888.0189.3087.5649.4973.8275.0311.0433.0168.1193.0234.18l-.3985.3c-.2733-.0994-.173-.3656-.2334-.5538-.0688-.2146-.03-.4613-.1873-.6534A.3674.3674,0,0,1,16.251,5.8905Z"/><path class="ck" d="M18.7364,1.5931a2.1228,2.1228,0,0,1,.7856-.0956c.1947-.0152.48-.1723.5461.0872a.5063.5063,0,0,1-.4018.6674.6786.6786,0,0,0-.22.0951c-.4973.0344-.386-.2986-.3535-.5837a.0773.0773,0,0,1,.0753-.0491l.0068-.0074C19.0214,1.6959,18.8405,1.7916,18.7364,1.5931Z"/><path class="cl" d="M23.0509,23.64a3.8,3.8,0,0,1,.3016-1.31c.05-.1866.1553-.3686-.0011-.553l.2975-.0022c.1359.4442-.15.813-.22,1.22-.0374.2175-.2221.4159-.0775.6549-.0467.0723-.1184.064-.1892.0585A.1171.1171,0,0,1,23.0509,23.64Z"/><path class="bs" d="M20.874,7.8018a.6008.6008,0,0,1-.4036.0971c-.2967.1241-.4774-.0243-.6-.2711-.0882-.1778-.1408-.3725-.2388-.5469a.9085.9085,0,0,1,.4824-.096c.33-.1063.5369-.0365.5288.36a.4261.4261,0,0,0,.1635.34A.2759.2759,0,0,1,20.874,7.8018Z"/><path class="cm" d="M18.8864,4.3141c-.0839-.0286-.2813-.0363-.2268-.0993.1858-.2148-.1367-.5767.23-.712a1.5929,1.5929,0,0,0,.1717-.0876c.0735-.1134.224-.0106.3032-.108a.0718.0718,0,0,1,.08-.0145l.11.1127a.3894.3894,0,0,1-.0941.2377.6849.6849,0,0,0-.0671.43.4131.4131,0,0,1,.087.1394A1.1033,1.1033,0,0,1,18.8864,4.3141Z"/><path class="cn" d="M20.5764,5.907c-.2057-.0189-.2371-.1233-.2458-.3271-.0074-.1734.0928-.5007-.2888-.4868a1.6568,1.6568,0,0,1,.6865-.1049.5959.5959,0,0,1,.2782-.0324c.0707.2824-.122.59.0838.86A.982.982,0,0,1,20.5764,5.907Z"/><path class="co" d="M20.874,7.8018l-.1064-.012a2.838,2.838,0,0,0-.1427-.91,1.048,1.048,0,0,1,.5129-.0932c.0662.0295.2167-.0087.1965.0646-.14.5087-.0433.6888.442.7528A3.0051,3.0051,0,0,1,20.874,7.8018Z"/><path class="cp" d="M19.5279,5.1831c.1854.018.3961-.0382.218.3052-.0868.1675-.1717.591.3255.5145a.7984.7984,0,0,1-.5.1c-.4564.03-.4564.03-.4637-.57-.04-.0928-.1448-.1411-.1675-.2446A1.21,1.21,0,0,1,19.5279,5.1831Z"/><path class="cq" d="M23.2842,5.515a2.2959,2.2959,0,0,1-.8072.0946.2463.2463,0,0,1-.2028.0247c-.1171-.242.204-.2483.2257-.421.0223-.1776.1441-.385-.17-.4242a4.1383,4.1383,0,0,1,1.1259-.1013l-.01.0317C23.4632,4.9991,23.1326,5.2084,23.2842,5.515Z"/><path class="cr" d="M17.4469,1.7977a1.2378,1.2378,0,0,1,.5907-.0985c.2162-.0343.5437-.151.6082.0536.0652.2068-.1293.4824-.3578.6367a1.5975,1.5975,0,0,0-.2009.1353c-.481.1425-.3984-.2326-.45-.4855C17.61,1.9305,17.4908,1.893,17.4469,1.7977Z"/><path class="cs" d="M22.33,4.7891l.4919.0228c-.257.2115.0041.792-.5615.7779-.214.1372-.2344-.0154-.2509-.1691-.0161-.15.0391-.335-.1948-.3706-.1458-.0141-.2994-.0076-.3829-.1636A2.5344,2.5344,0,0,1,22.33,4.7891Z"/><path class="co" d="M19.4692,2.297a.6758.6758,0,0,0,.4614-.7734l-.4088-.0261a2.8,2.8,0,0,1,.9151-.1026l.6164.02c.0286.1794-.1143.19-.226.2307-.3516-.0448-.4065.2879-.5793.4681-.0072.0076.0917-.001.1372.0228a.19.19,0,0,1,.0958.0818,2.4475,2.4475,0,0,1-.901.0989.0646.0646,0,0,1-.091.0085A.0653.0653,0,0,1,19.4692,2.297Z"/><path class="ct" d="M15.05,6.6875a1.5088,1.5088,0,0,1,.3119.885.6278.6278,0,0,0,.3114.522l-.101.2975c-.3191.0464-.421-.1723-.4909-.4145a1.4506,1.4506,0,0,0-.24-.624c-.056-.0766-.0167-.1743-.0566-.2547A.8335.8335,0,0,1,15.05,6.6875Z"/><path class="cu" d="M22.5552,8.4958l-.4015-.0041a1.0551,1.0551,0,0,1,.5617-.11c.4191-.1728.5122.2412.7407.4114h0a.5436.5436,0,0,1,.1123.5066.602.602,0,0,1-.4031.096c-.33.14-.2542-.211-.3742-.321A.9889.9889,0,0,1,22.5552,8.4958Z"/><path class="cv" d="M22.0557,6.7018l-.3275-.0169a1.2013,1.2013,0,0,1,.6013-.0966c.3049-.0934.553-.05.67.2883.1313.38-.1815.4258-.4083.5348C22.0446,7.4528,22.1438,7.0065,22.0557,6.7018Z"/><path class="cw" d="M18.94,5.2878c.113.0236.24.0055.3243.1127-.2549.224-.1922.5211-.1851.8054a.5816.5816,0,0,1-.4089.0946c-.0888-.017-.2732-.046-.2392-.0813.2265-.2344-.2189-.6538.2325-.8037C18.76,5.382,18.81,5.2473,18.94,5.2878Z"/><path class="cx" d="M15.7578,3.9971c.2859.0853.1133.3062.0954.4392a1.3,1.3,0,0,0,.0207.5624.6987.6987,0,0,1-.4.1029.9474.9474,0,0,1,.2-1.09A.0682.0682,0,0,1,15.7578,3.9971Z"/><path class="cy" d="M21.2264,18.5848l.4317-.0164a4.11,4.11,0,0,1,.25-.902c.06-.1971.1725-.36.4192-.344a.2273.2273,0,0,1,.1016.0983,6.8708,6.8708,0,0,1-.2057,1.3922c-.2458-.073-.5047-.0741-.7519-.1388Z"/><path class="cz" d="M19.6318,7.0809c.2131-.0148.2364.1213.29.2923.08.2569.1721.5551.5487.5257a.5784.5784,0,0,1-.397.1c-.37-.0051-.5085-.3022-.5557-.5663-.05-.278-.2057-.2257-.3682-.2421A.9152.9152,0,0,1,19.6318,7.0809Z"/><path class="da" d="M25.15,1.3154c-.209.2577-.585.39-.597.7955l-.6953-.0125c.125-.52.3791-.76.8383-.7925L24.7644,1.3Z"/><path class="db" d="M18.0713,2.5012a2.8027,2.8027,0,0,0,.5091-.7721l-.5427-.03a1.8792,1.8792,0,0,1,.6984-.1061c.1673.0132.3354.02.5015.0425.0633.0084.0635.0733.0079.038-.0135-.0086-.0523.0229-.0795.0359a1.3715,1.3715,0,0,0-.3759.71,1.1579,1.1579,0,0,1-.6113.0952.0626.0626,0,0,1-.1075-.0134Z"/><path class="dc" d="M15.4434,2.1934c.1631.0012.2157.0342.22.2416.0038.1873-.2459.3976.0134.5735-.1108.1246-.2607.0915-.4.1-.3132-.0192-.2346-.2743-.2632-.4543-.0189-.1193.1-.2388.0185-.3668A.6586.6586,0,0,1,15.4434,2.1934Z"/><path class="dd" d="M15.0317,2.287c.0564.0623.3087-.033.1907.123-.2135.2818,0,.4712.054.698a.3429.3429,0,0,1-.3014.0978c-.3786-.09-.2582-.4062-.2076-.6031.0713-.2772-.12-.1609-.21-.202A.8168.8168,0,0,1,15.0317,2.287Z"/><path class="de" d="M23.1538,23.6665l.1975-.0164h.4a.4325.4325,0,0,1,.2972-.1156.3211.3211,0,0,1,.2132.11l1.067.03a3.9554,3.9554,0,0,1-2.1763.0833q-.0529-.0313-.0347-.0616C23.13,23.6765,23.1416,23.6665,23.1538,23.6665Z"/><path class="df" d="M17.0728,6.7129c.12-.3071-.06-.6677.1757-.9634.03-.0374-.1294-.0273-.1958-.056a.8967.8967,0,0,1,.48-.1128c.07.0573.23-.0626.2362.12-.1848.271-.0352.6536-.3.8979Z"/><path class="dg" d="M22.56,7.3905c.0776-.1686.4468-.1151.3224-.4457a.4885.4885,0,0,0-.5527-.3564,1.7239,1.7239,0,0,1,.7052-.1015l.3154.0191a3.6417,3.6417,0,0,0,.0243.7994,1.2824,1.2824,0,0,1-.597.1008A.1651.1651,0,0,1,22.56,7.3905Z"/><path class="dh" d="M9.9523,26.435a.0687.0687,0,0,1,.0323-.0822c.1858-.22.4454-.1942.69-.1962.8935-.0072,1.7871-.0088,2.68.0172a.3883.3883,0,0,1,.4072.1013.1519.1519,0,0,1,.0232.1606.0467.0467,0,0,1-.0049.0512Z"/><path class="di" d="M15.9525,5.9909c.3709.08.2707.4089.3426.6469.0551.1825-.0574.3887.0781.56l-.0987.1006a1.531,1.531,0,0,1-.38-1.11c.0108-.0942-.0823-.0814-.1415-.0975A.2136.2136,0,0,1,15.9525,5.9909Z"/><path class="dj" d="M20.6249,6.8794c.0672.05.2809-.0518.1952.1485-.12.2807.0006.4192.2739.5056l-.3265.2563c-.1865-.0575-.3167-.1072-.27-.3808.0336-.1955-.0077-.5088-.3834-.4242A.9746.9746,0,0,1,20.6249,6.8794Z"/><path class="dk" d="M14.7846,7.0984l.0912.1977c-.0048.4353.3065.8464.1,1.2972-.3573-.05-.313-.3682-.3994-.599l-.11-.2042A1.4051,1.4051,0,0,1,14.7846,7.0984Z"/><path class="dl" d="M25.86,18.9784c-.1794.206-.4139.0209-.613.0863-.1032.0387-.1271-.0323-.1488-.107a9.0375,9.0375,0,0,1,.4806-1.5555l.061-.0435.1139.0345c.1241.2132-.0239.4251-.0029.6373.0176.2593-.1211.5084-.051.7709A.9829.9829,0,0,0,25.86,18.9784Z"/><path class="dm" d="M21.4318,4.8865l.5262.0176c-.155.28-.0351.7089-.4584.8429-.43-.0775-.2458-.5231-.4432-.74l-.328-.0186A1.75,1.75,0,0,1,21.4318,4.8865Z"/><path class="da" d="M22.5476,1.3208l-.81-.0255a11.7071,11.7071,0,0,1,3.0265.005l-.0262.0179c-.297.025-.58.1252-.8736.1675-.27-.0716-.5391.0466-.809.0053C22.8836,1.4427,22.6839,1.4755,22.5476,1.3208Z"/><path class="dn" d="M18.6674,7.3023a1.7057,1.7057,0,0,0-.2.693c-.1892-.0062-.3837-.0322-.2923-.2913.1-.2824-.1277-.1709-.2274-.2155C18.1583,7.314,18.4519,7.4593,18.6674,7.3023Z"/><path class="dm" d="M23.4564,8.7932c-.2.1021-.3147-.0167-.37-.177a.3393.3393,0,0,0-.37-.2344.9928.9928,0,0,1,.5186-.0981.3881.3881,0,0,1,.225.5005Z"/><path class="do" d="M6.3164,26.2277l.2127.2071-2.0527.0111.1329-.2041A4.2686,4.2686,0,0,1,6.3164,26.2277Z"/><path class="dh" d="M22.3464,26.3742a7.6517,7.6517,0,0,1,2.0066.0783L22.3564,26.45c-.0315-.0129-.0435-.0283-.036-.0464S22.3364,26.3742,22.3464,26.3742Z"/><path class="dp" d="M23.1538,23.6665a.5579.5579,0,0,1-.0015.0914,8.645,8.645,0,0,1-1.9154-.1762.1607.1607,0,0,1,.2232-.043l0,0,.7106.0384c.2829.1682.5853.0607.88.063Z"/><path class="dq" d="M20.81,26.3528a1.6323,1.6323,0,0,1,1.0509,0q.057.0333.0361.063c-.0133.0191-.0268.0288-.04.0288l-1.3984.0347.0043-.04a.0992.0992,0,0,1,.0167-.1263.2453.2453,0,0,1,.206-.0307Q20.7464,26.319,20.81,26.3528Z"/><path class="dr" d="M23.2564,18.8908c.32.1628.6641.0412.9945.083a.0638.0638,0,0,1,.0224.0735c-.01.0228-.02.0341-.0294.0341a7.6116,7.6116,0,0,1-1.8136-.1945.3082.3082,0,0,1,.2275-.1467C22.87,18.7362,23.1,18.6684,23.2564,18.8908Z"/><path class="ds" d="M24.2434,19.0814l.007-.1076.1121-.0147q.1983.0023.3965.0048l.1886.0067a.1237.1237,0,0,1,.2114.0064l.0881.0876A1.2906,1.2906,0,0,1,24.2434,19.0814Z"/><path class="dt" d="M22.5582,21.6634l-.3993.0064a.0581.0581,0,0,1-.1-.0031l-.4983-.1155a.0591.0591,0,0,1-.0207-.0655q.0126-.0315.0243-.0315a3.548,3.548,0,0,1,1.23.1Z"/><path class="du" d="M19.6523,9.2551l-.1871.6357c-.1794.2553-.2247.0436-.2942-.0844l-.0164-.0347A1.3116,1.3116,0,0,1,19.6523,9.2551Z"/><path class="dv" d="M25.5636,18.9549c-.2184-.3187.0828-.5844.09-.88.0853-.049,0-.2652.1988-.2029l-.002.4C25.6833,18.47,25.8724,18.8168,25.5636,18.9549Z"/><path class="aw" d="M19.2664,18.0794c.35.0415.7.0774,1.0489.1271.14.02.0512.1139.0358.18A3.0437,3.0437,0,0,1,19.2664,18.0794Z"/><path class="dw" d="M25.5636,18.9549c.1181-.2182.0618-.51.2867-.6828l.01.7062Z"/><path class="y" d="M22.6638,18.8435l-.2339.0434a3.0248,3.0248,0,0,1-.9585-.2129c.2715-.0812.5219.0745.7865.07a.3712.3712,0,0,1,.1788-.0784.2892.2892,0,0,1,.1861.0584A.1519.1519,0,0,1,22.6638,18.8435Z"/><path class="bk" d="M25.2364,18.0613c.1084-.2493-.1034-.6826.4039-.7026l.0249.0332c-.2121.187-.12.5338-.3682.7019Z"/><path class="bk" d="M25.0543,18.974l-.1067-.0034a2.6876,2.6876,0,0,1,.2886-.9092l.0294.02C25.4188,18.4318,25.2007,18.6944,25.0543,18.974Z"/><path class="dx" d="M17.4469,1.7977c.0931.0786.2735-.0951.3224.1115a.3837.3837,0,0,1-.4992.1c-.092-.1108-.224-.0973-.3472-.1118A.9928.9928,0,0,1,17.4469,1.7977Z"/><path class="dy" d="M25.4493.8909c.2287-.0637.3613-.0564.4018.1343.0068.0319-.04.1081-.0586.1072C25.6545,1.1256,25.5746,1.03,25.4493.8909Z"/><path class="dz" d="M25.8523,17.8719l-.1989.2028.1-.6816C25.9646,17.5161,25.8542,17.7052,25.8523,17.8719Z"/><path class="ea" d="M18.4606.9958l.0009-.1714H18.8C18.74,1.0338,18.5936,1,18.4606.9958Z"/><path class="ay" d="M21.4605,23.539l-.2237.0426c-.155-.0443-.3356.0131-.4691-.1173l.4882-.0219a.1357.1357,0,0,1,.19.0261l.0056.0079C21.4539,23.4974,21.4569,23.5184,21.4605,23.539Z"/><path class="aw" d="M18.6578,17.882a.605.605,0,0,1,.6007.1957A1.17,1.17,0,0,1,18.6578,17.882Z"/><path class="eb" d="M8.3837,25.7471a.2947.2947,0,0,1,.2968.2369l-.0741.0644a.2418.2418,0,0,1-.23-.2529A.2472.2472,0,0,1,8.3837,25.7471Z"/><path class="aw" d="M20.4864,18.4215c.2391-.2552.319-.088.3755.1415Z"/><path class="ck" d="M19.365,3.3072c-.0769.1038-.1935.0961-.3032.1079l-.2362-.025A.9374.9374,0,0,1,19.365,3.3072Z"/><path class="ec" d="M21.8564,26.4441c.0019-.0306.0034-.0612.0043-.0918l.4853.0218a.4565.4565,0,0,1,.01.0755Z"/><path class="af" d="M17.37,12.1859c.1316.0794.2215.156-.0146.21l-.2013-.102Z"/><path class="ad" d="M25.7514,12.7836l.0979.0008-.0012.4985-.0976-.199Z"/><path class="c" d="M20.6407,26.3376l-.17.03a19.4482,19.4482,0,0,1-2.0826.0325c-1.3751.01-2.75.0043-4.1255.0009a.9851.9851,0,0,1-.4883-.0438l-.2968-.1043a.7773.7773,0,0,1-.5166-.13,14.7575,14.7575,0,0,1-5.9562-5.4245,2.47,2.47,0,0,1-.5508-1.6619,4.1649,4.1649,0,0,1,.4152-2.48,6.8273,6.8273,0,0,0,1.2073,2.5454c.279.1268.3764.4192.57.6241.2179.1859.3163.4729.5474.6478L9.1805,20.36c.09.089.1792.1794.2688.2691.1816.18.3618.3621.5437.5421L9.98,21.1581q.1376.1386.2755.2769c.1532.1959.391.2891.5617.4634a3.3193,3.3193,0,0,0,.5027.4027c.1064.1378.2916.1711.4026.3028.1071.136.289.1709.4032.2975.1158.0588.1945.1661.3048.2324a8.1343,8.1343,0,0,1,.7992.4693c.4379.1752.7961.5039,1.25.6482.11.0347.1988.1116.3056.1526.2138.0852.4156.1959.6236.2935.2717.081.5177.23.7938.2987.4909.1694.9813.3392,1.4785.4886.4772.1471.9658.249,1.45.3688a3.5228,3.5228,0,0,1,.8386.2071l-.0132-.0072c.11.0727.2293-.027.3408.0184C20.4217,26.1474,20.6642,26.0707,20.6407,26.3376Z"/><path class="a" d="M6.4539,19.0368A11.3836,11.3836,0,0,0,10.62,24.4384a20.2413,20.2413,0,0,0,2.858,1.8149c-.1457.1634-.34.0978-.514.0988-.993.0054-1.986.0016-2.9789.0009a13.1478,13.1478,0,0,1-3.0273-3.3315A4.1329,4.1329,0,0,1,6.142,20.32c.0319-.2377-.1165-.3236-.326-.341-.1071.0315-.1371-.0132-.1117-.1128C6.313,19.9141,6.2525,19.3572,6.4539,19.0368Z"/><path class="ed" d="M6.3164,26.2277a2.6028,2.6028,0,0,1-1.7066.0142,2.754,2.754,0,0,1-.0118-1.3842c.2075-.3513.19-.791.4417-1.1248A8.922,8.922,0,0,0,6.3164,26.2277Z"/><path class="ee" d="M1.6054,26.1541c-.1488-.1514-.0977-.3437-.0978-.5207q-.0033-11.7516,0-23.5031c0-.177-.0511-.3693.0978-.5207Z"/><path class="ef" d="M5.7043,19.8664l.1117.1128c-.391.46-.23.9931-.1422,1.4857a8.1815,8.1815,0,0,0,.4319,1.2574.1993.1993,0,0,1-.0139.247,5.2639,5.2639,0,0,1-.6909-1.6764l.013-.3372a.7026.7026,0,0,0-.0059-.4839C5.4038,20.22,5.4343,19.9844,5.7043,19.8664Z"/><path class="eg" d="M8.2788,11.0554l.0014.76A.8683.8683,0,0,1,8.2788,11.0554Z"/><path class="eh" d="M5.408,20.4718a.3728.3728,0,0,1,.0059.4839Z"/><path class="a" d="M93.9285,20a2.3939,2.3939,0,0,1-2.2324,2.545q-.0871.0057-.1744.005a2.4607,2.4607,0,0,1-2.4841-2.4371c-.0005-.0558.0008-.1117.0041-.1674a2.4458,2.4458,0,0,1,4.8891-.1551Q93.9342,19.8948,93.9285,20Z"/><path class="a" d="M63.4539,19.9236c0-.6979.0094-1.3961-.005-2.0937-.0053-.2579.04-.3756.34-.3975a2.2734,2.2734,0,0,1,2.6255,2.4223A2.4621,2.4621,0,0,1,63.7875,22.47c-.2554-.0155-.3444-.0919-.339-.3526C63.464,21.3862,63.454,20.6548,63.4539,19.9236Z"/><path class="ei" d="M33.651,18.42V17.872c0-.5921.1126-.6766.7036-.5288a1.0315,1.0315,0,0,1,.738,1.2582l-.007.0253a1.1773,1.1773,0,0,1-1.2446.9223c-.1911-.0322-.1914-.1437-.191-.2816C33.6513,18.985,33.6506,18.7026,33.651,18.42Z"/><path class="ej" d="M48.7764,21.41l.6909-1.8325c.215.5645.4094,1.08.6078,1.5933.0668.173.0171.2441-.17.241C49.5442,21.4058,49.1833,21.41,48.7764,21.41Z"/><path class="ek" d="M81.72,6.9966c.2257.6016.4056,1.0953.5972,1.5844.0755.1926.0372.25-.1777.272-1.1307.1166-1.1481.0994-.7476-.9569C81.4906,7.6346,81.5834,7.3706,81.72,6.9966Z"/><path class="el" d="M10.4794,15.6715a3.4078,3.4078,0,0,1,1.2052,1.21A2.3,2.3,0,0,1,10.4794,15.6715Z"/><path class="eb" d="M21.5639,21.4542c-.0015.0323-.0027.0647-.0036.097l-.1008.0324-.099-.0028c-.1738-.0027-.3142-.1567-.4989-.11l-.7944-.12c-.0875-.23.0122-.2586.2033-.189A8.5564,8.5564,0,0,1,21.5639,21.4542Z"/><path class="em" d="M15.27,19.2849a4.2714,4.2714,0,0,1,1.2079.6624q.0843.0636-.0058.1188a10.6524,10.6524,0,0,1-1.391-.6489C15.0854,19.2892,15.1964,19.3137,15.27,19.2849Z"/><path class="en" d="M20.2705,21.1614c-.11.0178-.202.0545-.2033.189L19.02,20.99c.0429-.1189.1633-.0794.2447-.12A3.5123,3.5123,0,0,1,20.2705,21.1614Z"/><path class="eo" d="M9.7046,14.645a2.3584,2.3584,0,0,1,.787,1.0393c-.4157-.1542-.5945-.5323-.8192-.867a.1216.1216,0,0,1,.0281-.1695Z"/><path class="ep" d="M12.9087,17.86a3.618,3.618,0,0,1,.9732.6034c.02.1032-.0154.1477-.1228.1173a4.8784,4.8784,0,0,1-1.005-.699A.1141.1141,0,0,1,12.9087,17.86Z"/><path class="em" d="M17.1684,20.1739l1.02.3819c-.0413.1-.1455.0626-.2163.0981a5.324,5.324,0,0,1-1.0765-.3945C16.96,20.1484,17.0874,20.2347,17.1684,20.1739Z"/><path class="eq" d="M13.7591,18.58l.1228-.1173a2.0119,2.0119,0,0,1,.62.389c.0056.0946-.0591.1467-.1213.2Z"/><path class="er" d="M19.2647,20.8706l-.2447.12a1.8057,1.8057,0,0,1-.6719-.2134c.041-.1.1484-.06.2167-.1021Z"/><path class="es" d="M11.7789,16.9738c.3007-.0216.4184.2392.6057.3926.0137.1049-.0216.1554-.1338.1206C12.07,17.3384,11.809,17.2618,11.7789,16.9738Z"/><path class="et" d="M15.27,19.2849l-.1889.1323-.5076-.3461a.1134.1134,0,0,1,.1032-.1034Z"/><path class="eu" d="M12.2508,17.487l.1338-.1206c.196.1417.4449.2273.5241.4933l-.1546.0217Z"/><path class="es" d="M9.7046,14.645l-.0322.1723a1.6963,1.6963,0,0,1-.4036-.5976l.0376-.1853A1.0469,1.0469,0,0,1,9.7046,14.645Z"/><path class="ev" d="M17.1684,20.1739c-.07.0962-.1812.06-.2732.0855l-.423-.1933.0058-.1188Z"/><path class="ew" d="M18.5648,20.6747l-.2167.1021-.3764-.1229.2163-.0981Z"/><path class="ex" d="M14.6764,18.9677l-.1032.1034-.1932-.0187a.2426.2426,0,0,1,.1213-.2Z"/><path class="ey" d="M21.8887,16.6653c-.1381.0164-.2968-.0017-.3279.1949a22.4507,22.4507,0,0,1-2.8944-.9818.0871.0871,0,0,1,.0063-.1229l.0037-.0031c.8489.1468,1.6248.5338,2.4536.7532C21.383,16.5726,21.6652,16.4877,21.8887,16.6653Z"/><path class="ez" d="M18.6764,15.7525l-.01.126c-.2357.0408-.3775-.1992-.5991-.2-.0866-.0638-.2472.0329-.2869-.1323L16.37,14.7849c-.0155-.1114.01-.1752.1385-.12C17.2272,15.0354,17.9864,15.3253,18.6764,15.7525Z"/><path class="fa" d="M11.695,10.784a4.3871,4.3871,0,0,1,.8984,1.07A.1042.1042,0,0,1,12.5767,12l-.0018.0014a5.3559,5.3559,0,0,1-.9964-1.1027C11.5522,10.7945,11.59,10.7555,11.695,10.784Z"/><path class="fb" d="M10.38,9.0861c.3027-.0307.27.27.3962.4115a2.8832,2.8832,0,0,1,.52.8577.1284.1284,0,0,1-.0281.1685A3.5346,3.5346,0,0,1,10.38,9.0861Z"/><path class="fc" d="M12.5749,12.0015l.0185-.1478a3.4075,3.4075,0,0,1,.9914.8173c.0307.1048-.0123.1382-.1125.1162A4.67,4.67,0,0,1,12.5749,12.0015Z"/><path class="el" d="M16.5085,14.6648l-.1385.12c-.3177.023-.4543-.2859-.7054-.3849-.0137-.12.0261-.1793.1554-.1373Z"/><path class="fd" d="M14.5078,13.47c.2219.0857.4743.1261.5761.3894a.1065.1065,0,0,1-.0177.15l-.0023.0018c-.2315-.1826-.5341-.2663-.7172-.5161A.1215.1215,0,0,1,14.5078,13.47Z"/><path class="fe" d="M15.0634,14.01l.02-.1515a2.4814,2.4814,0,0,1,.7361.4033l-.1554.1373Z"/><path class="eu" d="M13.4723,12.7872l.1125-.1162a1.52,1.52,0,0,1,.5041.4079.13.13,0,0,1-.1152.115A1.2323,1.2323,0,0,1,13.4723,12.7872Z"/><path class="ff" d="M13.9737,13.1939l.1152-.115c.1819.0849.3615.1723.4189.3906l-.1616.0248A.8753.8753,0,0,1,13.9737,13.1939Z"/><path class="fg" d="M11.2685,10.5238l.0281-.1685a.7851.7851,0,0,1,.3984.4287l-.1165.1148A.94.94,0,0,1,11.2685,10.5238Z"/><path class="d" d="M17.7808,15.5457l.2869.1323C17.8539,15.89,17.7805,15.7978,17.7808,15.5457Z"/><path class="d" d="M10.0873,8.6905a.7445.7445,0,0,1,.1913.4041A.3777.3777,0,0,1,10.0873,8.6905Z"/><path class="fh" d="M23.0523,1.3141h.7962c.0642.2075-.1087.3292-.1976.4641-.0866.1315-.0279.2149.003.32l-1.0928.0009C22.5464,1.5,22.4382,1.4141,23.0523,1.3141Z"/><path class="fi" d="M24.5569,3.7009c.2964.0426.61-.0842.8929.0923L22.9814,3.82l-.2093-.03c.1976-.3236.3317-.7108.7818-.7821.11.0063.2671-.0213.2463.15C23.72,3.814,24.1593,3.7237,24.5569,3.7009Z"/><path class="fj" d="M23.0523,1.3141c-.49.0576-.2642.5628-.4912.7849l-.68.02a.2647.2647,0,0,1-.3155-.0226c.1136-.0548.3276-.1142.3254-.1637-.022-.48.3119-.5458.6567-.6118Z"/><path class="fk" d="M23.6539,2.0984c-.2306-.0691-.2411-.1791-.1526-.4045.0755-.1922.2544-.2359.3473-.38l.89.0043c-.41.1283-.5852.5223-.88.78Z"/><path class="fl" d="M21.5656,2.0962l.3154.0226a5.9858,5.9858,0,0,1-1.4.1l-.1055-.02a1.8485,1.8485,0,0,1,.3872-.6888c.1064-.0027.217.0075.2908-.0949.38-.0273.2931.3191.2482.4358C21.1539,2.2343,21.4264,2.0759,21.5656,2.0962Z"/><path class="dd" d="M15.2634.9362h1.7071l-1.9945.3761c-.206-.19-.21-.2743-.0067-.3409C15.062.9406,15.1679.9731,15.2634.9362Z"/><path class="fm" d="M17.27,2.0084a.86.86,0,0,1,.4991-.1c.212.1406-.2117.6054.3021.592l.1074.0138a3.6021,3.6021,0,0,1-1.106.1978l-.0009-.0108A.712.712,0,0,1,17.27,2.008Z"/><path class="fn" d="M14.1683.9342l.3976.0007c-.003.159-.1858.3222.0113.4764-.1236.1353-.3056.1193-.46.1587-.175.0447-.4421.1472-.4964-.12a.3783.3783,0,0,1,.3091-.4367.3659.3659,0,0,1,.0591-.0054A.7309.7309,0,0,0,14.1683.9342Z"/><path class="fo" d="M19.3653,3.5054l.1907-.1c.3211-.0073.47.1345.3541.4534-.1151.3172.1188.23.2653.2506a1.4108,1.4108,0,0,1-.6938.1027L19.268,4.2c-.0462-.16.0793-.1979.1808-.24.1762-.0737-.0184-.0852-.0246-.1262C19.4078,3.7242,19.3149,3.6289,19.3653,3.5054Z"/><path class="fp" d="M18.79,2.42a.4475.4475,0,0,1,.3759-.71c.1016.1956-.12.558.3032.5876l.1107.02A1.8021,1.8021,0,0,1,18.79,2.42Z"/><path class="fq" d="M14.5772,1.4113c-.1186-.0369-.3019.0909-.343-.1441-.048-.275.2274-.2158.3317-.3323l.6975.0012c-.0661.1481-.5543-.0269-.2874.3758C14.8664,1.4405,14.7164,1.4017,14.5772,1.4113Z"/><path class="fe" d="M14.4788,24.35c-.5546-.0006-.8456-.4993-1.3-.6886.0012-.0983.0106-.1864.1465-.1194l1.3445.7189C14.63,24.3416,14.5341,24.3027,14.4788,24.35Z"/><path class="fr" d="M17.697,25.54a3.6474,3.6474,0,0,1-1.52-.4924c-.02-.0859-.0082-.1373.0963-.0913a6.5108,6.5108,0,0,1,1.4989.4919C17.8064,25.5275,17.787,25.5625,17.697,25.54Z"/><path class="eu" d="M17.697,25.54l.0751-.0918a13.8156,13.8156,0,0,1,1.8064.3989c-.1054.1643-.2878-.0011-.409.0956A4.3748,4.3748,0,0,1,17.697,25.54Z"/><path class="fs" d="M8.5764,19.7741a2.5846,2.5846,0,0,1-.5-.6722l.0319-.1736A2.1235,2.1235,0,0,1,8.7,19.646C8.7287,19.7558,8.6854,19.7964,8.5764,19.7741Z"/><path class="ft" d="M13.325,23.5421l-.1465.1194-.8089-.4726a.0961.0961,0,0,1,0-.1359.0976.0976,0,0,1,.0236-.0173A2.8671,2.8671,0,0,1,13.325,23.5421Z"/><path class="fu" d="M16.2732,24.9563l-.0963.0913a1.4572,1.4572,0,0,1-.7988-.2923.1521.1521,0,0,1,.1111-.1323A2.1143,2.1143,0,0,1,16.2732,24.9563Z"/><path class="fv" d="M10.7644,21.972a1.47,1.47,0,0,1-.5706-.5115.107.107,0,0,1,.0963-.1035,1.8017,1.8017,0,0,1,.5944.5066C10.8981,21.9592,10.8715,22.01,10.7644,21.972Z"/><path class="fe" d="M8.5764,19.7741,8.7,19.646c.1834.23.4739.387.4937.7278C8.8588,20.3071,8.7536,20.0037,8.5764,19.7741Z"/><path class="ew" d="M19.17,25.9427c.1138-.1287.2783-.04.409-.0956.1423.0491.3882-.0913.3908.2135C19.67,26.2416,19.4431,25.9344,19.17,25.9427Z"/><path class="fw" d="M9.9931,21.1712c-.3278-.0163-.461-.2686-.61-.5024a.1487.1487,0,0,1,.0953-.0828A.8941.8941,0,0,1,9.9931,21.1712Z"/><path class="fx" d="M15.4892,24.623l-.1111.1323a1.3874,1.3874,0,0,1-.6265-.2811c.0116-.0707.0787-.0828.1243-.1175A1.7046,1.7046,0,0,1,15.4892,24.623Z"/><path class="eu" d="M10.7644,21.972l.12-.1084a1.3865,1.3865,0,0,1,.5053.3966.1356.1356,0,0,1-.113.12A1.4018,1.4018,0,0,1,10.7644,21.972Z"/><path class="ff" d="M11.2764,22.3807l.113-.12a.8846.8846,0,0,1,.3985.289c.0218.1085-.0182.1523-.1284.1224A.8865.8865,0,0,1,11.2764,22.3807Z"/><path class="ag" d="M20.2592,26.1684c-.0991-.0434-.2369.0152-.303-.115.2719-.2164.5465-.0814.8206-.0063-.0972.1348-.257.0893-.3854.1341A.1451.1451,0,0,1,20.2592,26.1684Z"/><path class="fv" d="M11.66,22.6716l.1284-.1224.4283.2933a.1488.1488,0,0,1-.1369.1241A1.07,1.07,0,0,1,11.66,22.6716Z"/><path class="et" d="M9.4789,20.586l-.0953.0828a.299.299,0,0,1-.203-.3088A.28.28,0,0,1,9.4789,20.586Z"/><path class="es" d="M12.08,22.9666l.1369-.1241a.2.2,0,0,1,.1765.1932l-.0235.1532Z"/><path class="ew" d="M10.29,21.357l-.0963.1035a.2778.2778,0,0,1-.2139-.3024A.3229.3229,0,0,1,10.29,21.357Z"/><path class="fy" d="M20.3655,26.1366c.1195-.1106.2767-.0483.4113-.09l.1833.014-.2275.11C20.6056,26.2091,20.4783,26.2489,20.3655,26.1366Z"/><path class="ev" d="M14.8764,24.3567l-.1243.1175-.2728-.1241.1907-.0891Z"/><path class="fs" d="M6.2914,22.97l.6167.9591c.0285.1191-.018.165-.1369.14l-.6448-.9133C6.1764,23.09,6.2029,23.0023,6.2914,22.97Z"/><path class="fz" d="M6.7712,24.0692l.1369-.14.3878.5219c.0175.1022-.0162.1495-.1248.1165Z"/><path class="ga" d="M7.1711,24.5676l.1248-.1165a1.4238,1.4238,0,0,1,.4025.4831c.0429.1087-.011.1334-.1061.1223A1.2471,1.2471,0,0,1,7.1711,24.5676Z"/><path class="ex" d="M6.2914,22.97a.1864.1864,0,0,1-.1653.1858l-.0343-.1866.0139-.247A.3135.3135,0,0,1,6.2914,22.97Z"/><path class="eb" d="M8.0931,25.4564a.3206.3206,0,0,1,.3051.305C8.1864,25.77,8.0627,25.69,8.0931,25.4564Z"/><path class="gb" d="M7.5923,25.0565l.1061-.1223a.3322.3322,0,0,1,.1911.317C7.7257,25.2851,7.6505,25.1837,7.5923,25.0565Z"/><path class="gc" d="M19.171,9.8064c.09.057.1592.185.2942.0844l.1.1992a7.0757,7.0757,0,0,0,.7914.8839,1,1,0,0,1,.2977.6084l-.0889.2052c-.4431-.433-.9005-.8528-1.3223-1.3057C19.0776,10.3044,19.1831,10.0346,19.171,9.8064Z"/><path class="gd" d="M14.9753,8.5937c.0035-.4352-.44-.8361-.1-1.2972.1443.0487.26.0642.2767.2962.0215.2988.04.6614.42.7993-.1689.1259-.0725.409-.2974.5016-.2346.0346-.2184-.1812-.2994-.3Z"/><path class="ge" d="M23.2842,5.515c-.5014-.1166-.0563-.3928-.0838-.588-.008-.0566.159-.1378.2457-.2077l.6027-.0118c-.0414.1509-.4428.0036-.273.3275.0832.1587-.0156.4936.3683.3695a1.0534,1.0534,0,0,1,.3426.0078A5.0365,5.0365,0,0,1,23.2842,5.515Z"/><path class="gf" d="M21.0564,5.007c.2281.0132.3016.1557.3038.36.0016.149-.0015.303.2029.327a.15.15,0,0,1,.2117.0129l.0008.0009a1.5364,1.5364,0,0,1-.6854.1072c-.3693-.0016-.2374-.3172-.3116-.5018C20.6636,5.0276,21.02,5.161,21.0564,5.007Z"/><path class="bo" d="M21.7756,5.7084l-.2125-.0138c.0446-.0831.1489-.2077.1245-.2429-.251-.3612.08-.4169.27-.5473a.3707.3707,0,0,1,.2059.4821L22.1576,5.4c-.0294.1067-.0511.1906.1027.19l.2166.02A1.5687,1.5687,0,0,1,21.7756,5.7084Z"/><path class="gg" d="M17.47,6.5984c.0915-.3021-.23-.742.3-.8979.2434.1791-.025.7254.5026.7A2.4662,2.4662,0,0,1,17.47,6.5984Z"/><path class="gh" d="M19.0793,6.2059c-.3146-.4485-.2578-.6952.1852-.8054.015.1031.2034.17.0881.2929-.3421.366-.0481.3769.2186.4089A.7624.7624,0,0,1,19.0793,6.2059Z"/><path class="dk" d="M14.9753,8.5937l.2994.3.1.2-.1.099C14.7334,9.2135,14.9842,8.8384,14.9753,8.5937Z"/><path class="gi" d="M22.56,7.3905l.2176.0157a.88.88,0,0,1-.5031.097c-.2152.0034-.3944-.063-.443-.2939a.3881.3881,0,0,1,.2162-.5045l.008-.0031c.1956.0233.2082.1689.2023.3164C22.2492,7.2352,22.3878,7.3245,22.56,7.3905Z"/><path class="cs" d="M23.3746,7.3054c-.3976-.2547-.2534-.5259-.0242-.8.1869.0087.165.1308.1877.2726.0366.2291.1038.4845.4418.4286A1.236,1.236,0,0,1,23.3746,7.3054Z"/><path class="dn" d="M18.5672,8.2945c.1739-.0334.1185.1652.2139.2114l-.21.2C18.6786,8.5684,18.3222,8.4344,18.5672,8.2945Z"/><path class="gj" d="M24.2616,23.6441l-.2.0016a2.9939,2.9939,0,0,1,.4952-1.7749l.2973-.0021Z"/><path class="gk" d="M25.7507,13.7822v.2992a.53.53,0,0,1-.5154-.0776,17.6728,17.6728,0,0,1-3.1539-2.1764c-.1751-.16-.0865-.29-.0225-.44A15.9883,15.9883,0,0,0,24.8164,13.38C25.1164,13.5339,25.3548,13.8474,25.7507,13.7822Z"/><path class="du" d="M20.6541,11.5823a5.4609,5.4609,0,0,0-.7713-.861.7664.7664,0,0,1-.3179-.6313,3.0917,3.0917,0,0,1,1.1915,1.1942Z"/><path class="gl" d="M22.5552,8.4958a2.673,2.673,0,0,1,.61.9.6081.6081,0,0,1-.3962.1036c-.0637-.2343-.2952-.3391-.4157-.5491C22.1629,8.6184,22.375,8.594,22.5552,8.4958Z"/><path class="fj" d="M24.4656,9.0974a.6516.6516,0,0,1-.3334-.8591c.0057-.013.0119-.0259.0185-.0385.0537.3184.5981.304.5011.7465-.0141.0643.2028.0268.3106.05A.8379.8379,0,0,1,24.4656,9.0974Z"/><path class="dm" d="M23.5684,9.3c-.2764-.1159-.0735-.338-.1123-.5066.35-.0883.3784.2311.5193.4081A.64.64,0,0,1,23.5684,9.3Z"/><path class="dk" d="M15.2745,9.2922a2.31,2.31,0,0,1,.4989.898A.9714.9714,0,0,1,15.2745,9.2922Z"/><path class="dk" d="M15.8732,10.29a.6483.6483,0,0,1,.2994.5986C15.9616,10.7446,15.7577,10.5972,15.8732,10.29Z"/><path class="dm" d="M24.5572,21.8708a14.7507,14.7507,0,0,1-.4952,1.775l-.3108.0041.4452-1.47C24.2509,22,24.3057,21.821,24.5572,21.8708Z"/><path class="gm" d="M23.7557,17.19l.2062.0081c.0572.0319.1539.0534.1654.0972.1292.4932-.21.8919-.2894,1.3461-.0452.2592-.2828.2325-.486.213A2.6794,2.6794,0,0,1,23.7557,17.19Z"/><path class="gn" d="M23.7557,17.19a7.77,7.77,0,0,1-.4038,1.6645l-.0962.0358-.5917-.0471c-.0033-.022-.0072-.0438-.0117-.0656l.0313-.062c.4038-.2415.4031-.69.524-1.0669.0782-.244.1843-.4117.4437-.4561Z"/><path class="go" d="M20.3655,26.1366l.3671.035c.0256.06.0511.1208.077.1812l-.1689-.0152-.3815-.1692Z"/><path class="gp" d="M22.3582,17.3737c-.34.0349-.2819.3559-.4039.55-.1279.2039-.0488.4992-.2958.6444-.2014-.5359.2028-.9543.2949-1.4334.0233-.1211.2688-.0421.4108-.064l-.0009-.0027A.2647.2647,0,0,1,22.3582,17.3737Z"/><path class="j" d="M21.4516,23.4764l-.1957-.0339c.13-.5264.2494-1.0555.3957-1.5772.0336-.12.1943-.0972.3088-.1006.2032.186.0963.398.0457.6015a2.0509,2.0509,0,0,1-.5435,1.079Z"/><path class="gq" d="M21.4626,23.4452a5.99,5.99,0,0,0,.4978-1.68l.0982-.098.1.0031a1.2525,1.2525,0,0,1,.2472.1075c.12.0854-.0113.0668-.0446.088a7.2435,7.2435,0,0,1-.6022,1.593Z"/><path class="gr" d="M23.5539,3.0084c-.0844.1149-.2942.1063-.2967.3023-.0039.3193-.2683.376-.4853.48l-.4085.0115a1.1373,1.1373,0,0,1,.2947-.6951l.1871-.09Z"/><path class="gs" d="M24.8516,3.0076h.5874c-.3645.0756-.2531.7791-.7857.5974a.2621.2621,0,0,0-.0062-.0954C24.4808,3.1684,24.48,3.1684,24.8516,3.0076Z"/><path class="cs" d="M22.6581,3.1065c.0071.2764.0516.5687-.2948.6951-.309-.08-.2169-.3324-.1838-.5126C22.23,3.0157,22.484,3.1357,22.6581,3.1065Z"/><path class="gt" d="M21.36,3.8044c-.3866-.357-.1808-.5487.1935-.6932C21.5782,3.3671,21.9009,3.7061,21.36,3.8044Z"/><path class="go" d="M13.7744,26.3574l6.6964.01-.0085.0708-6.6768-.0029A.7727.7727,0,0,1,13.7744,26.3574Z"/><path class="dx" d="M17.27,2.0084a1.1416,1.1416,0,0,1-.1984.6932C16.7682,2.3361,16.8315,2.1148,17.27,2.0084Z"/><path class="gu" d="M21.7593,23.4584c.1147-.4251.2246-.8516.3466-1.2745.039-.1351.0584-.3028.2555-.3185A1.9509,1.9509,0,0,1,21.7593,23.4584Z"/><path class="gv" d="M22.6523,18.7784l-.191-.0268a2.1148,2.1148,0,0,1,.2977-1.5406.5394.5394,0,0,1,.1954-.1187l.397.1021c-.0724.4468-.28.8522-.3929,1.2862a.3673.3673,0,0,1-.2941.2786Z"/><path class="gw" d="M22.6644,18.7584a7.2557,7.2557,0,0,0,.4784-1.2523.8969.8969,0,0,1,.2086-.3125l.3-.001c-.3933.306-.3564.7983-.5,1.2071C23.0564,18.67,22.9364,18.7868,22.6644,18.7584Z"/><path class="cy" d="M22.9544,17.0919l-.0958.0833c-.1517.1038-.2672.2991-.5.1987h0a.2834.2834,0,0,1,.0051-.3054Z"/><path class="ck" d="M19.3653,3.5054c.26.2725.291.5129-.0974.6944C19.1042,3.9408,19.2871,3.73,19.3653,3.5054Z"/><path class="gx" d="M20.7626,1.51c-.008.2978-.0069.6008-.3874.6889H20.077C20.2983,1.9507,20.1947,1.3952,20.7626,1.51Z"/><path class="gy" d="M22.3585,17.3739c.1558-.0937.2936-.2327.5-.1987l-.3974,1.576-.2034-.0072C21.9688,18.2636,22.2564,17.8255,22.3585,17.3739Z"/><path class="gz" d="M25.0543,18.974a4.7205,4.7205,0,0,0,.2111-.8928c.1941-.1945.0741-.5709.3994-.6894a8.2545,8.2545,0,0,1-.5059,1.5851Z"/></svg>