<svg xmlns="http://www.w3.org/2000/svg" viewBox="0 0 100 100"><defs><style>.a{fill:#231f20;}.b{fill:#006bb5;}.c{fill:#fefefe;}.d{fill:#fdfdfd;}.e{fill:#006bb4;}.f{fill:#fcfcfd;}.g{fill:#fbfbfb;}.h{fill:#d1d2d4;}.i{fill:#f9f9f9;}.j{fill:#e2e3e4;}.k{fill:#f7f8f8;}.l{fill:#d7d8da;}.m{fill:#e6e6e8;}.n{fill:#caccce;}.o{fill:#dbddde;}.p{fill:#c3c5c6;}.q{fill:#f6f7f7;}.r{fill:#f5f5f6;}.s{fill:#b9bbbe;}.t{fill:#b1b3b5;}.u{fill:#eeeeef;}.v{fill:#f6f7f8;}.w{fill:#403f42;}.x{fill:#b5b7ba;}.y{fill:#979a9d;}.z{fill:#d3d4d6;}.aa{fill:#c5c7ca;}.ab{fill:#dcddde;}.ac{fill:#eaebec;}.ad{fill:#acaeb0;}.ae{fill:#9c9ea1;}.af{fill:#f0f1f2;}.ag{fill:#333233;}.ah{fill:#353539;}.ai{fill:#a9abad;}.aj{fill:#949699;}.ak{fill:#757679;}.al{fill:#c7c8ca;}.am{fill:#bfc1c3;}.an{fill:#838487;}.ao{fill:#ededee;}.ap{fill:#c4c6c8;}.aq{fill:#7c7e80;}.ar{fill:#a5a6a9;}.as{fill:#b8babc;}.at{fill:#747577;}.au{fill:#a7a8ab;}.av{fill:#f3f4f5;}.aw{fill:#f8f9f9;}.ax{fill:#a2a4a6;}.ay{fill:#8b8e92;}.az{fill:#e8e9ea;}.ba{fill:#d2d3d5;}.bb{fill:#7f8083;}.bc{fill:#7a7c7e;}.bd{fill:#e4e5e6;}.be{fill:#929396;}.bf{fill:#cdcecf;}.bg{fill:#717274;}.bh{fill:#babcbe;}.bi{fill:#e8e8e9;}.bj{fill:#1d1e21;}.bk{fill:#464648;}.bl{fill:#858789;}.bm{fill:#b1b3b6;}.bn{fill:#3e3d3d;}.bo{fill:#97999b;}.bp{fill:#c4c5c7;}.bq{fill:#d1d2d3;}.br{fill:#9d9fa1;}.bs{fill:#b0b2b4;}.bt{fill:#dbdcdd;}.bu{fill:#c1c3c5;}.bv{fill:#bbbdbf;}.bw{fill:#98999b;}.bx{fill:#c0c2c5;}.by{fill:#363537;}.bz{fill:#d8d9da;}.ca{fill:#373536;}.cb{fill:#afb0b3;}.cc{fill:#797a7c;}.cd{fill:#f4f4f5;}.ce{fill:#9fa1a3;}.cf{fill:#d4d5d7;}.cg{fill:#8b8c8e;}.ch{fill:#929496;}.ci{fill:#eceded;}.cj{fill:#d9dadc;}.ck{fill:#aeb0b2;}.cl{fill:#616265;}.cm{fill:#b4b6b8;}.cn{fill:#a3a5a8;}.co{fill:#a8aaac;}.cp{fill:#b1b2b5;}.cq{fill:#8a8c8f;}.cr{fill:#bfc2c3;}.cs{fill:#8d8f91;}.ct{fill:#ebebec;}.cu{fill:#9b9d9f;}.cv{fill:#939598;}.cw{fill:#bcbec0;}.cx{fill:#e0e1e2;}.cy{fill:#f2f3f4;}.cz{fill:#b7b8bb;}.da{fill:#7b7d7f;}.db{fill:#b9bbbd;}.dc{fill:#e1e2e3;}.dd{fill:#e5e6e7;}.de{fill:#376ca0;}.df{fill:#ccced0;}.dg{fill:#909194;}.dh{fill:#484f5b;}.di{fill:#dddee0;}.dj{fill:#abadaf;}.dk{fill:#f5f5f5;}.dl{fill:#8c8f94;}.dm{fill:#989a9c;}.dn{fill:#c8cacb;}.do{fill:#474e5a;}.dp{fill:#1b68ae;}.dq{fill:#7a8091;}.dr{fill:#286fb1;}.ds{fill:#406fa4;}.dt{fill:#222021;}.du{fill:#c9cacc;}.dv{fill:#bbbdbe;}.dw{fill:#d6d7d8;}.dx{fill:#cdced0;}.dy{fill:#727173;}.dz{fill:#9fa0a1;}.ea{fill:#727275;}.eb{fill:#202021;}.ec{fill:#62687a;}.ed{fill:#242021;}.ee{fill:#0369b7;}.ef{fill:#353236;}.eg{fill:#414045;}.eh{fill:#211f1d;}.ei{fill:#262223;}.ej{fill:#262224;}.ek{fill:#2b2829;}.el{fill:#3e3e3f;}.em{fill:#3d3d3e;}.en{fill:#474747;}.eo{fill:#424242;}.ep{fill:#383839;}.eq{fill:#454546;}.er{fill:#3d3c3e;}.es{fill:#414141;}.et{fill:#1f1f20;}.eu{fill:#444445;}.ev{fill:#202020;}.ew{fill:#212122;}.ex{fill:#1f1f1f;}.ey{fill:#3a3a3b;}.ez{fill:#3b3b3b;}.fa{fill:#404041;}.fb{fill:#424142;}.fc{fill:#3d3d3d;}.fd{fill:#454446;}.fe{fill:#414142;}.ff{fill:#474748;}.fg{fill:#3b3a3b;}.fh{fill:#888a8c;}.fi{fill:#818284;}.fj{fill:#909295;}.fk{fill:#7d7f82;}.fl{fill:#9da0a2;}.fm{fill:#c8c9cb;}.fn{fill:#f6f6f7;}.fo{fill:#adafb1;}.fp{fill:#b7b9bb;}.fq{fill:#eeeff0;}.fr{fill:#424243;}.fs{fill:#3e3d3e;}.ft{fill:#444344;}.fu{fill:#4c4c4d;}.fv{fill:#464647;}.fw{fill:#3e3e3e;}.fx{fill:#434244;}.fy{fill:#201f20;}.fz{fill:#444;}.ga{fill:#4b4a4b;}.gb{fill:#272728;}.gc{fill:#cecfd1;}.gd{fill:#f0f1f1;}.ge{fill:#838587;}.gf{fill:#9fa2a4;}.gg{fill:#cacccd;}.gh{fill:#b8babb;}.gi{fill:#9b9da0;}.gj{fill:#c5c6c7;}.gk{fill:#bdbfc1;}.gl{fill:#a1a3a5;}.gm{fill:#bfc2c5;}.gn{fill:#d0d1d3;}.go{fill:#b4b6bd;}.gp{fill:#f6f7f9;}.gq{fill:#d6d8da;}.gr{fill:#86888a;}.gs{fill:#78797b;}.gt{fill:#97999c;}.gu{fill:#cfd0d2;}.gv{fill:#e5e6e9;}.gw{fill:#dcdddf;}.gx{fill:#a4a6a9;}.gy{fill:#f0f0f1;}.gz{fill:#6a6b6d;}</style></defs><title>mrLogo</title><path class="a" d="M.0627,63.5632q0-13.3645-.0091-26.729c-.0005-.3937.0462-.5228.497-.5226q49.6432.0217,99.2864.0132a1.0683,1.0683,0,0,1,.0469.5387q.0039,13.0694.0013,26.1386c0,.68.0752.61-.615.61Q49.936,63.6128.6018,63.61A1.0709,1.0709,0,0,1,.0627,63.5632Z"/><path class="b" d="M7.9089,50.6746l-.2615.7183c-.6466.3323-.72.481-.5931,1.2149a.7778.7778,0,0,1,.001.2964A5.8137,5.8137,0,0,0,6.64,55.3057c-.1268.4385-.2.92-.7806,1.0071a.5229.5229,0,0,0-.2611.5476c-.0005.1452,0,.29,0,.4347,0,.1038,0,.2072-.0063.3107a6.6773,6.6773,0,0,0-.3567,2.4272,4.84,4.84,0,0,1-.5178,1.2113,1.3917,1.3917,0,0,0-.2045.7477c-.0207.192.1222.3815.0193.58-.1516.293-.3116-.0306-.4548.0072a10.5634,10.5634,0,0,1-2.1061.0836c-.22.0138-.3975-.0421-.4081-.3119q-.0123-11.9738-.0021-23.9445a.81.81,0,0,1,.07-.4849A1.0584,1.0584,0,0,1,2.17,37.874q4.3149-.005,8.63-.0027-4.3352-.0006-8.67,0c-.5659,0-.569.0009-.5691.5755q-.0014,11.6476-.0006,23.2953a3.8756,3.8756,0,0,1-.004.4485c-.019.1613.0776.4416-.1675.4322-.2067-.0079-.17-.2828-.1764-.4614-.0051-.1495-.0012-.2993-.0012-.4489q0-11.5479-.0033-23.0957c0-.2366.0906-.5113-.1843-.679.0033-.1613.0153-.3229.0076-.4837-.011-.2317.1075-.26.3091-.26q5.6249.0117,11.25.0107a.9232.9232,0,0,1,.1468.0237c.0151.2763-.2271.3427-.3929.454a1.9294,1.9294,0,0,0-.7835,1.0455,16.478,16.478,0,0,0-.6586,2.4789.4447.4447,0,0,1-.1174.2658.4366.4366,0,0,0-.1633.2922c-.0636.2923-.1254.5822-.54.56-.1289-.0069-.226.1244-.2535.2692a3.2091,3.2091,0,0,1,.042,1.0834A5.7085,5.7085,0,0,0,9.47,45.7049a.3366.3366,0,0,1-.1442.3475.3147.3147,0,0,0-.0469.0844c-.08.4129-.2219.7631-.734.7548-.11.1658-.0213.3656-.091.5384a.9973.9973,0,0,0-.0009.6906.6236.6236,0,0,1-.0147.2277,6.1207,6.1207,0,0,0-.4036,2.03C8.0431,50.49,8.0428,50.6152,7.9089,50.6746Z"/><path class="c" d="M38.4521,44.1636a31.8856,31.8856,0,0,1-2.0131,3.4046c-.3748.5687-.4442.5715-.8164.0093A25.7582,25.7582,0,0,1,33.62,44.1941c-.1478,1.22-.3055,2.3257-.4035,3.4363-.0357.4052-.19.4922-.5513.4653a8.3252,8.3252,0,0,0-1.1455,0c-.3062.02-.3934-.0474-.34-.38.365-2.2622.7067-4.5282,1.0558-6.7929.0657-.4267.1231-.8548.2007-1.2793.0211-.1154-.0273-.288.1538-.3283.1914-.0425.2548.1131.3339.2378,1.0222,1.6119,2.0887,3.1963,3.0173,4.8663.032.0574.0648.1143.0934.1647.16.0319.162-.104.2046-.1784.9483-1.6585,2.0272-3.2348,3.0529-4.8445.0783-.1229.143-.2784.3332-.25.2251.0339.1517.2292.171.3582.4035,2.6933.7965,5.3881,1.2066,8.08.0408.2675.0014.3546-.2782.3446-.4977-.0179-.9972-.02-1.4948.0009-.2693.0112-.3314-.1073-.3611-.3435C38.7242,46.6066,38.5357,45.4671,38.4521,44.1636Z"/><path class="c" d="M91.5405,60.7777a4.4869,4.4869,0,1,1,.09-8.97,4.3373,4.3373,0,0,1,4.4876,4.4075A4.4483,4.4483,0,0,1,91.5405,60.7777Z"/><path class="c" d="M61.4227,56.2621c0-1.3132.0043-2.6265-.0039-3.94-.0014-.2269.0179-.3722.3-.3871a13.6863,13.6863,0,0,1,3.7256.0853,3.6491,3.6491,0,0,1,3.0642,3.0217,4.4579,4.4579,0,0,1-1.6756,4.7437,4.54,4.54,0,0,1-2.611.8645c-.779.033-1.5612-.0154-2.3419-.0106-.35.0022-.4765-.1064-.4681-.4884C61.44,58.8556,61.4226,57.5587,61.4227,56.2621Z"/><path class="c" d="M55.4361,43.727c0-1.33.01-2.66-.0076-3.9892-.0042-.3129.0876-.403.3917-.3865.4474.0243.8979.0214,1.3457.001.287-.0131.3666.0885.3615.3693-.0165.8973.0061,1.7953-.013,2.6925-.0064.3017.07.4025.3852.3941.8305-.0223,1.6625-.0243,2.4929,0,.33.01.3827-.1176.3776-.4044-.0154-.8641.0069-1.7289-.0119-2.5928-.007-.3236.0464-.4987.4254-.4589.5408.0569,1.2675-.23,1.5766.1113.2692.2969.0884,1.0108.0893,1.54.0039,2.2108-.0088,4.4216.0108,6.6322.0034.3816-.1022.4895-.4718.461a10.4306,10.4306,0,0,0-1.2957-.0027c-.2725.013-.3356-.0939-.3324-.3458.0118-.9141-.0146-1.829.0136-2.7423.0113-.3665-.1129-.4391-.45-.4289-.7971.0241-1.5958.0213-2.3931.0006-.3145-.0082-.4283.0641-.4189.4044.0255.9135-.0012,1.8283.0143,2.7423.0047.2755-.0625.3863-.3565.37a10.5289,10.5289,0,0,0-1.2957.0012c-.3421.0238-.4539-.0684-.4475-.43C55.45,46.3535,55.4361,45.04,55.4361,43.727Z"/><path class="c" d="M93.045,44.0467c0-1.4872.0164-2.8632-.01-4.2383-.0077-.39.1159-.4948.4766-.4547.4734.0526,1.1088-.2072,1.3809.1069.2341.27.0774.887.078,1.3506q.0049,3.4646-.0035,6.9293c-.0005.1478.1084.3559-.0977.4408-.1842.076-.3027-.095-.4249-.1989-1.6585-1.4091-3.3356-2.7975-4.8761-4.3393-.0429-.043-.0912-.08-.1935-.17,0,1.3886-.0218,2.7084.0118,4.0268.0119.4654-.0829.6682-.5836.598a3.9341,3.9341,0,0,0-.9454-.0018c-.3675.0384-.4316-.1172-.43-.4479.0124-2.6421.0062-5.2842.0118-7.9263,0-.1363-.0845-.3206.0865-.4035.1829-.0888.3066.0645.4318.1706,1.6356,1.3852,3.2729,2.7684,4.7935,4.2823C92.82,43.84,92.8925,43.9042,93.045,44.0467Z"/><path class="c" d="M38.2414,60.6439c-.6645,0-1.2961-.0151-1.9263.007a.55.55,0,0,1-.5494-.3219c-.5486-.9092-1.1123-1.8093-1.6751-2.71-.0753-.12-.1225-.3358-.2887-.2994-.1934.0424-.09.2543-.0913.3864-.01.8469-.0154,1.6942.0012,2.5408.0056.2879-.047.4268-.3766.4036a12.0488,12.0488,0,0,0-1.2449-.003c-.24.008-.36-.0412-.36-.3222q.0129-4.0356,0-8.0712c-.0007-.2434.0967-.322.3168-.3305a12.4522,12.4522,0,0,1,3.1273.1007,2.26,2.26,0,0,1,1.9266,1.8387,2.5411,2.5411,0,0,1-.93,2.7545c-.3156.2323-.3361.3632-.1174.6721.6712.9478,1.31,1.9191,1.9549,2.8851C38.0973,60.3061,38.2405,60.4131,38.2414,60.6439Z"/><path class="c" d="M76.4664,45.9428c0,.5317-.0057,1.0636.0035,1.5951.0035.2022-.0227.3525-.2552.4081a6.2285,6.2285,0,0,1-5.0516-.5366,4.3971,4.3971,0,0,1,1.1507-7.8665,7.6783,7.6783,0,0,1,3.7465-.1764c.2377.0382.3406.1186.3157.3823-.0451.4788.1187,1.0928-.1224,1.4051-.24.3107-.8311-.0877-1.2819-.0911a5.6971,5.6971,0,0,0-1.5319.1317,2.6483,2.6483,0,0,0-1.5975,4.0388,2.3873,2.3873,0,0,0,2.296,1.1193c.24-.0078.26-.1261.2575-.3153-.0072-.5815.017-1.1641-.01-1.7443-.0152-.3211.097-.3973.3954-.3806a12.0916,12.0916,0,0,0,1.2955.0006c.2979-.0153.4122.0671.3971.3851C76.4472,44.8452,76.466,45.3944,76.4664,45.9428Z"/><path class="c" d="M53.6489,60.643c-.7183,0-1.3495-.0188-1.9787.0083a.4465.4465,0,0,1-.5-.353c-.3611-.9122-.369-.9091-1.35-.9091a2.7088,2.7088,0,0,1-.398-.0027c-.8362-.1258-1.4949.0237-1.6478,1.0119-.0306.1982-.17.2521-.3643.2489-.5969-.01-1.194-.0036-1.7805-.0036-.0861-.1438.01-.242.0535-.3405q1.8015-4.0713,3.6144-8.1374c.0672-.1506.0654-.3851.3188-.39.256-.005.2589.2257.3261.3786q1.77,4.0311,3.53,8.0666C53.524,60.3384,53.5716,60.4574,53.6489,60.643Z"/><path class="c" d="M85.8243,48.0894c-.6674,0-1.3449-.011-2.0218.0057-.254.0062-.29-.1577-.3609-.3274-.397-.9451-.3988-.9443-1.4353-.9446a2.3963,2.3963,0,0,1-.3985-.0031c-.8232-.1405-1.413.0705-1.5666.9912-.0339.2029-.1644.29-.3909.2837-.596-.0167-1.1927-.0056-1.799-.0056a1.452,1.452,0,0,1,.2325-.67q1.7207-3.8961,3.4559-7.7856c.0729-.1634.062-.4283.3453-.42.2492.0072.2443.2422.3116.3952q1.7752,4.0352,3.5373,8.0762C85.7842,47.8,85.8866,47.91,85.8243,48.0894Z"/><path class="c" d="M51.6544,48.1923a4.6728,4.6728,0,0,1-1.4346-.1287,4.4167,4.4167,0,0,1,.0976-8.6361,7.7559,7.7559,0,0,1,2.6275-.1162c.3188.0375.4237.1556.3856.4733a6.6524,6.6524,0,0,0-.0485,1.0942c.0157.3421-.1137.3786-.4091.3177a3.9864,3.9864,0,0,0-2.2116.1373,2.59,2.59,0,0,0,.5576,4.969,4.3378,4.3378,0,0,0,1.6365-.0443c.39-.0962.4662.0334.4392.3712a3.2876,3.2876,0,0,0,.0188.398c.0466,1.0834.0466,1.0855-1.061,1.1626C52.054,48.2041,51.8538,48.1923,51.6544,48.1923Z"/><path class="c" d="M7.9089,50.6746a4.273,4.273,0,0,1,.4024-2.3827c.2183.0865.2287.3013.2938.4807a8.0361,8.0361,0,0,0,.8044,1.63,4.7612,4.7612,0,0,0,.414.632,3.4372,3.4372,0,0,0,.7238.8557.5747.5747,0,0,1,.0978.0975,4.0355,4.0355,0,0,0,1.1239,1.1088.77.77,0,0,1,.1488.1453c.0924.2214.3024.32.4784.4537a2.3129,2.3129,0,0,0,.5216.41c.3127.2371.6256.4735.9571.6839.19.17.4318.2635.6251.4275.0619.0248.1255.0457.1849.0763.2.0946.3743.2326.5642.345.4418.1905.85.4518,1.3071.6094a3.1877,3.1877,0,0,1,.44.2158c.3518.1244.7062.241,1.0532.3785a3.1639,3.1639,0,0,0,.404.1268,2.5983,2.5983,0,0,0,.6875.1968,6.1263,6.1263,0,0,0,1.0446.3537,2.8556,2.8556,0,0,1,.7089.2012c.067.0783.0553.1771-.0265.2046-.56.1882-.6511.7357-.7967,1.1684-.1184.3518-.2447.4422-.5615.389a3.42,3.42,0,0,1-1.2416-.2907,17.8106,17.8106,0,0,1-8.1444-4.893A9.3639,9.3639,0,0,1,7.9089,50.6746Z"/><path class="c" d="M9.3259,46.0524a4.1366,4.1366,0,0,1,.4009-2.3487c.3782.3022.3129.8063.5379,1.1778.0269.1458.0092.31.1639.4052.0166.0146.032.03.0488.0444a.6184.6184,0,0,1,.0828.1046,5.4626,5.4626,0,0,0,.8469,1.2769,3.0364,3.0364,0,0,0,.3269.4211,5.6306,5.6306,0,0,0,.98,1.0768,6.2646,6.2646,0,0,0,.8874.7916,1.9368,1.9368,0,0,0,.4948.4062,3.1,3.1,0,0,0,.4118.3061,5.1,5.1,0,0,0,.69.48c.1962.1392.395.2746.602.3977a4.1718,4.1718,0,0,0,.6825.4076,9.0789,9.0789,0,0,1,1.4021.7834.2307.2307,0,0,0,.2988.1082c.2229-.0078.4013.135.61.1744.9264.3822,1.886.6646,2.8432.9542a.5682.5682,0,0,1,.2666.1147c.0219.0254.0511.0676.0376.0835-.4142.4869-.48,1.1462-.826,1.6658l-.1983-.009a.2773.2773,0,0,0-.3755-.1415l-.1359-.0349A6.9551,6.9551,0,0,0,19.32,54.391l-.0077-.0017a1.9832,1.9832,0,0,0-.6007-.1957,16.86,16.86,0,0,1-5.8567-3.2955A11.0691,11.0691,0,0,1,9.3259,46.0524Z"/><path class="c" d="M10.7833,41.4728c.2031-1.6207.2563-3.31,1.9524-4.2442a.2889.2889,0,0,0,.0942-.0117,7.4642,7.4642,0,0,1,1.2537-.044c.1064.003.2116.015.14.1642-.0631.131-.26.1517-.2845.3473.2538.1127.4745-.0317.7032-.09a2.9692,2.9692,0,0,0,.4346-.1113,17.772,17.772,0,0,1,2.0133-.308q.4634-.0055.9261,0c.0888.0012.2073-.0222.1945.1343-1.3845.1877-2.7418.5125-4.1088.7918a2.9064,2.9064,0,0,0-2.1677,1.8536,1.1811,1.1811,0,0,0,.0734,1.4343A4.3939,4.3939,0,0,1,13.69,39c.3211-.005.1217.1956.1016.2942-.0689.3388.04.4381.3586.3008a6.9925,6.9925,0,0,1,.8348-.1908c.1139-.0367.2325-.0571.3442-.1019a1.7772,1.7772,0,0,0,.42-.1118c.282-.1035.5912-.0837.8713-.196a2.36,2.36,0,0,0,.523-.1c.35-.1051.7215-.092,1.0711-.1988a3.1129,3.1129,0,0,0,.6214-.1053c.2627-.0628.5436.0245.799-.0989a3.4274,3.4274,0,0,0,.9076-.1019c.4521-.0952.9222.0695,1.3694-.0962a2.33,2.33,0,0,1,.7033-.0533c.35,0,.6989.0351,1.0489.019a.6811.6811,0,0,1,.2628-.0163c.23.0592.4671-.0421.6971.0259.4269.0691.8938-.0526,1.2686.2651.0852.2939-.1074.2421-.2782.2273a30.8423,30.8423,0,0,0-9.0089.6542c-.65.1356-1.2955.2912-1.9381.4571a3.1063,3.1063,0,0,0-2.0615,2.348c-.0218.1685-.01.1916.35.667a5.1918,5.1918,0,0,1,.7812-1.4715c.2895.0818.1778.3433.2222.5258.0579.2386.0245.4915.0618.8022a5.0791,5.0791,0,0,0,.28-.4785,2.3367,2.3367,0,0,1,.6548-.6431,3.3533,3.3533,0,0,1,.56-.3158,2.4976,2.4976,0,0,1,.4138-.1314c.231-.0812.4816-.0879.7074-.1893.2861-.098.5954-.0924.8793-.2.29-.0945.6-.092.8891-.1926a1.9107,1.9107,0,0,0,.5207-.1023,2.0958,2.0958,0,0,0,.6041-.1,2.2459,2.2459,0,0,0,.6931-.1054,2.2643,2.2643,0,0,0,.7127-.1033,2.8141,2.8141,0,0,0,.9056-.1062,4.87,4.87,0,0,0,1.2176-.0938c.8032-.09,1.608.0363,2.4113-.022a.4724.4724,0,0,1,.4251.168c.0867.3581-.19.2361-.3335.2319a36.8322,36.8322,0,0,0-9.132,1.0663,3.1564,3.1564,0,0,0-2.4031,2.2605.4553.4553,0,0,0,.1127.521c.2481.2951.2878.0473.38-.1051.1527-.0386.1693.0746.1972.1758a1.9917,1.9917,0,0,0,.4056,1.34,19.21,19.21,0,0,0,1.0562,1.8838c.082.1164.29.3555-.09.4141a13.08,13.08,0,0,1-4.9075-5.2177A4.8979,4.8979,0,0,1,10.7833,41.4728Z"/><path class="c" d="M65.23,43.7592c0-1.3294.0115-2.659-.0084-3.9881-.005-.3307.0873-.4376.4146-.42.4474.0245.8974.0164,1.3456.0021.2451-.0078.3523.05.3513.327q-.0143,4.0381,0,8.0761c.0008.2592-.0693.3494-.3342.3382a13.5831,13.5831,0,0,0-1.3952.0018c-.324.02-.3828-.105-.38-.3991C65.2382,46.3849,65.23,45.072,65.23,43.7592Z"/><path class="c" d="M78.8294,56.2767c0,1.3108-.0119,2.6218.0078,3.9323.0053.3512-.1008.4734-.4471.4385-.5383-.0543-1.2426.2311-1.5749-.1123-.3054-.3155-.0819-1.0106-.0837-1.538-.0074-2.2067.0058-4.4136-.0118-6.62-.003-.3723.0918-.5012.47-.4668a6.8353,6.8353,0,0,0,1.1437.0011c.3763-.0291.5161.07.5068.4831C78.8111,53.6879,78.83,54.9825,78.8294,56.2767Z"/><path class="c" d="M44.9062,43.7055c0,1.312-.0181,2.6245.0105,3.9359.0086.3944-.12.4817-.4775.4548a8.2578,8.2578,0,0,0-1.1948,0c-.3425.024-.45-.078-.4467-.4356.0187-1.7935.0081-3.5873.0079-5.381,0-.83.0178-1.6613-.0083-2.4909-.0114-.3592.1082-.4605.4511-.4376a9.6644,9.6644,0,0,0,1.2448.0005c.3279-.02.4258.0859.421.4181C44.8955,41.0812,44.9065,42.3934,44.9062,43.7055Z"/><path class="d" d="M7.5456,51.59c.0349.0735.1081.1522.099.22A4.2618,4.2618,0,0,0,8.58,54.7814a15.6516,15.6516,0,0,0,6.9871,5.5716,20.9523,20.9523,0,0,0,9.8333,1.5978c.1654-.01.4889-.2711.5224.1826.0323.4384-.31.2735-.5172.3262-.0321.0081-.0648.0137-.0972.02a.7076.7076,0,0,1-.4692.1111,24.6118,24.6118,0,0,1-3.691-.0767c-.082-.0012-.1647-.0036-.2462-.0119a1.5329,1.5329,0,0,0-.7822-.0665.4465.4465,0,0,1-.1388-.0246,1.5026,1.5026,0,0,0-.46-.1554c-.5738-.0725-1.1213-.2636-1.6884-.3647-.4927-.1809-.9881-.3543-1.4935-.4969-.2727-.0919-.5248-.2378-.8052-.31a4.5715,4.5715,0,0,0-.6349-.2877,1.1848,1.1848,0,0,1-.2489-.1277c-.4516-.23-.8915-.4828-1.3506-.6984a7.6512,7.6512,0,0,0-.8738-.5077,3.2,3.2,0,0,0-.249-.2068,4.0613,4.0613,0,0,0-.4072-.298,3.3589,3.3589,0,0,0-.4074-.304c-.1567-.1528-.3552-.2531-.5126-.4051a4.3854,4.3854,0,0,0-.5642-.4679,1.3986,1.3986,0,0,0-.2563-.2119.5918.5918,0,0,1-.0956-.0962A1.9937,1.9937,0,0,0,9.481,56.98a1.1854,1.1854,0,0,0-.2538-.2127.5773.5773,0,0,1-.0936-.0971,2.9138,2.9138,0,0,0-.49-.6367,5.69,5.69,0,0,0-.6212-.7758c-.2428-.4511-.4864-.9033-.686-1.3731a3.2507,3.2507,0,0,1-.288-2.0559C7.1108,51.5649,7.2555,51.41,7.5456,51.59Z"/><path class="e" d="M1.0225,37.9375c.1912-.022.3331.021.334.2519.0006.15.0031.2992.0031.4488q0,11.6723,0,23.3445v.5389l.077,0V37.8028H11.1v.1184H1.659a1.045,1.045,0,0,0-.0479.5377q-.004,11.7345,0,23.4691a1.044,1.044,0,0,0,.0479.5377,8.4866,8.4866,0,0,0,2.1963.0856c.2389.0082.158-.246.2355-.3721.2191.0543.0773.3444.3743.4577A4.8852,4.8852,0,0,1,4.4083,61.32c-.02-.3058.0979-.2062.2432-.15a3.4666,3.4666,0,0,1,.1169,1.3662.3739.3739,0,0,1-.2382.222q-1.4208,0-2.8417-.001c-.6554,0-.6562-.0006-.6562-.64q0-9.4473,0-18.8945Q1.0314,40.58,1.0225,37.9375Z"/><path class="f" d="M11.8325,53.2854l-.0943-.0921c-.4037-.4014-.8082-.802-1.2052-1.21l.0122.0128c-.3118-.31-.5455-.6863-.8477-1.0047a5.0964,5.0964,0,0,0-.4319-.6538,8.4105,8.4105,0,0,1-.88-2.2366,1.2962,1.2962,0,0,1,.1675-1.0729c.36-.08.529.0141.478.43A3.4637,3.4637,0,0,0,9.58,49.5421a13.5752,13.5752,0,0,0,4.9758,4.9772,19.56,19.56,0,0,0,10.8566,2.8924c.0664-.0009.1329.0009.1991-.0028.1829-.01.3176.0055.317.2556,0,.2293-.0963.2687-.2973.2792-.9305.0486-1.8551-.08-2.7835-.0781a6.7624,6.7624,0,0,1-1.18.044c-.45-.0684-.8631-.2821-1.3174-.3329a8.63,8.63,0,0,1-1.0273-.3c-.2235-.105-.4786-.1-.7034-.2007a1.8789,1.8789,0,0,0-.4125-.1234c-.3354-.1214-.6609-.2692-1.002-.3755-.2335-.05-.4282-.2007-.6607-.2528-.4171-.202-.82-.433-1.2385-.6315-.2167-.071-.3655-.2608-.5812-.3338a1.1772,1.1772,0,0,0-.2407-.1137c-.16-.1965-.43-.2289-.6027-.4062-.3214-.2016-.6279-.4262-.954-.6206-.1232-.2225-.3942-.2793-.5378-.479A4.0662,4.0662,0,0,1,11.8325,53.2854Z"/><path class="d" d="M9.9663,42.623c.2981-.2219.5311-.2032.4893.2214a3.9414,3.9414,0,0,0,.6515,2.3582,13.5953,13.5953,0,0,0,4.67,4.6733,19.3891,19.3891,0,0,0,9.58,3.0035c.116.0067.2325.0172.3483.0128.2289-.0088.2091.1455.2186.2993.0115.1867-.0818.2238-.2413.2169-.3811-.0165-.7625-.0246-1.1437-.0361-.52-.1-1.0341.121-1.571-.0165a5.044,5.044,0,0,0-1.0045-.2578,21.13,21.13,0,0,1-3.179-.9534c-.7823-.2926-1.5-.721-2.2556-1.0713-.2445-.1357-.4838-.281-.7283-.4166-.2079-.1742-.464-.2726-.6813-.4318a2.7733,2.7733,0,0,0-.5969-.3963c-.0907-.1893-.3048-.2368-.4364-.3793-.1561-.1551-.3778-.2286-.5117-.4114-.2966-.3021-.655-.5318-.9628-.8208-.3165-.3462-.613-.71-.921-1.0632-.1549-.13-.22-.34-.3957-.4519-.3048-.4232-.5568-.8812-.8616-1.3043l.0123.0117a4.9513,4.9513,0,0,1-.6053-2.3363C9.8535,42.9149,9.8022,42.7389,9.9663,42.623Z"/><path class="d" d="M5.0929,60.0444a4.204,4.204,0,0,1,.3616-2.44c.2377-.0581.2035.1412.2424.2626a8.0523,8.0523,0,0,0,.5321,1.3154,1.1674,1.1674,0,0,1,.08.1973c.2124.2976.42.5989.6256.9009a1.933,1.933,0,0,0,.3968.5233c.128.1477.1981.3414.3662.4569a1.2851,1.2851,0,0,0,.2927.2344,1.2665,1.2665,0,0,1,.2228.2174.7568.7568,0,0,0,.2441.2658.5706.5706,0,0,1,.086.0911.8742.8742,0,0,1,.1168.29l.2644.3865H6.5827a.831.831,0,0,1-.3348-.1628,7.9685,7.9685,0,0,1-1.0912-1.8667A1.17,1.17,0,0,1,5.0929,60.0444Z"/><path class="g" d="M8.1467,61.768a.3633.3633,0,0,1-.2036-.2052c-.09-.0853-.1764-.1747-.2643-.2623-.1774-.1279-.2365-.35-.3943-.4935-.1808-.1349-.2486-.3589-.4051-.513a8.0715,8.0715,0,0,1-.6224-.9772c-.05-.1145-.15-.1976-.1958-.3151a4.5741,4.5741,0,0,1-.5153-2.1695.6743.6743,0,0,1,.2416-.5589c.3887-.14.5511.0917.5418.4092a4.6119,4.6119,0,0,0,.8519,2.6039,11.2461,11.2461,0,0,0,2.321,2.702c.2241.1875.4993.337.5877.6506a.1018.1018,0,0,1-.084.1076,1.5294,1.5294,0,0,1-1.2718-.451.9.9,0,0,1-.2968-.2369l.0145.0143Q8.2975,61.9222,8.1467,61.768Z"/><path class="h" d="M20.902,48.0966c-.0855.3642.27.2718.4131.3989a10.8831,10.8831,0,0,0,1.9993,1.5112,2.1185,2.1185,0,0,1,.5881.3631c.1129.1133.29.2424.19.41-.08.134-.268.0638-.4105.0236a3.5554,3.5554,0,0,1-1.0864-.2c.019-.0467.0363-.1083-.01-.1339a15.7341,15.7341,0,0,1-3.5911-3.1808c-.207-.2183-.1226-.4548-.09-.6939a1.1525,1.1525,0,0,1,.3036-.5117l.0593.0364c.13.864.9085,1.2548,1.3693,1.8757C20.7082,48.0722,20.8147,48.06,20.902,48.0966Z"/><path class="i" d="M25.9052,41.7115c.0384.3368-.2251.2181-.37.2244a44.2043,44.2043,0,0,0-7.12,1.0156,3.4716,3.4716,0,0,0-2.8062,2.3547c-.0377.0968-.0952.1652-.2126.147a.1988.1988,0,0,1-.1347-.2242,4.0138,4.0138,0,0,1,.2161-.58,1.0336,1.0336,0,0,1,.1542-.2922,2.6307,2.6307,0,0,0,.2785-.4182,2.4172,2.4172,0,0,1,.3233-.3936c.0431-.0478.09-.0916.1373-.1352a2.7232,2.7232,0,0,1,.4209-.3015c.1237-.0518.222-.1473.3439-.2026a2.7122,2.7122,0,0,1,.3959-.135c.2477-.09.5163-.0877.764-.177a1.6506,1.6506,0,0,0,.4145-.0994,2.1394,2.1394,0,0,0,.4153-.1022,2.3973,2.3973,0,0,0,.4918-.1023,2.1031,2.1031,0,0,0,.4973-.1,2.0634,2.0634,0,0,0,.5041-.1017,2.2148,2.2148,0,0,0,.5154-.1052,2.2813,2.2813,0,0,0,.6864-.0984,2.6965,2.6965,0,0,0,.707-.1,2.5815,2.5815,0,0,0,.8135-.1147,4.33,4.33,0,0,0,1.2084-.1106C25,41.6229,25.48,41.4291,25.9052,41.7115Z"/><path class="j" d="M17.9086,46.8008c.0346.3068.3861.2844.5138.4947.6488.879,1.51,1.5593,2.2211,2.3781.211.2429.0851.3952-.2394.3291a2.2208,2.2208,0,0,1-.81-.2921c-.1924-.4875-.6712-.7211-.979-1.1046a23.05,23.05,0,0,1-1.9024-2.6687c-.164-.2772-.3407-.5983-.0139-.9041.2192-.1253.3869-.0751.46.1676a5.25,5.25,0,0,0,.6838,1.1328C17.955,46.4762,17.7787,46.66,17.9086,46.8008Z"/><path class="k" d="M17.9086,46.8008c-.0494.0426-.0967.1172-.1486.12-.0843.0053-.0906-.0782-.07-.145.0385-.1266.0837-.2513.1262-.3767-.1409-.1947-.02-.362.0547-.5343a3.3515,3.3515,0,0,1,.4142-.6227,2.2279,2.2279,0,0,1,.257-.3162,2.6049,2.6049,0,0,1,.26-.2251,2.9026,2.9026,0,0,1,.6215-.3155c.2189-.09.4581-.1082.6784-.1937a2.4065,2.4065,0,0,0,.4133-.1037,1.7813,1.7813,0,0,0,.42-.1061c.2927-.0443.5776-.1232.8638-.1962a2.23,2.23,0,0,0,.5086-.1,1.7783,1.7783,0,0,0,.5115-.1,2.05,2.05,0,0,0,.5941-.1029,2.25,2.25,0,0,0,.6053-.1049,2.6174,2.6174,0,0,0,.6971-.1029,5.0033,5.0033,0,0,0,.8822-.0771.3633.3633,0,0,1,.2971.1218c.0882.362-.1992.2682-.3663.2863a52.8824,52.8824,0,0,0-5.2376.9278A2.8917,2.8917,0,0,0,18.01,46.5743C17.9823,46.652,17.9426,46.7254,17.9086,46.8008Z"/><path class="d" d="M25.88,59.96l-.4984.026a1.9322,1.9322,0,0,1-1.0388.0408c-.2211-.5024.1623-.9054.2341-1.36.0363-.23.1053-.5024.4263-.54.95-.0037.9579-.0036.9455.9653A1.7283,1.7283,0,0,1,25.88,59.96Z"/><path class="l" d="M18.9046,46.595c.1436.7981.8,1.241,1.31,1.749a8.57,8.57,0,0,0,1.0824,1.0216,4.1263,4.1263,0,0,1,.9425.7953c.1276.1633.5021.1329.6959.35-.1082.1249-.2363.0572-.34.093a3.74,3.74,0,0,1-1.2012-.2964c-.679-.8845-1.65-1.4818-2.3243-2.3753a1.2091,1.2091,0,0,1-.3492-.9312A.6636.6636,0,0,1,18.9046,46.595Z"/><path class="m" d="M16.7252,45.1046a.5638.5638,0,0,0,.07.6921,15.4819,15.4819,0,0,0,2.4434,3.1746c.2178.19.486.3738.3551.7393a2.396,2.396,0,0,1-.7793-.3113,2.9936,2.9936,0,0,1-.789-.8917,18.694,18.694,0,0,0-1.24-1.8455,2.3759,2.3759,0,0,1-.46-1.1581,1.542,1.542,0,0,1,.3149-.6939C16.8467,44.8571,16.8025,44.9761,16.7252,45.1046Z"/><path class="n" d="M23.6818,50.8034l.3161-.0311a.811.811,0,0,0-.5771-.5471,5.3423,5.3423,0,0,1-1.5082-1.015c-.1718-.131-.2922-.3068-.5292-.3648-.1686-.0413-.274-.1882-.0683-.35a.2971.2971,0,0,0,.3859-.2044c.0942-.0524.1923.0125.1867.073-.0217.2382.1953.2342.306.3359a5.8948,5.8948,0,0,0,1.4614,1.0666c.456.2682.8715.5984,1.3275.8672a.26.26,0,0,1,.124.2824,1.8229,1.8229,0,0,1-.7261-.0139A1.48,1.48,0,0,1,23.6818,50.8034Z"/><path class="o" d="M18.7206,47.0007a6.0953,6.0953,0,0,0,1.6809,2.0628,4.6448,4.6448,0,0,1,1.121,1.14c.0406.0751-.0732.0819-.1285.1041a3.1141,3.1141,0,0,1-.99-.3044c.1135-.0509.3885-.0344.1452-.2581-.4946-.4546-.9582-.941-1.4585-1.3911a1.9433,1.9433,0,0,1-.6684-1.058C18.6616,47.3386,18.6029,47.0805,18.7206,47.0007Z"/><path class="p" d="M22.1129,48.6967c-.3348.0655-.2376-.3079-.4119-.4056a1.1589,1.1589,0,0,1,.2892-.6018.1121.1121,0,0,1,.1274-.0148,1.095,1.095,0,0,0,.309.4783,11.9986,11.9986,0,0,0,3.3493,2.1747c.0617.04.0832.1111.1268.1652l-.1011.3a.4047.4047,0,0,1-.5826.0078c-.699-.5285-1.51-.8786-2.2108-1.4051C22.7054,49.1673,22.4105,48.9306,22.1129,48.6967Z"/><path class="q" d="M20.902,48.0966c-.0651.0831-.1288.2333-.1956.2348-.126.0026-.0718-.1453-.0876-.2323a.5549.5549,0,0,1-.0111-.25,2.9138,2.9138,0,0,0,.0772-.3094,1.0845,1.0845,0,0,1,.2205-.4011c.1436-.19.2686-.3926.4129-.582.0725-.081.1515-.1559.2244-.2368a1.76,1.76,0,0,1,.2546-.2115c.135-.08.276-.1492.4137-.2251a4.5067,4.5067,0,0,1,.59-.1929,1.9476,1.9476,0,0,0,.4018-.1,1.8927,1.8927,0,0,0,.4041-.1019,2.1017,2.1017,0,0,0,.41-.1019,1.8589,1.8589,0,0,0,.4893-.1006,2.1116,2.1116,0,0,0,.5-.1053,2.3206,2.3206,0,0,0,.4485-.1032.5031.5031,0,0,1,.4541.123c.0569.3084-.2026.2485-.352.2829-.7249.1668-1.4473.36-2.1818.4667A2.9366,2.9366,0,0,0,20.902,48.0966Z"/><path class="r" d="M16.088,47.9159c.12-.3783-.2049-.5827-.3529-.8441a20.4893,20.4893,0,0,1-1.165-2.3056.3924.3924,0,0,1,.0594-.46c.234.0948.21.3955.4128.5155a.4322.4322,0,0,1,.0708.1178c.0588.1824-.0189.4232.2264.526a.3319.3319,0,0,1,.08.1114,1.6748,1.6748,0,0,0,.46.8349.6288.6288,0,0,1,.1106.1695.6575.6575,0,0,0,.3464.5141c.4062.3681.604.912,1.053,1.2445a.285.285,0,0,1,.0658.2047c-.0591.1162-.1461.1182-.2477.06A3.5864,3.5864,0,0,1,16.088,47.9159Z"/><path class="s" d="M22.1126,47.6991l-.1224-.01a.9848.9848,0,0,1,.4016-.5c.0821-.0444.1313.0029.1766.0624a4.2023,4.2023,0,0,0,1.762,1.595,6.2041,6.2041,0,0,0,1.3682.7756c.2534.0764.1587.3176.1107.5077a.4122.4122,0,0,1-.4687.0157,16.1378,16.1378,0,0,1-3.059-2.1036A.6184.6184,0,0,1,22.1126,47.6991Z"/><path class="t" d="M22.5121,47.3l-.12-.11a.6541.6541,0,0,1,.3983-.3c.3255.0688.47.3669.6964.5586a9.49,9.49,0,0,0,2.332,1.525.276.276,0,0,1,.0348.1373,1.1045,1.1045,0,0,1-.0181.29c-.168.2667-.4017.15-.5694.0466a12.797,12.797,0,0,1-2.5314-1.8262C22.6426,47.5269,22.53,47.4455,22.5121,47.3Z"/><path class="u" d="M17.4231,48.4975l-.1-.1a13.5963,13.5963,0,0,0-.9787-1.3406c-.4454-.4906-.485-.7349-.2443-1.1637.2268-.0537.2676.1357.3469.27a18.9461,18.9461,0,0,0,1.6749,2.3338,5.3576,5.3576,0,0,0,.8028.8c.0588.0373-.0556.0818-.11.1022a5.2408,5.2408,0,0,1-1.4064-.6921C17.433,48.6386,17.4812,48.5718,17.4231,48.4975Z"/><path class="v" d="M19.51,59.4829c.4853-.11.4383-.5934.5846-.91.1826-.3958.3171-.7612.8211-.79.1743-.13.3268-.0213.483.0439.034.0392.0579.1168.0287.13-.5159.23-.4871.7743-.6546,1.1867-.16.3943-.358.5578-.7667.4421A.7758.7758,0,0,1,19.51,59.4829Z"/><path class="w" d="M25.88,59.96c.01-.49.0053-.9815.0363-1.4705.0191-.3007-.1068-.3671-.3714-.3367-.2106.0242-.4246.0193-.6371.0273a1.94,1.94,0,0,1-.2637.1333c-.3459.11-.282.4518-.3848.6957-.1451.3445-.1375.7552-.4514,1.0265a.666.666,0,0,1-.3837.0086c-.2412-.1323-.2248-.3433-.1532-.5553.1565-.4638.2471-.9476.4312-1.4027.4022-.0123.1519.3129.2654.5223.1025-.5611.4912-.5474.8955-.5455,1.1481.0053,1.1562-.0012,1.1417,1.1521C26.002,59.4635,26.1278,59.7478,25.88,59.96Z"/><path class="x" d="M22.5121,47.3A20.1915,20.1915,0,0,0,25.29,49.316a.5217.5217,0,0,0,.514.0795c.0731.0465.0326.1487.0977.199l.001.8982-.0983-.1a.2112.2112,0,0,1,0-.2992c.0265-.2016-.0409-.2947-.25-.3927a8.7949,8.7949,0,0,1-2.8934-2.0084C22.5686,47.59,22.3347,47.5152,22.5121,47.3Z"/><path class="y" d="M24.0089,53.4669l.8873.1263a1.9019,1.9019,0,0,1-.4594,1.7321.3659.3659,0,0,1-.1645.0073,3.5671,3.5671,0,0,1-.967-.0555.1155.1155,0,0,1,.0159-.1376,1.4717,1.4717,0,0,0,.6572-1.61Z"/><path class="z" d="M18.4119,45.2985l-.3987.6009c-.3017.14-.3362-.1633-.4054-.2942a4.9892,4.9892,0,0,0-.475-.8672c-.1576-.1943-.0317-.3742.0528-.5521a.8456.8456,0,0,1,.5153-.287c.0995-.0528.2379-.0563.2467.0529C17.9872,44.444,18.3721,44.8114,18.4119,45.2985Z"/><path class="aa" d="M22.1129,48.6967a1.3282,1.3282,0,0,1,.715.4152,12.1939,12.1939,0,0,0,2.1364,1.3094c.2733.1362.4224.5545.8374.3709.0515.098.2281.2474-.061.2343a4.871,4.871,0,0,1-1.36-.1242h.7485c-.7709-.4962-1.4037-.9414-2.0747-1.3185-.3129-.1758-.4919-.5369-.896-.5852C22.0035,48.98,22.1269,48.8011,22.1129,48.6967Z"/><path class="ab" d="M17.1856,44.1859c-.0571.56.45.8808.6028,1.3584.023.0717-.013.3528.2249.3552l-.1973.5a1.8624,1.8624,0,0,1-.772-1.0817c-.0575-.229-.1315-.2614-.3188-.2133a.3511.3511,0,0,0-.0847-.2945A1.1766,1.1766,0,0,1,17.1856,44.1859Z"/><path class="ac" d="M18.1222,48.4967c-.1619.096-.2668-.0347-.3337-.1254-.3394-.46-.6648-.93-.9861-1.4021-.2337-.3436-.4535-.6967-.6794-1.0455-.0717.013-.0985-.0215-.0943-.089.2606.0349.169-.2465.2969-.3307.3339.0426.1157.3436.2323.5189.4261.6406.8382,1.289,1.3107,1.8986A.782.782,0,0,1,18.1222,48.4967Z"/><path class="ad" d="M25.8046,48.996a.3117.3117,0,0,1-.3245.0214,13.4378,13.4378,0,0,1-2.5628-1.8737A.888.888,0,0,1,22.79,46.89l.2-.0965c.1682-.0868.2825.0026.39.1182a10.0387,10.0387,0,0,0,2.4625,1.8061C25.8513,48.8131,25.8769,48.9113,25.8046,48.996Z"/><path class="ae" d="M25.9026,47.6987l-.0011.5985c-.1255.0362-.17-.0553-.2193-.1384a12.1956,12.1956,0,0,0-1.219-1.03c-.1922-.1782-.429-.3224-.3821-.64a.6462.6462,0,0,1,.401-.0963.35.35,0,0,1,.3763.0116C25.2874,46.7676,25.9033,46.9873,25.9026,47.6987Z"/><path class="af" d="M16.0287,45.8347l.0943.0889a.9924.9924,0,0,0,.3494,1.0631c.3235.3372.5074.77.8143,1.1154.0749.0844.1691.1794.0367.2955a1.9521,1.9521,0,0,1-.8026-.8866.79.79,0,0,0-.2946-.3108,2.9333,2.9333,0,0,1-.2994-.5986l-.1-.1a3.3553,3.3553,0,0,1-.4989-.898q0-.05,0-.1c.0041-.0626.0616-.0711.1-.099l.1812-.0989C15.6617,45.5517,15.9019,45.6483,16.0287,45.8347Z"/><path class="ag" d="M21.0137,62.3727a36.0233,36.0233,0,0,0,4.295.1074c.07.093.3234.2168-.0425.2334-.2869.0131-.5734.0335-.86.0506a15.2842,15.2842,0,0,0-1.9258-.0494h-.4875a7.92,7.92,0,0,0-1.1741-.0248.1783.1783,0,0,1-.0478-.1961C20.8209,62.3918,20.9452,62.4381,21.0137,62.3727Z"/><path class="ah" d="M7.5456,51.59c-.3133-.0615-.4019.1154-.4318.3847a3.6351,3.6351,0,0,0,.3712,1.8668c.2061.4745.45.9326.6772,1.398a.1077.1077,0,0,1,.0031.1439.3269.3269,0,0,1-.413-.1866,4.0506,4.0506,0,0,1-.83-2.3294,4.72,4.72,0,0,1-.0459-.8856c.0711-.4523.2831-.6942.7707-.5893Z"/><path class="ai" d="M25.8042,48.697c-.4.1909-.6145-.1838-.8543-.34a6.8685,6.8685,0,0,1-1.8211-1.5166c-.0246-.0323-.0913-.0326-.1384-.0478a.3744.3744,0,0,1,.3-.1c.2731-.1273.3941.12.5349.2477a9.0514,9.0514,0,0,0,1.8157,1.3221C25.8263,48.3616,25.9232,48.4869,25.8042,48.697Z"/><path class="aj" d="M25.9026,47.6987a2.8831,2.8831,0,0,0-1.42-1.3067q.5456-.1332,1.0911-.2665c.2576-.0636.3575.0357.3473.299C25.9042,46.8488,25.9076,47.2739,25.9026,47.6987Z"/><path class="ak" d="M25.8924,38.5334l-1.2855-.1109c-.08-.4575-.0206-.5372.597-.7955C25.9549,37.6228,25.9549,37.6228,25.8924,38.5334Z"/><path class="al" d="M18.4351,40.7241a2.7262,2.7262,0,0,1-.907.1934.3167.3167,0,0,1-.4591-.1462c-.1913-.2986-.0443-.5337.1322-.7661a.9172.9172,0,0,1,.4909-.1005c.336-.1153.5385-.0119.5933.3524C18.31,40.42,18.4255,40.5553,18.4351,40.7241Z"/><path class="am" d="M21.4291,46.6115l-.4146.588c-.1826.0567-.2832-.0776-.37-.1868a11.0722,11.0722,0,0,0-.7359-.8693.6046.6046,0,0,1-.1064-.6466c.094-.1408.2664-.1273.3947-.2.0969-.0484.2146-.0691.242.0553a1.4927,1.4927,0,0,0,.95,1.1228C21.4232,46.4886,21.4234,46.5626,21.4291,46.6115Z"/><path class="r" d="M14.4291,42.31a2.4054,2.4054,0,0,1-.4817.7928c-.1715-.5845-.0911-1.15-.2107-1.6868a.8346.8346,0,0,1,.3648-.4161.8787.8787,0,0,1,.3836,1.0362C14.45,42.1253,14.3763,42.2032,14.4291,42.31Z"/><path class="an" d="M25.9087,45.2l-.4693.0189c-.3127.1064-.3971-.1773-.536-.3356a1.2482,1.2482,0,0,1-.3261-.4931,3.83,3.83,0,0,1,.38-.0828C25.9356,44.1919,25.9358,44.1934,25.9087,45.2Z"/><path class="ao" d="M14.4291,42.31a6.7622,6.7622,0,0,1-.121-.85.5341.5341,0,0,0-.2066-.46,1.0185,1.0185,0,0,1,.6056-.3935c.27-.106.3264.0722.3266.27a5.1717,5.1717,0,0,1-.0064.8358C14.8757,41.9588,14.5482,42.03,14.4291,42.31Z"/><path class="ap" d="M19.8024,45.4968c.1613.74.8266,1.1219,1.2121,1.7027-.0425.1454-.212.2252-.2045.3963-.1951.0517-.2463-.1183-.3294-.2243a5.1521,5.1521,0,0,0-.9344-.9167.3269.3269,0,0,1-.1184-.2359c-.0461-.2763.1443-.4521.2781-.6522Z"/><path class="aq" d="M25.9052,41.7115l-1.3647.0124a.4255.4255,0,0,1-.3327.03c-.1578-.0693-.4351.2339-.4921-.2223-.05-.3985.0344-.5453.41-.56.2471-.0152.4947-.0054.7421-.0062.0807,0,.2279-.0047.2213.0564-.06.5593.4078.3639.6582.4746a.6824.6824,0,0,1,.1591.1158Z"/><path class="ar" d="M25.8042,48.697c-.02-.0775-.0179-.2058-.0628-.2251A11.0851,11.0851,0,0,1,23.29,46.6932a.5965.5965,0,0,1,.3834-.104c.0782-.0267.177-.0682.2306.0042a6.6621,6.6621,0,0,0,1.9,1.5049l.0972.1989.0014.7988q-.05.09-.0979-.0008l0-.0992Z"/><path class="as" d="M21.4291,46.6115c-.0137-.0089-.0292-.0275-.0407-.0253-.6091.1192-.6128-.5561-.9821-.746-.2428-.1248.0772-.4476-.2092-.5438a.5789.5789,0,0,1,.3778-.1065.2478.2478,0,0,1,.3408.1014c.2186.3847.5195.7168.7111,1.1185Z"/><path class="at" d="M25.906,41.6126q-.249,0-.498,0c-.5916-.0007-.5916-.0007-.411-.5933h-.8947a1.0945,1.0945,0,0,1-.5393.0391l-.0535-.0588a7.92,7.92,0,0,1,2.1695-.0718C26.1046,40.952,25.8454,41.3735,25.906,41.6126Z"/><path class="au" d="M22.8227,45.8111l-.6052.196c-.371-.0912-.5055-.4146-.6382-.7078a1.7841,1.7841,0,0,0-.199-.3117,2.4314,2.4314,0,0,1,.827-.1843c.1075-.08.2308-.0366.3472-.0442C22.4959,45.1475,22.8031,45.4426,22.8227,45.8111Z"/><path class="av" d="M20.0056,59.585c.7143.0476.7344-.6576.7822-.9839.0693-.4721.2975-.58.6263-.7087a.0924.0924,0,0,1,.1228-.0135,4.4033,4.4033,0,0,1-.4986,1.65.33.33,0,0,1-.4484.1594A.9006.9006,0,0,1,20.0056,59.585Z"/><path class="aw" d="M21.1141,54.8836a2.2138,2.2138,0,0,1,.799-1.6934c.2272-.1721.39-.0935.5137.1321a2.3225,2.3225,0,0,0-.6489,1.4346.2012.2012,0,0,1-.13.19,1.1,1.1,0,0,1-.3672-.05Z"/><path class="ax" d="M25.8043,48.0983a3.3157,3.3157,0,0,1-1.9976-1.4553c-.02-.0328-.0875-.0365-.133-.0538a.6606.6606,0,0,1,.4074-.101,5.2086,5.2086,0,0,0,1.58,1.3227C25.7945,47.88,25.7972,47.9825,25.8043,48.0983Z"/><path class="ay" d="M23.1086,58.0809l.2964.0077a.2676.2676,0,0,1,.1886.3491,11.5336,11.5336,0,0,1-.5077,1.5723,3.2139,3.2139,0,0,1-.8623-.0271.1155.1155,0,0,1-.0134-.141.7966.7966,0,0,0,.45-.5831A2.528,2.528,0,0,1,23.1086,58.0809Z"/><path class="az" d="M20.59,59.6882a.8848.8848,0,0,0,.5858-.8247c-.0175-.409.2167-.6523.3374-.9683a.1112.1112,0,0,1,.1189-.0687.6708.6708,0,0,1,.4919.1269.1739.1739,0,0,1-.0568.1955c-.3218.1759-.3241.5181-.3953.8106a1.6949,1.6949,0,0,1-.4179.8594c-.1445-.0124-.2954.0419-.4325-.043Z"/><path class="ba" d="M17.2012,40.0052c.1558.0288.122.0631.0385.174-.2448.325-.133.5874.2884.7383a2.4493,2.4493,0,0,1-.8975.1994c-.2588.1187-.35.0165-.3514-.2471a1.8879,1.8879,0,0,0,.011-.6716C16.57,40.02,16.9212,40.1813,17.2012,40.0052Z"/><path class="bb" d="M25.6377,43.3258a2.7178,2.7178,0,0,1-.8942.0955c-.3112.0955-.5426.0465-.5935-.3284a2.5014,2.5014,0,0,0-.1691-.3966,3.41,3.41,0,0,1,1.1037-.0943c.1389-.051.3346-.1068.4.0169.1042.1978-.171.3225-.1749.5509C25.389,43.2269,25.5758,43.1634,25.6377,43.3258Z"/><path class="ar" d="M20.937,40.3266a1.58,1.58,0,0,1-.7079.0944c-.2624.082-.4958.1159-.4279-.2875.0306-.182-.1062-.25-.2123-.3426a.2734.2734,0,0,1-.09-.1866,1.8362,1.8362,0,0,1,.7774-.1c.6012-.0728.7426.0674.5529.6611C20.7649,40.3673,20.9919,40.2248,20.937,40.3266Z"/><path class="bc" d="M22.1936,39.3055a11.5275,11.5275,0,0,1,2.2158-.0808c.1549.0964.3347.0039.4938.0652l.018.0421c-.1769.1633-.3189.3344-.1523.5871a.2909.2909,0,0,1-.158.1306,2.7712,2.7712,0,0,1-.3949.0171c-.2672.0194-.5044.01-.4994-.358.0018-.1345-.0989-.2-.2236-.2276-.2131-.0469-.4242.0581-.6362.0048C22.636,39.4241,22.3664,39.541,22.1936,39.3055Z"/><path class="bd" d="M15.0273,41.7116c-.2377-.2094-.1568-.4857-.1413-.74.01-.1688.07-.3346-.1789-.3656a3.2718,3.2718,0,0,1,1.02-.2823,8.4244,8.4244,0,0,1-.2,1.09Z"/><path class="be" d="M22.1936,39.3055l.7051.0225c.035.1265-.06.1617-.1428.2062-.1769.0743-.5229.0541-.2176.3938a1.4224,1.4224,0,0,0,.3311.0649.26.26,0,0,1,.1657.1387,4.6117,4.6117,0,0,1-1.1991.0945,1.0634,1.0634,0,0,1-.4915.0329c-.1407-.0053-.1641-.084-.0833-.1953.1446-.1317.42-.217.1719-.4867-.1262-.0348-.2718-.03-.342-.1719A4.1951,4.1951,0,0,1,22.1936,39.3055Z"/><path class="bf" d="M18.4119,45.2985a1.9236,1.9236,0,0,1-.5687-1.2969c.0026-.03-.0926-.0683-.1423-.1027a.3759.3759,0,0,1,.3-.0988c.2143-.0817.3857-.0694.394.2133.0036.1246.0879.1553.1681.2024.1285.1044.2647.2073.1151.3925-.0045.0411-.1151.0008-.0651.0552a.2588.2588,0,0,1,.0121.3546Z"/><path class="bg" d="M24.6105,40.0125l.0964-.0959a3.5776,3.5776,0,0,0,.4809-.4876.29.29,0,0,1-.2826-.11c-.1679-.0173-.3518.0483-.4958-.0945.2938-.001.5877-.007.8814-.0019.6343.011.6347.0133.6221.6607-.0016.0814-.0117.1627-.0179.244l-.3916-.0227C25.2144,39.99,24.897,40.1509,24.6105,40.0125Z"/><path class="bh" d="M18.4351,40.7241a.4149.4149,0,0,1-.34-.4624c.0551-.3811-.1864-.3337-.4027-.357a4.5744,4.5744,0,0,1,1.187-.2031.477.477,0,0,1,.2044-.0269c.16.1685-.0652.2382-.0937.3586-.0465.1958-.1787.3823-.0495.5924A.8725.8725,0,0,1,18.4351,40.7241Z"/><path class="bi" d="M16.0232,44.0058c-.0765.15-.1243.3212-.2965.4a.2981.2981,0,0,1-.392-.2659,4.9231,4.9231,0,0,1-.2313-1.1411.7043.7043,0,0,1,.294-.3035c.2911-.0485.3475.1758.4121.37C15.9111,43.3714,15.9512,43.6926,16.0232,44.0058Z"/><path class="bj" d="M20.5116,62.79a.5756.5756,0,0,1-.3815.0739q-2.9554.0008-5.911,0a.6543.6543,0,0,1-.3849-.0659l.052-.0811a.6406.6406,0,0,1,.4268-.0983q2.883-.0059,5.7662,0a.8489.8489,0,0,1,.2939.0419A.283.283,0,0,1,20.5116,62.79Z"/><path class="j" d="M16.0232,44.0058c-.2834-.0949-.2333-.361-.3012-.5713-.0828-.2561-.0142-.5822-.3246-.7389a.7043.7043,0,0,1,.4088-.2927c.0942-.0467.23-.0674.2386.0475.03.4049.2708.7542.2833,1.16Z"/><path class="bk" d="M24.4161,55.2706a6.4944,6.4944,0,0,0,.48-1.6774c.2817-.0333.4645.0032.3341.3669-.155.4328-.28.8764-.4178,1.3154A.2528.2528,0,0,1,24.4161,55.2706Z"/><path class="bl" d="M23.9809,42.6963c.1869.021.4119-.0216.3355.31-.0784.3412.14.424.4269.4145a1.6227,1.6227,0,0,1-.71.0975c-.3105.1144-.5087.0219-.5835-.3107a.3936.3936,0,0,0-.1594-.2424.331.331,0,0,1-.2022-.1671A2.5079,2.5079,0,0,1,23.9809,42.6963Z"/><path class="bm" d="M21.6268,46.41c-.4735-.1943-.5572-.7077-.8474-1.0527-.0641-.0763-.0994-.1535-.2044-.1672a.4578.4578,0,0,1,.3307-.0885c.256-.1083.4542-.0709.5411.2238.0933.3164.5641.4739.3805.906Z"/><path class="bn" d="M8.5528,47.0279a2.5256,2.5256,0,0,0,.0924,1.6272c.2362.5645.4764,1.1274.7149,1.6909a.1358.1358,0,0,1-.0377.1853,6.0946,6.0946,0,0,1-1.011-2.2392l.0224-.165a1.6274,1.6274,0,0,1-.0014-.76c-.0035-.1917-.03-.3934.2125-.4753Z"/><path class="bo" d="M20.49,37.7065a5.3536,5.3536,0,0,1,1.301-.1,3.119,3.119,0,0,1,.7116-.0346c.2494.1445.0653.2328-.058.2486-.2074.0266-.3117.085-.332.3167-.0248.2839-.3039.2491-.4942.3186-.3229.0656-.5163-.0042-.4252-.3925.0392-.1673-.0829-.1863-.2068-.1939C20.8078,37.8538,20.61,37.9,20.49,37.7065Z"/><path class="bp" d="M18.6208,44.6061c.0969-.1434-.033-.2108-.1-.2992-.24-.32-.0134-.5045.2-.693a.0594.0594,0,0,1,.0752-.0151c.1874-.0648.3689-.0888.3982.1751.029.2617.2607.4563.2268.7341l-.5864.31C18.64,44.8723,18.6976,44.6711,18.6208,44.6061Z"/><path class="bq" d="M17.1263,39.0244c-.144.1366-.3259.0836-.4942.0992-.288.1175-.4652.06-.46-.29.0028-.1725-.1408-.2832-.1864-.4354.3093-.1719.68-.0249.99-.19a.4075.4075,0,0,1,.3415.002.15.15,0,0,1,.02.1285.5514.5514,0,0,0-.21.6206Z"/><path class="br" d="M21.414,40.116a.1423.1423,0,0,0-.0477.0119c-.07.0492-.0327.0782.0242.082.1481.01.2968.0113.4454.0162a2.5257,2.5257,0,0,1-.899.1c-.3912.0729-.2784-.2955-.2458-.3859.1692-.4686-.1311-.432-.4144-.436a2.1775,2.1775,0,0,1,.8144-.0995l.5163.0176A1.6839,1.6839,0,0,0,21.414,40.116Z"/><path class="bs" d="M23.1086,58.0809a13.2372,13.2372,0,0,1-.3737,1.4669c-.0659.2941-.2584.3478-.5149.3095a3.3575,3.3575,0,0,1,.598-1.7992Z"/><path class="bt" d="M15.986,38.3987c.2465.04.4574.07.325.4342-.0663.1825.0728.3468.3211.2906a2.44,2.44,0,0,1-.9017.1966c-.2252.1061-.2458-.033-.2339-.2a1.13,1.13,0,0,0,.0005-.6153A.9427.9427,0,0,1,15.986,38.3987Z"/><path class="bu" d="M18.724,42.6121a.5262.5262,0,0,1-.3984.1005c-.5472.16-.47-.3028-.581-.578-.0292-.0955-.1266-.1478-.1579-.2423a2.6284,2.6284,0,0,1,1.1306-.1652A4.2637,4.2637,0,0,0,18.724,42.6121Z"/><path class="bv" d="M19.4212,44.508c-.1892-.2233-.42-.4145-.358-.7709.0281-.1621-.1678-.1052-.267-.1383a.6466.6466,0,0,1,.4068-.0962c.2715-.1078.4659-.0544.5535.2513.0639.2231.2618.3614.3706.5572A2.0911,2.0911,0,0,1,19.4212,44.508Z"/><path class="bw" d="M18.2105,37.31a3.2129,3.2129,0,0,0-1.1864-.0623q-.8264.0811-1.6543.1423a4.0989,4.0989,0,0,0-.7264.0073c-.1454-.0361-.3074-.0276-.4215-.1512l-1.392-.0289a.5787.5787,0,0,1,.4264-.0818q2.6294-.0015,5.2588.0009a.1.1,0,0,1-.0009.1714Z"/><path class="bx" d="M22.818,58.0581a9.73,9.73,0,0,1-.5981,1.7993l.005.0316a2.1336,2.1336,0,0,1-.5978.0314.1813.1813,0,0,1-.1363-.0478.1721.1721,0,0,1,.0248-.1385.5444.5444,0,0,1,.2521-.1256c.4121-.3665.4181-.9038.5789-1.3747-.0222-.028.12-.0724-.0211-.1005-.1461-.0291-.2021-.1213-.0448-.2329a.3122.3122,0,0,1,.3311.0746Z"/><path class="by" d="M22.4178,53.3826a.6583.6583,0,0,0-.5047-.1924l-.2987-.0184c-.0467-.3274.161-.2267.3279-.1949.8514.2256,1.734.2472,2.5972.3954-.1716.0609-.3709-.0336-.5306.0946l.0066.0432a.3309.3309,0,0,1-.1872.1086.9893.9893,0,0,1-.1457.0136c-.0971-.0005-.1943-.0005-.2915-.0032a1.1981,1.1981,0,0,1-.43-.0762c-.1653-.0418-.351.0082-.5-.11Z"/><path class="bz" d="M16.29,40.1982c.2728.1886.2093.4889.15.713-.0685.26.0815.1826.19.2056a1.6279,1.6279,0,0,1-.703.1935c-.3979-.2923-.055-.67-.1161-1.0016A.8767.8767,0,0,1,16.29,40.1982Z"/><path class="ca" d="M9.9663,42.623a3.65,3.65,0,0,0,.3382,2.1206,1.184,1.184,0,0,1,.1416.6658l-.1139-.0032a2.1646,2.1646,0,0,1-.1913-.4041l-.4141-1.2983c.04-.3692-.1053-.7548.0995-1.1093Z"/><path class="cb" d="M21.8273,46.2312c-.0959-.4328-.5768-.6414-.6459-1.0965-.0037-.0245-.18-.0228-.2757-.0333a.8681.8681,0,0,1,.4747-.1138c.1111.0594.3109-.1006.309.2429-.0016.2788.4139.4652.5281.7766Z"/><path class="cc" d="M25.6377,43.3258c-.1651-.07-.4757.0833-.4863-.11-.0089-.1629-.1035-.4928.3958-.578l-.4625-.0359c.8128-.21.8722-.1577.81.7174Z"/><path class="cd" d="M14.1316,39.7184c-.12.112-.2933.2736-.41.1375a.4962.4962,0,0,1-.1-.5314c.0483-.0986.18-.1894.0684-.325.1477-.1366.3514-.1171.5228-.1875.24-.0978.3126.0339.2652.23A1.0692,1.0692,0,0,1,14.1316,39.7184Z"/><path class="ce" d="M22.3282,43.8148a.8922.8922,0,0,1-.4982.1005c-.5509.0625-.8477-.3173-.6386-.8175a1.19,1.19,0,0,1,.59-.1014.58.58,0,0,1,.2782-.0327C22.1076,43.2605,21.9986,43.6069,22.3282,43.8148Z"/><path class="ad" d="M20.63,42.2186a.854.854,0,0,1-.505.0958c-.385.1449-.5181-.0127-.4861-.3927.012-.1428.1445-.31-.0574-.427a1.0055,1.0055,0,0,1,.5138-.09c.2369-.0984.3858-.0331.4181.232C20.5374,41.8339,20.6051,42.0219,20.63,42.2186Z"/><path class="cf" d="M17.1264,43.0245a.3517.3517,0,0,1-.3011.1854c-.2123.0307-.1688-.1527-.1935-.2536a1.8945,1.8945,0,0,0-.3272-.7542c.2423-.1672.5536-.0534.8017-.197.2363-.0757.4205-.09.2745.25C17.2734,42.5043,17.4032,42.8317,17.1264,43.0245Z"/><path class="cg" d="M24.5773,44.39c.3992.04.3748.4974.6511.6694.0661.0411.103.15.2108.1593a.6742.6742,0,0,1-.4231.09c-.2259.0613-.4245.1383-.4838-.232-.03-.1881-.3257-.2347-.4522-.4024-.08-.0442-.1638-.0839-.1957-.18A1.5954,1.5954,0,0,1,24.5773,44.39Z"/><path class="ch" d="M23.8844,44.4942l.32.0172c-.083.3652.2445.5863.3149.8976a.8423.8423,0,0,1-.49.104c-.3233.15-.2736-.2784-.481-.3093a.4472.4472,0,0,1-.0931-.0972,1.5213,1.5213,0,0,1-.1672-.5113A1.2489,1.2489,0,0,1,23.8844,44.4942Z"/><path class="ci" d="M14.1316,39.7184a1.6849,1.6849,0,0,1,.2133-.676c.1052-.1561-.007-.2-.1322-.23a.6178.6178,0,0,1,.3985-.1c.2313-.091.3867-.0587.35.236a2.5431,2.5431,0,0,0,.0674.5692A3.3965,3.3965,0,0,1,14.1316,39.7184Z"/><path class="cj" d="M16.3046,42.2021c.5888.0189.3087.5649.4973.8275.0311.0433.0168.1193.0234.18l-.3985.3c-.2733-.0994-.173-.3656-.2334-.5538-.0688-.2146-.03-.4613-.1873-.6534A.3674.3674,0,0,1,16.3046,42.2021Z"/><path class="ck" d="M18.79,37.9047a2.1228,2.1228,0,0,1,.7856-.0956c.1947-.0152.48-.1723.5461.0872a.5062.5062,0,0,1-.4018.6674.6776.6776,0,0,0-.22.0951c-.4973.0344-.386-.2986-.3535-.5837a.0772.0772,0,0,1,.0753-.0491l.0068-.0074C19.075,38.0075,18.8941,38.1032,18.79,37.9047Z"/><path class="cl" d="M23.1045,59.9519a3.8,3.8,0,0,1,.3016-1.31c.05-.1866.1553-.3686-.0011-.553l.2975-.0022c.1359.4442-.15.813-.22,1.22-.0374.2175-.2221.4159-.0775.6549-.0467.0723-.1184.064-.1892.0585A.1171.1171,0,0,1,23.1045,59.9519Z"/><path class="bs" d="M20.9276,44.1134a.6007.6007,0,0,1-.4036.0971c-.2967.1241-.4774-.0243-.6-.2711-.0882-.1778-.1408-.3725-.2388-.5469a.9087.9087,0,0,1,.4824-.096c.33-.1063.5369-.0365.5288.3595a.426.426,0,0,0,.1635.34A.2761.2761,0,0,1,20.9276,44.1134Z"/><path class="cm" d="M18.94,40.6257c-.0839-.0286-.2813-.0363-.2268-.0993.1858-.2148-.1367-.5767.23-.712a1.5854,1.5854,0,0,0,.1717-.0876c.0735-.1134.224-.0106.3032-.108a.0719.0719,0,0,1,.08-.0145l.11.1127a.3891.3891,0,0,1-.0941.2377.6849.6849,0,0,0-.0671.43.4125.4125,0,0,1,.087.1394A1.1035,1.1035,0,0,1,18.94,40.6257Z"/><path class="cn" d="M20.63,42.2186c-.2057-.0189-.2371-.1233-.2458-.3271-.0074-.1734.0928-.5007-.2888-.4868a1.6565,1.6565,0,0,1,.6865-.1049.596.596,0,0,1,.2782-.0324c.0707.2824-.122.59.0838.86A.9821.9821,0,0,1,20.63,42.2186Z"/><path class="co" d="M20.9276,44.1134l-.1064-.012a2.8377,2.8377,0,0,0-.1427-.91,1.048,1.048,0,0,1,.5129-.0932c.0662.0295.2167-.0087.1965.0646-.14.5087-.0433.6888.442.7528A3.0044,3.0044,0,0,1,20.9276,44.1134Z"/><path class="cp" d="M19.5815,41.4947c.1854.018.3961-.0382.218.3052-.0868.1675-.1717.591.3255.5145a.7979.7979,0,0,1-.5.1c-.4564.03-.4564.03-.4637-.57-.04-.0928-.1448-.1411-.1675-.2446A1.21,1.21,0,0,1,19.5815,41.4947Z"/><path class="cq" d="M23.3378,41.8266a2.2959,2.2959,0,0,1-.8072.0946.2464.2464,0,0,1-.2028.0247c-.1171-.242.204-.2483.2257-.421.0223-.1776.1441-.385-.17-.4242a4.1383,4.1383,0,0,1,1.1259-.1013l-.01.0317C23.5168,41.3107,23.1862,41.52,23.3378,41.8266Z"/><path class="cr" d="M17.5005,38.1093a1.2378,1.2378,0,0,1,.5907-.0985c.2162-.0343.5437-.151.6082.0536.0652.2068-.1293.4824-.3578.6367a1.5975,1.5975,0,0,0-.2009.1353c-.481.1425-.3984-.2326-.45-.4855C17.6636,38.2421,17.5444,38.2046,17.5005,38.1093Z"/><path class="cs" d="M22.3836,41.1007l.4919.0228c-.257.2115.0041.792-.5615.7779-.214.1372-.2344-.0154-.2509-.1691-.0161-.15.0391-.335-.1948-.3706-.1458-.0141-.2994-.0076-.3829-.1636A2.5364,2.5364,0,0,1,22.3836,41.1007Z"/><path class="co" d="M19.5228,38.6086a.6758.6758,0,0,0,.4614-.7734l-.4088-.0261a2.8,2.8,0,0,1,.9151-.1026l.6164.02c.0286.1794-.1143.19-.226.2307-.3516-.0448-.4065.2879-.5793.4681-.0072.0076.0917-.001.1372.0228a.19.19,0,0,1,.0958.0818,2.4475,2.4475,0,0,1-.901.0989A.0646.0646,0,0,1,19.5228,38.6086Z"/><path class="ct" d="M15.1034,42.9991a1.5088,1.5088,0,0,1,.3119.885.6277.6277,0,0,0,.3114.522l-.101.2975c-.3191.0464-.421-.1723-.4909-.4145a1.4512,1.4512,0,0,0-.24-.624c-.056-.0766-.0167-.1743-.0566-.2547A.8335.8335,0,0,1,15.1034,42.9991Z"/><path class="cu" d="M22.6088,44.8074l-.4015-.0041a1.0551,1.0551,0,0,1,.5617-.11c.4191-.1728.5122.2412.7407.4114h0a.5437.5437,0,0,1,.1123.5066.602.602,0,0,1-.4031.096c-.33.14-.2542-.211-.3742-.321A.9887.9887,0,0,1,22.6088,44.8074Z"/><path class="cv" d="M22.1093,43.0134l-.3275-.0169a1.2011,1.2011,0,0,1,.6013-.0966c.3049-.0934.553-.05.67.2883.1313.38-.1815.4258-.4083.5348C22.0982,43.7644,22.1974,43.3181,22.1093,43.0134Z"/><path class="cw" d="M18.9937,41.5994c.113.0236.24.0055.3243.1127-.2549.224-.1922.5211-.1851.8054a.5816.5816,0,0,1-.4089.0946c-.0888-.017-.2732-.046-.2392-.0813.2265-.2344-.2189-.6538.2325-.8037C18.8136,41.6936,18.8632,41.5589,18.9937,41.5994Z"/><path class="cx" d="M15.8114,40.3087c.2859.0853.1133.3062.0954.4392a1.3,1.3,0,0,0,.0207.5624.6987.6987,0,0,1-.4.1029.9474.9474,0,0,1,.2-1.09A.0682.0682,0,0,1,15.8114,40.3087Z"/><path class="cy" d="M21.28,54.8964l.4317-.0164a4.1069,4.1069,0,0,1,.25-.902c.06-.1971.1725-.36.4192-.344a.2273.2273,0,0,1,.1016.0983,6.8739,6.8739,0,0,1-.2057,1.3922c-.2458-.073-.5047-.0741-.7519-.1388Z"/><path class="cz" d="M19.6854,43.3925c.2131-.0148.2364.1213.29.2923.08.2569.1721.5551.5487.5257a.5786.5786,0,0,1-.397.1c-.37-.0051-.5085-.3022-.5557-.5663-.05-.278-.2057-.2257-.3682-.2421A.9155.9155,0,0,1,19.6854,43.3925Z"/><path class="da" d="M25.2039,37.627c-.209.2577-.585.39-.597.7955l-.6953-.0125c.125-.52.3791-.76.8383-.7925l.0681-.0056Z"/><path class="db" d="M18.1249,38.8128a2.8044,2.8044,0,0,0,.5091-.7721l-.5427-.03a1.8789,1.8789,0,0,1,.6984-.1061c.1673.0132.3354.02.5015.0425.0633.0084.0635.0733.0079.038-.0135-.0086-.0523.0229-.0795.0359a1.3717,1.3717,0,0,0-.3759.71,1.1587,1.1587,0,0,1-.6113.0952A.0625.0625,0,0,1,18.1249,38.8128Z"/><path class="dc" d="M15.497,38.505c.1631.0012.2157.0342.22.2416.0038.1873-.2459.3976.0134.5735-.1108.1246-.2607.0915-.4.1-.3132-.0192-.2346-.2743-.2632-.4543-.0189-.1193.1-.2388.0185-.3668A.6591.6591,0,0,1,15.497,38.505Z"/><path class="dd" d="M15.0853,38.5986c.0564.0623.3087-.033.1907.123-.2135.2818,0,.4712.054.698a.3429.3429,0,0,1-.3014.0978c-.3786-.09-.2582-.4062-.2076-.6031.0713-.2772-.12-.1609-.21-.202A.8169.8169,0,0,1,15.0853,38.5986Z"/><path class="de" d="M23.2074,59.9781l.1975-.0164.4,0a.4327.4327,0,0,1,.2972-.1156.321.321,0,0,1,.2132.11l1.067.03a3.9556,3.9556,0,0,1-2.1763.0833q-.0529-.0313-.0347-.0616C23.1832,59.9881,23.1952,59.9781,23.2074,59.9781Z"/><path class="df" d="M17.1264,43.0245c.12-.3071-.06-.6677.1757-.9634.03-.0374-.1294-.0273-.1958-.056a.8972.8972,0,0,1,.48-.1128c.07.0573.23-.0626.2362.12-.1848.271-.0352.6536-.3.8979Z"/><path class="dg" d="M22.6136,43.7021c.0776-.1686.4468-.1151.3224-.4457a.4884.4884,0,0,0-.5527-.3564,1.7239,1.7239,0,0,1,.7052-.1015l.3154.0191a3.6415,3.6415,0,0,0,.0243.7994,1.2822,1.2822,0,0,1-.597.1008A.1651.1651,0,0,1,22.6136,43.7021Z"/><path class="dh" d="M10.0059,62.7466a.0687.0687,0,0,1,.0323-.0822c.1858-.22.4454-.1942.69-.1962.8935-.0072,1.7871-.0088,2.68.0172a.3883.3883,0,0,1,.4072.1013.152.152,0,0,1,.0232.1606.0467.0467,0,0,1-.0049.0512Q11.92,62.7727,10.0059,62.7466Z"/><path class="di" d="M16.0061,42.3025c.3709.08.2707.4089.3426.6469.0551.1825-.0574.3887.0781.56l-.0987.1006a1.5309,1.5309,0,0,1-.38-1.11c.0108-.0942-.0823-.0814-.1415-.0975A.2136.2136,0,0,1,16.0061,42.3025Z"/><path class="dj" d="M20.6785,43.191c.0672.05.2809-.0518.1952.1485-.12.2807.0006.4192.2739.5056l-.3265.2563c-.1865-.0575-.3167-.1072-.27-.3808.0336-.1955-.0077-.5088-.3834-.4242A.9753.9753,0,0,1,20.6785,43.191Z"/><path class="dk" d="M14.8382,43.41l.0912.1977c-.0048.4353.3065.8464.1,1.2972-.3573-.05-.313-.3682-.3994-.599l-.11-.2042A1.4058,1.4058,0,0,1,14.8382,43.41Z"/><path class="dl" d="M25.9137,55.29c-.1794.206-.4139.0209-.613.0863-.1032.0387-.1271-.0323-.1488-.107a9.0369,9.0369,0,0,1,.4806-1.5555l.061-.0435.1139.0345c.1241.2132-.0239.4251-.0029.6373.0176.2593-.1211.5084-.051.7709A.9866.9866,0,0,0,25.9137,55.29Z"/><path class="dm" d="M21.4854,41.1981l.5262.0176c-.155.28-.0351.7089-.4584.8429-.43-.0775-.2458-.5231-.4432-.74L20.782,41.3A1.752,1.752,0,0,1,21.4854,41.1981Z"/><path class="da" d="M22.6012,37.6324l-.81-.0255a11.7071,11.7071,0,0,1,3.0265.005l-.0262.0179c-.297.025-.58.1252-.8736.1675-.27-.0716-.5391.0466-.809.0053C22.9372,37.7543,22.7375,37.7871,22.6012,37.6324Z"/><path class="dn" d="M18.721,43.6139a1.7058,1.7058,0,0,0-.2.693c-.1892-.0062-.3837-.0322-.2923-.2913.1-.2824-.1277-.1709-.2274-.2155C18.2119,43.6256,18.5055,43.7709,18.721,43.6139Z"/><path class="dm" d="M23.51,45.1048c-.2.1021-.3147-.0167-.37-.177a.3393.3393,0,0,0-.37-.2344.9934.9934,0,0,1,.5186-.0981A.388.388,0,0,1,23.51,45.1048Z"/><path class="do" d="M6.37,62.5393l.2127.2071L4.53,62.7575q.0663-.102.1329-.2041A4.2679,4.2679,0,0,1,6.37,62.5393Z"/><path class="dh" d="M22.4,62.6858a7.6517,7.6517,0,0,1,2.0066.0783L22.41,62.7612c-.0315-.0129-.0435-.0283-.036-.0464S22.39,62.6858,22.4,62.6858Z"/><path class="dp" d="M23.2074,59.9781a.5579.5579,0,0,1-.0015.0914,8.6385,8.6385,0,0,1-1.9154-.1762.1607.1607,0,0,1,.2236-.0427l.7106.0384c.2829.1682.5853.0607.88.063Z"/><path class="dq" d="M20.8634,62.6644a1.6323,1.6323,0,0,1,1.0509-.0005q.057.0333.0361.063c-.0133.0191-.0268.0288-.04.0288l-1.3984.0347.0043-.04a.0992.0992,0,0,1,.0167-.1263.2453.2453,0,0,1,.206-.0307Q20.8,62.6306,20.8634,62.6644Z"/><path class="dr" d="M23.31,55.2024c.32.1628.6641.0412.9945.083a.0638.0638,0,0,1,.0224.0735c-.01.0228-.02.0341-.0294.0341a7.6111,7.6111,0,0,1-1.8136-.1945.3082.3082,0,0,1,.2275-.1467C22.924,55.0478,23.1532,54.98,23.31,55.2024Z"/><path class="ds" d="M24.297,55.393l.007-.1076.1121-.0147q.1983.0022.3965.0048l.1886.0067a.1237.1237,0,0,1,.2114.0064l.0881.0876A1.2906,1.2906,0,0,1,24.297,55.393Z"/><path class="dt" d="M22.6118,57.975l-.3993.0064a.0581.0581,0,0,1-.1-.0031l-.4983-.1155a.0591.0591,0,0,1-.0207-.0655q.0126-.0315.0243-.0315a3.5494,3.5494,0,0,1,1.23.1Z"/><path class="du" d="M19.7059,45.5667l-.1871.6357c-.1794.2553-.2247.0436-.2942-.0844l-.0164-.0347A1.3123,1.3123,0,0,1,19.7059,45.5667Z"/><path class="dv" d="M25.6172,55.2665c-.2184-.3187.0828-.5844.09-.88.0853-.049,0-.2652.1988-.2029l-.002.4C25.7369,54.7813,25.926,55.1284,25.6172,55.2665Z"/><path class="aw" d="M19.32,54.391c.35.0415.7.0774,1.0489.1271.14.02.0512.1139.0358.18A3.0433,3.0433,0,0,1,19.32,54.391Z"/><path class="dw" d="M25.6172,55.2665c.1181-.2182.0618-.51.2867-.6828l.01.7062Z"/><path class="y" d="M22.7174,55.1551l-.2339.0434a3.0257,3.0257,0,0,1-.9585-.2129c.2715-.0812.5219.0745.7865.07a.3714.3714,0,0,1,.1788-.0784.2894.2894,0,0,1,.1861.0584A.152.152,0,0,1,22.7174,55.1551Z"/><path class="bk" d="M25.29,54.3729c.1084-.2493-.1034-.6826.4039-.7026l.0249.0332c-.2121.187-.12.5338-.3682.7019Z"/><path class="bk" d="M25.1079,55.2856l-.1067-.0034a2.6883,2.6883,0,0,1,.2886-.9092l.0294.02C25.4724,54.7434,25.2543,55.006,25.1079,55.2856Z"/><path class="dx" d="M17.5005,38.1093c.0931.0786.2735-.0951.3224.1115a.3837.3837,0,0,1-.4992.1c-.092-.1108-.224-.0973-.3472-.1118A.9935.9935,0,0,1,17.5005,38.1093Z"/><path class="dy" d="M25.5029,37.2025c.2287-.0637.3613-.0564.4018.1343.0068.0319-.04.1081-.0586.1072C25.7081,37.4372,25.6282,37.3412,25.5029,37.2025Z"/><path class="dz" d="M25.9059,54.1835l-.1989.2028.1-.6816C26.0182,53.8277,25.9078,54.0168,25.9059,54.1835Z"/><path class="ea" d="M18.5142,37.3074l.0009-.1714h.338C18.794,37.3454,18.6472,37.3117,18.5142,37.3074Z"/><path class="ay" d="M21.5141,59.8506l-.2237.0426c-.155-.0443-.3356.0131-.4691-.1173l.4882-.0219a.1357.1357,0,0,1,.1957.034C21.5075,59.809,21.5105,59.83,21.5141,59.8506Z"/><path class="aw" d="M18.7114,54.1936a.6049.6049,0,0,1,.6007.1957A1.1687,1.1687,0,0,1,18.7114,54.1936Z"/><path class="eb" d="M8.4373,62.0587a.2947.2947,0,0,1,.2968.2369L8.66,62.36A.2417.2417,0,0,1,8.4373,62.0587Z"/><path class="aw" d="M20.54,54.7331c.2391-.2552.319-.088.3755.1415Z"/><path class="ck" d="M19.4186,39.6188c-.0769.1038-.1935.0961-.3032.1079l-.2362-.025A.9373.9373,0,0,1,19.4186,39.6188Z"/><path class="ec" d="M21.91,62.7557c.0019-.0306.0034-.0612.0043-.0918l.4853.0218a.4594.4594,0,0,1,.01.0755Z"/><path class="af" d="M17.4231,48.4975c.1316.0794.2215.156-.0146.21l-.2013-.102Z"/><path class="ad" d="M25.805,49.0952l.0979.0008-.0012.4985-.0976-.199Z"/><path class="c" d="M20.6943,62.6492l-.17.03a19.4482,19.4482,0,0,1-2.0826.0325c-1.3751.01-2.75.0043-4.1255.0009a.985.985,0,0,1-.4883-.0438l-.2968-.1043a.7772.7772,0,0,1-.5166-.13A14.757,14.757,0,0,1,7.0583,57.01a2.4692,2.4692,0,0,1-.5508-1.6619,4.1643,4.1643,0,0,1,.4152-2.48A6.8267,6.8267,0,0,0,8.13,55.4135c.279.1268.3764.4192.57.6241.2179.1859.3163.4729.5474.6478l-.0133-.0138c.09.089.1792.1794.2688.2691.1816.18.3618.3621.5437.5421l-.0132-.0131q.1375.1386.2755.2769c.1532.1959.391.2891.5617.4634a3.3193,3.3193,0,0,0,.5027.4027c.1064.1378.2916.1711.4026.3028.1071.136.289.1709.4032.2975.1158.0588.1945.1661.3048.2324a8.1425,8.1425,0,0,1,.7992.4693c.4379.1752.7961.5039,1.25.6482.11.0347.1988.1116.3056.1526.2138.0852.4156.1959.6236.2935.2717.081.5177.23.7938.2987.4909.1694.9813.3392,1.4785.4886.4772.1471.9658.249,1.45.3688a3.5251,3.5251,0,0,1,.8386.2071L20.01,62.365c.11.0727.2293-.027.3408.0184C20.4753,62.459,20.7178,62.3823,20.6943,62.6492Z"/><path class="a" d="M6.5075,55.3484A11.3838,11.3838,0,0,0,10.6732,60.75a20.25,20.25,0,0,0,2.858,1.8149c-.1457.1634-.34.0978-.514.0988-.993.0054-1.986.0016-2.9789.0009A13.1488,13.1488,0,0,1,7.011,59.3331a4.1329,4.1329,0,0,1-.8154-2.7013c.0319-.2377-.1165-.3236-.326-.341-.1071.0315-.1371-.0132-.1117-.1128C6.3666,56.2257,6.3061,55.6688,6.5075,55.3484Z"/><path class="ed" d="M6.37,62.5393a2.6022,2.6022,0,0,1-1.7066.0142,2.754,2.754,0,0,1-.0118-1.3842c.2075-.3513.19-.791.4417-1.1248A8.9207,8.9207,0,0,0,6.37,62.5393Z"/><path class="ee" d="M1.659,62.4657c-.1488-.1514-.0977-.3437-.0978-.5207q-.0033-11.7516,0-23.5031c0-.177-.0511-.3693.0978-.5207Z"/><path class="ef" d="M5.7579,56.178l.1117.1128c-.391.46-.23.9931-.1422,1.4857a8.1855,8.1855,0,0,0,.4319,1.2574.1993.1993,0,0,1-.0139.247,5.2649,5.2649,0,0,1-.6909-1.6764l.013-.3372a.7026.7026,0,0,0-.0059-.4839C5.4574,56.5312,5.4879,56.296,5.7579,56.178Z"/><path class="eg" d="M8.3324,47.367l.0014.76A.8682.8682,0,0,1,8.3324,47.367Z"/><path class="eh" d="M5.4616,56.7834a.3728.3728,0,0,1,.0059.4839Z"/><path class="a" d="M93.9821,56.3111a2.3938,2.3938,0,0,1-2.4068,2.55,2.4607,2.4607,0,0,1-2.48-2.6045,2.4458,2.4458,0,1,1,4.8868.0545Z"/><path class="a" d="M63.5075,56.2352c0-.6979.0094-1.3961-.005-2.0937-.0053-.2579.04-.3756.34-.3975a2.2734,2.2734,0,0,1,2.6255,2.4223,2.4617,2.4617,0,0,1-2.6269,2.6149c-.2554-.0155-.3444-.0919-.339-.3526C63.5176,57.6978,63.5076,56.9664,63.5075,56.2352Z"/><path class="ei" d="M33.7046,54.7318q0-.2742,0-.5482c0-.5921.1126-.6766.7036-.5288a1.0314,1.0314,0,0,1,.731,1.2835,1.1772,1.1772,0,0,1-1.2446.9223c-.1911-.0322-.1914-.1437-.191-.2816C33.7049,55.2966,33.7042,55.0142,33.7046,54.7318Z"/><path class="ej" d="M48.83,57.7217l.6909-1.8325c.215.5645.4094,1.08.6078,1.5933.0668.173.0171.2441-.17.241C49.5978,57.7174,49.2369,57.7217,48.83,57.7217Z"/><path class="ek" d="M81.7732,43.3082c.2257.6016.4056,1.0953.5972,1.5844.0755.1926.0372.25-.1777.272-1.1307.1166-1.1481.0994-.7476-.9569C81.5442,43.9462,81.637,43.6822,81.7732,43.3082Z"/><path class="el" d="M10.533,51.9831a3.4083,3.4083,0,0,1,1.2052,1.21A2.3,2.3,0,0,1,10.533,51.9831Z"/><path class="eb" d="M21.6175,57.7658c-.0015.0323-.0027.0647-.0036.097l-.1008.0324-.099-.0028c-.1738-.0027-.3142-.1567-.4989-.11l-.7944-.12c-.0875-.23.0122-.2586.2033-.189A8.5575,8.5575,0,0,1,21.6175,57.7658Z"/><path class="em" d="M15.3237,55.5965a4.2714,4.2714,0,0,1,1.2079.6624q.0843.0636-.0058.1188a10.6464,10.6464,0,0,1-1.391-.6489C15.139,55.6008,15.25,55.6253,15.3237,55.5965Z"/><path class="en" d="M20.3241,57.473c-.11.0178-.202.0545-.2033.189l-1.0472-.36c.0429-.1189.1633-.0794.2447-.12A3.5129,3.5129,0,0,1,20.3241,57.473Z"/><path class="eo" d="M9.7582,50.9566a2.3584,2.3584,0,0,1,.787,1.0393c-.4157-.1542-.5945-.5323-.8192-.867A.1215.1215,0,0,1,9.7582,50.9566Z"/><path class="ep" d="M12.9623,54.1713a3.62,3.62,0,0,1,.9732.6034c.02.1032-.0154.1477-.1228.1173a4.8757,4.8757,0,0,1-1.005-.699A.1141.1141,0,0,1,12.9623,54.1713Z"/><path class="em" d="M17.222,56.4855l1.02.3819c-.0413.1-.1455.0626-.2163.0981a5.324,5.324,0,0,1-1.0765-.3945C17.0139,56.46,17.141,56.5463,17.222,56.4855Z"/><path class="eq" d="M13.8127,54.892l.1228-.1173a2.0121,2.0121,0,0,1,.62.389c.0056.0946-.0591.1467-.1213.2Z"/><path class="er" d="M19.3183,57.1822l-.2447.12a1.807,1.807,0,0,1-.6719-.2134c.041-.1.1484-.06.2167-.1021Z"/><path class="es" d="M11.8325,53.2854c.3007-.0216.4184.2392.6057.3926.0137.1049-.0216.1554-.1338.1206C12.1231,53.65,11.8626,53.5734,11.8325,53.2854Z"/><path class="et" d="M15.3237,55.5965l-.1889.1323-.5076-.3461a.1135.1135,0,0,1,.1032-.1034Z"/><path class="eu" d="M12.3044,53.7986l.1338-.1206c.196.1417.4449.2273.5241.4933l-.1546.0217Z"/><path class="es" d="M9.7582,50.9566l-.0322.1723a1.6954,1.6954,0,0,1-.4036-.5976L9.36,50.346A1.0471,1.0471,0,0,1,9.7582,50.9566Z"/><path class="ev" d="M17.222,56.4855c-.07.0962-.1812.06-.2732.0855l-.423-.1933.0058-.1188Z"/><path class="ew" d="M18.6184,56.9863l-.2167.1021-.3764-.1229.2163-.0981Z"/><path class="ex" d="M14.73,55.2793l-.1032.1034-.1932-.0187a.2424.2424,0,0,1,.1213-.2Z"/><path class="ey" d="M21.9423,52.9769c-.1381.0164-.2968-.0017-.3279.1949A22.45,22.45,0,0,1,18.72,52.19a.087.087,0,0,1,.01-.126c.8489.1468,1.6248.5338,2.4536.7532C21.4366,52.8842,21.7188,52.7993,21.9423,52.9769Z"/><path class="ez" d="M18.73,52.0641l-.01.126c-.2357.0408-.3775-.1992-.5991-.2-.0866-.0638-.2472.0329-.2869-.1323l-1.4108-.7613c-.0155-.1114.01-.1752.1385-.12C17.2808,51.347,18.04,51.6369,18.73,52.0641Z"/><path class="fa" d="M11.7486,47.0956a4.3879,4.3879,0,0,1,.8984,1.07.1042.1042,0,0,1-.0185.1478,5.3533,5.3533,0,0,1-.9964-1.1027C11.6058,47.1061,11.6439,47.0671,11.7486,47.0956Z"/><path class="fb" d="M10.4338,45.3977c.3027-.0307.27.27.3962.4115a2.8847,2.8847,0,0,1,.52.8577.1284.1284,0,0,1-.0281.1685A3.5344,3.5344,0,0,1,10.4338,45.3977Z"/><path class="fc" d="M12.6285,48.3131l.0185-.1478a3.4075,3.4075,0,0,1,.9914.8173c.0307.1048-.0123.1382-.1125.1162A4.67,4.67,0,0,1,12.6285,48.3131Z"/><path class="el" d="M16.5621,50.9764l-.1385.12c-.3177.023-.4543-.2859-.7054-.3849-.0137-.12.0261-.1793.1554-.1373Z"/><path class="fd" d="M14.5614,49.7811c.2219.0857.4743.1261.5761.3894a.1066.1066,0,0,1-.02.1515c-.2315-.1826-.5341-.2663-.7172-.5161A.1216.1216,0,0,1,14.5614,49.7811Z"/><path class="fe" d="M15.117,50.322l.02-.1515a2.4814,2.4814,0,0,1,.7361.4033l-.1554.1373Z"/><path class="eu" d="M13.5259,49.0988l.1125-.1162a1.52,1.52,0,0,1,.5041.4079.13.13,0,0,1-.1152.115A1.2315,1.2315,0,0,1,13.5259,49.0988Z"/><path class="ff" d="M14.0273,49.5055l.1152-.115c.1819.0849.3615.1723.4189.3906l-.1616.0248A.8753.8753,0,0,1,14.0273,49.5055Z"/><path class="fg" d="M11.3221,46.8354l.0281-.1685a.7854.7854,0,0,1,.3984.4287l-.1165.1148A.94.94,0,0,1,11.3221,46.8354Z"/><path class="d" d="M17.8344,51.8573l.2869.1323C17.9075,52.2016,17.8341,52.1094,17.8344,51.8573Z"/><path class="d" d="M10.1409,45.0021a.7445.7445,0,0,1,.1913.4041A.3775.3775,0,0,1,10.1409,45.0021Z"/><path class="fh" d="M23.1059,37.6257l.7962,0c.0642.2075-.1087.3292-.1976.4641-.0866.1315-.0279.2149.003.32l-1.0928.0009C22.6,37.8117,22.4918,37.7257,23.1059,37.6257Z"/><path class="fi" d="M24.6105,40.0125c.2964.0426.61-.0842.8929.0923l-2.4684.0267-.2093-.03c.1976-.3236.3317-.7108.7818-.7821.11.0063.2671-.0213.2463.15C23.7738,40.1256,24.2129,40.0353,24.6105,40.0125Z"/><path class="fj" d="M23.1059,37.6257c-.49.0576-.2642.5628-.4912.7849l-.68.02a.2647.2647,0,0,1-.3155-.0226c.1136-.0548.3276-.1142.3254-.1637-.022-.48.3119-.5458.6567-.6118Z"/><path class="fk" d="M23.7075,38.41c-.2306-.0691-.2411-.1791-.1526-.4045.0755-.1922.2544-.2359.3473-.38l.89.0043c-.41.1283-.5852.5223-.88.78Z"/><path class="fl" d="M21.6192,38.4078l.3154.0226a5.9866,5.9866,0,0,1-1.4.1l-.1055-.02a1.8472,1.8472,0,0,1,.3872-.6888c.1064-.0027.217.0075.2908-.0949.38-.0273.2931.3191.2482.4358C21.2075,38.5459,21.48,38.3875,21.6192,38.4078Z"/><path class="dd" d="M15.317,37.2478l1.7071,0-1.9945.3761c-.206-.19-.21-.2743-.0067-.3409C15.1156,37.2522,15.2215,37.2847,15.317,37.2478Z"/><path class="fm" d="M17.3237,38.32a.86.86,0,0,1,.4991-.1c.212.1406-.2117.6054.3021.592l.1074.0138a3.6015,3.6015,0,0,1-1.106.1978l-.0009-.0108a.7119.7119,0,0,1,.1983-.6932Z"/><path class="fn" d="M14.2219,37.2458l.3976.0007c-.003.159-.1858.3222.0113.4764-.1236.1353-.3056.1193-.46.1587-.175.0447-.4421.1472-.4964-.12a.3783.3783,0,0,1,.3682-.4421A.7317.7317,0,0,0,14.2219,37.2458Z"/><path class="fo" d="M19.4189,39.817l.1907-.1c.3211-.0073.47.1345.3541.4534-.1151.3172.1188.23.2653.2506a1.41,1.41,0,0,1-.6938.1027l-.2136-.0123c-.0462-.16.0793-.1979.1808-.24.1762-.0737-.0184-.0852-.0246-.1262C19.4614,40.0358,19.3685,39.9405,19.4189,39.817Z"/><path class="fp" d="M18.8437,38.7314a.4475.4475,0,0,1,.3759-.71c.1016.1956-.12.558.3032.5876l.1107.02A1.8018,1.8018,0,0,1,18.8437,38.7314Z"/><path class="fq" d="M14.6308,37.7229c-.1186-.0369-.3019.0909-.343-.1441-.048-.275.2274-.2158.3317-.3323l.6975.0012c-.0661.1481-.5543-.0269-.2874.3758C14.92,37.7521,14.77,37.7133,14.6308,37.7229Z"/><path class="fe" d="M14.5324,60.6617c-.5546-.0006-.8456-.4993-1.3-.6886.0012-.0983.0106-.1864.1465-.1194l1.3445.7189C14.6833,60.6532,14.5877,60.6143,14.5324,60.6617Z"/><path class="fr" d="M17.7506,61.8516a3.6474,3.6474,0,0,1-1.52-.4924c-.02-.0859-.0082-.1373.0963-.0913a6.5108,6.5108,0,0,1,1.4989.4919C17.86,61.8391,17.8406,61.8741,17.7506,61.8516Z"/><path class="eu" d="M17.7506,61.8516l.0751-.0918a13.8156,13.8156,0,0,1,1.8064.3989c-.1054.1643-.2878-.0011-.409.0956A4.3748,4.3748,0,0,1,17.7506,61.8516Z"/><path class="fs" d="M8.63,56.0857a2.5827,2.5827,0,0,1-.5-.6722l.0319-.1736a2.1226,2.1226,0,0,1,.5916.7177C8.7823,56.0674,8.739,56.108,8.63,56.0857Z"/><path class="ft" d="M13.3786,59.8537l-.1465.1194-.8089-.4726a.0961.0961,0,0,1,.0235-.1532A2.8682,2.8682,0,0,1,13.3786,59.8537Z"/><path class="fu" d="M16.3268,61.2679l-.0963.0913a1.4564,1.4564,0,0,1-.7988-.2923.1521.1521,0,0,1,.1111-.1323A2.1143,2.1143,0,0,1,16.3268,61.2679Z"/><path class="fv" d="M10.818,58.2836a1.47,1.47,0,0,1-.5706-.5115.107.107,0,0,1,.0963-.1035,1.8029,1.8029,0,0,1,.5944.5066C10.9517,58.2708,10.9251,58.3218,10.818,58.2836Z"/><path class="fe" d="M8.63,56.0857l.1234-.1281c.1834.23.4739.387.4937.7278C8.9124,56.6187,8.8072,56.3153,8.63,56.0857Z"/><path class="ew" d="M19.2231,62.2543c.1138-.1287.2783-.04.409-.0956.1423.0491.3882-.0913.3908.2135C19.7238,62.5532,19.4967,62.246,19.2231,62.2543Z"/><path class="fw" d="M10.0467,57.4828c-.3278-.0163-.461-.2686-.6095-.5024a.149.149,0,0,1,.0953-.0828A.8941.8941,0,0,1,10.0467,57.4828Z"/><path class="fx" d="M15.5428,60.9346l-.1111.1323a1.3868,1.3868,0,0,1-.6265-.2811c.0116-.0707.0787-.0828.1243-.1175A1.7056,1.7056,0,0,1,15.5428,60.9346Z"/><path class="eu" d="M10.818,58.2836l.12-.1084a1.3865,1.3865,0,0,1,.5053.3966.1356.1356,0,0,1-.113.12A1.4007,1.4007,0,0,1,10.818,58.2836Z"/><path class="ff" d="M11.33,58.6923l.113-.12a.8846.8846,0,0,1,.3985.289c.0218.1085-.0182.1523-.1284.1224A.886.886,0,0,1,11.33,58.6923Z"/><path class="ag" d="M20.3128,62.48c-.0991-.0434-.2369.0152-.303-.115.2719-.2164.5465-.0814.8206-.0063-.0972.1348-.257.0893-.3854.1341A.1451.1451,0,0,1,20.3128,62.48Z"/><path class="fv" d="M11.7135,58.9832l.1284-.1224.4283.2933a.1488.1488,0,0,1-.1369.1241A1.0693,1.0693,0,0,1,11.7135,58.9832Z"/><path class="et" d="M9.5325,56.8976l-.0953.0828a.299.299,0,0,1-.203-.3088A.28.28,0,0,1,9.5325,56.8976Z"/><path class="es" d="M12.1333,59.2782l.1369-.1241a.2.2,0,0,1,.1765.1932l-.0235.1532Z"/><path class="ew" d="M10.3437,57.6686l-.0963.1035a.2778.2778,0,0,1-.2139-.3024A.3229.3229,0,0,1,10.3437,57.6686Z"/><path class="fy" d="M20.4191,62.4482c.1195-.1106.2767-.0483.4113-.09l.1833.014-.2275.11C20.6592,62.5207,20.5319,62.5605,20.4191,62.4482Z"/><path class="ev" d="M14.93,60.6683l-.1243.1175-.2728-.1241.1907-.0891Z"/><path class="fs" d="M6.345,59.2817l.6167.9591c.0285.1191-.018.165-.1369.14L6.18,59.4675C6.23,59.4014,6.2565,59.3139,6.345,59.2817Z"/><path class="fz" d="M6.8248,60.3808l.1369-.14.3878.5219c.0175.1022-.0162.1495-.1248.1165Z"/><path class="ga" d="M7.2247,60.8792l.1248-.1165a1.4238,1.4238,0,0,1,.4025.4831c.0429.1087-.011.1334-.1061.1223A1.247,1.247,0,0,1,7.2247,60.8792Z"/><path class="ex" d="M6.345,59.2817a.1864.1864,0,0,1-.1653.1858l-.0343-.1866.0139-.247A.3135.3135,0,0,1,6.345,59.2817Z"/><path class="eb" d="M8.1467,61.768a.3205.3205,0,0,1,.3051.305C8.24,62.0811,8.1163,62.0019,8.1467,61.768Z"/><path class="gb" d="M7.6459,61.3681l.1061-.1223a.3322.3322,0,0,1,.1911.317C7.7793,61.5967,7.7041,61.4953,7.6459,61.3681Z"/><path class="gc" d="M19.2246,46.118c.09.057.1592.185.2942.0844l.1.1992a7.0748,7.0748,0,0,0,.7914.8839,1,1,0,0,1,.2977.6084l-.0889.2052c-.4431-.433-.9005-.8528-1.3223-1.3057C19.1312,46.616,19.2367,46.3462,19.2246,46.118Z"/><path class="gd" d="M15.0289,44.9053c.0035-.4352-.44-.8361-.1-1.2972.1443.0487.26.0642.2767.2962.0215.2988.04.6614.42.7993-.1689.1259-.0725.409-.2974.5016-.2346.0346-.2184-.1812-.2994-.3Z"/><path class="ge" d="M23.3378,41.8266c-.5014-.1166-.0563-.3928-.0838-.588-.008-.0566.159-.1378.2457-.2077l.6027-.0118c-.0414.1509-.4428.0036-.273.3275.0832.1587-.0156.4936.3683.3695a1.0526,1.0526,0,0,1,.3426.0078A5.0352,5.0352,0,0,1,23.3378,41.8266Z"/><path class="gf" d="M21.11,41.3186c.2281.0132.3016.1557.3038.36.0016.149-.0015.303.2029.327a.15.15,0,0,1,.2125.0138,1.5368,1.5368,0,0,1-.6854.1072c-.3693-.0016-.2374-.3172-.3116-.5018C20.7172,41.3392,21.0739,41.4726,21.11,41.3186Z"/><path class="bo" d="M21.8292,42.02l-.2125-.0138c.0446-.0831.1489-.2077.1245-.2429-.251-.3612.08-.4169.27-.5473a.3707.3707,0,0,1,.2.4959c-.0294.1067-.0511.1906.1027.19l.2166.02A1.568,1.568,0,0,1,21.8292,42.02Z"/><path class="gg" d="M17.5232,42.91c.0915-.3021-.23-.742.3-.8979.2434.1791-.025.7254.5026.7005A2.4645,2.4645,0,0,1,17.5232,42.91Z"/><path class="gh" d="M19.1329,42.5175c-.3146-.4485-.2578-.6952.1852-.8054.015.1031.2034.17.0881.2929-.3421.366-.0481.3769.2186.4089A.7626.7626,0,0,1,19.1329,42.5175Z"/><path class="dk" d="M15.0289,44.9053l.2994.3.1.2-.1.099C14.787,45.5251,15.0378,45.15,15.0289,44.9053Z"/><path class="gi" d="M22.6136,43.7021l.2176.0157a.88.88,0,0,1-.5031.097c-.2152.0034-.3944-.063-.443-.2939a.3881.3881,0,0,1,.2242-.5076c.1956.0233.2082.1689.2023.3164C22.3028,43.5468,22.4414,43.6361,22.6136,43.7021Z"/><path class="cs" d="M23.4282,43.617c-.3976-.2547-.2534-.5259-.0242-.7995.1869.0087.165.1308.1877.2726.0366.2291.1038.4845.4418.4286A1.2356,1.2356,0,0,1,23.4282,43.617Z"/><path class="dn" d="M18.6208,44.6061c.1739-.0334.1185.1652.2139.2114l-.21.2C18.7322,44.88,18.3758,44.746,18.6208,44.6061Z"/><path class="gj" d="M24.3152,59.9557l-.2.0016a2.9939,2.9939,0,0,1,.4952-1.7749l.2973-.0021Z"/><path class="gk" d="M25.8043,50.0938v.2992a.53.53,0,0,1-.5154-.0776,17.6723,17.6723,0,0,1-3.1539-2.1764c-.1751-.16-.0865-.29-.0225-.44A15.9885,15.9885,0,0,0,24.87,49.6919C25.17,49.8455,25.4084,50.159,25.8043,50.0938Z"/><path class="du" d="M20.7077,47.8939a5.4608,5.4608,0,0,0-.7713-.861.7665.7665,0,0,1-.3179-.6313A3.0919,3.0919,0,0,1,20.81,47.5958Z"/><path class="gl" d="M22.6088,44.8074a2.673,2.673,0,0,1,.61.9.6087.6087,0,0,1-.3962.1036c-.0637-.2343-.2952-.3391-.4157-.5491C22.2165,44.93,22.4286,44.9056,22.6088,44.8074Z"/><path class="fj" d="M24.5192,45.409a.6516.6516,0,0,1-.3149-.8976c.0537.3184.5981.304.5011.7465-.0141.0643.2028.0268.3106.05A.8378.8378,0,0,1,24.5192,45.409Z"/><path class="dm" d="M23.622,45.6114c-.2764-.1159-.0735-.338-.1123-.5066.35-.0883.3784.2311.5193.4081A.64.64,0,0,1,23.622,45.6114Z"/><path class="dk" d="M15.3281,45.6038a2.31,2.31,0,0,1,.4989.898A.9713.9713,0,0,1,15.3281,45.6038Z"/><path class="dk" d="M15.9268,46.6016a.6484.6484,0,0,1,.2994.5986C16.0152,47.0562,15.8113,46.9088,15.9268,46.6016Z"/><path class="dm" d="M24.6108,58.1824a14.7507,14.7507,0,0,1-.4952,1.775l-.3108.0041q.2226-.7348.4452-1.47C24.3045,58.3113,24.3593,58.1326,24.6108,58.1824Z"/><path class="gm" d="M23.8093,53.502l.2062.0081c.0572.0319.1539.0534.1654.0972.1292.4932-.21.8919-.2894,1.3461-.0452.2592-.2828.2325-.486.213A2.6792,2.6792,0,0,1,23.8093,53.502Z"/><path class="gn" d="M23.8093,53.502a7.7682,7.7682,0,0,1-.4038,1.6645l-.0962.0358-.5917-.0471c-.0033-.022-.0072-.0438-.0117-.0656.0106-.0206.0211-.0412.0313-.062.4038-.2415.4031-.69.524-1.0669.0782-.244.1843-.4117.4437-.4561Z"/><path class="go" d="M20.4191,62.4482l.3671.035c.0256.06.0511.1208.077.1812l-.1689-.0152-.3815-.1692Z"/><path class="gp" d="M22.4118,53.6853c-.34.0349-.2819.3559-.4039.55-.1279.2039-.0488.4992-.2958.6444-.2014-.5359.2028-.9543.2949-1.4334.0233-.1211.2688-.0421.4108-.064l-.0009-.0027A.2647.2647,0,0,1,22.4118,53.6853Z"/><path class="j" d="M21.5052,59.788l-.1957-.0339c.13-.5264.2494-1.0555.3957-1.5772.0336-.12.1943-.0972.3088-.1006.2032.186.0963.398.0457.6015a2.0513,2.0513,0,0,1-.5435,1.079Z"/><path class="gq" d="M21.5162,59.7568a5.99,5.99,0,0,0,.4978-1.68l.0982-.098.1.0031a1.2519,1.2519,0,0,1,.2472.1075c.12.0854-.0113.0668-.0446.088a7.2435,7.2435,0,0,1-.6022,1.593Z"/><path class="gr" d="M23.6075,39.32c-.0844.1149-.2942.1063-.2967.3023-.0039.3193-.2683.376-.4853.48l-.4085.0115a1.1371,1.1371,0,0,1,.2947-.6951l.1871-.09Z"/><path class="gs" d="M24.9052,39.3192h.5874c-.3645.0756-.2531.7791-.7857.5974a.2639.2639,0,0,0-.0062-.0954C24.5344,39.48,24.5337,39.48,24.9052,39.3192Z"/><path class="cs" d="M22.7117,39.4181c.0071.2764.0516.5687-.2948.6951-.309-.08-.2169-.3324-.1838-.5126C22.2833,39.3273,22.5376,39.4473,22.7117,39.4181Z"/><path class="gt" d="M21.414,40.116c-.3866-.357-.1808-.5487.1935-.6932C21.6318,39.6787,21.9545,40.0177,21.414,40.116Z"/><path class="go" d="M13.828,62.669l6.6964.01-.0085.0708-6.6768-.0029Q13.8316,62.7085,13.828,62.669Z"/><path class="dx" d="M17.3237,38.32a1.142,1.142,0,0,1-.1984.6932C16.8218,38.6477,16.8851,38.4264,17.3237,38.32Z"/><path class="gu" d="M21.8129,59.77c.1147-.4251.2246-.8516.3466-1.2745.039-.1351.0584-.3028.2555-.3185A1.9509,1.9509,0,0,1,21.8129,59.77Z"/><path class="gv" d="M22.7059,55.09l-.191-.0268a2.1145,2.1145,0,0,1,.2977-1.5406.5394.5394,0,0,1,.1954-.1187l.397.1021c-.0724.4468-.28.8522-.3929,1.2862a.3672.3672,0,0,1-.2941.2786Z"/><path class="gw" d="M22.718,55.07a7.256,7.256,0,0,0,.4784-1.2523.8956.8956,0,0,1,.2086-.3125l.3-.001c-.3933.306-.3564.7983-.5,1.2071C23.11,54.9811,22.99,55.0984,22.718,55.07Z"/><path class="cy" d="M23.008,53.4035l-.0958.0833c-.1517.1038-.2672.2991-.5.1987l0,0a.2834.2834,0,0,1,.0051-.3054Z"/><path class="ck" d="M19.4189,39.817c.26.2725.291.5129-.0974.6944C19.1578,40.2524,19.3407,40.042,19.4189,39.817Z"/><path class="gx" d="M20.8162,37.8218c-.008.2978-.0069.6008-.3874.6889h-.2982C20.3519,38.2623,20.2483,37.7068,20.8162,37.8218Z"/><path class="gy" d="M22.4121,53.6855c.1558-.0937.2936-.2327.5-.1987l-.3974,1.576-.2034-.0072C22.0224,54.5752,22.31,54.1371,22.4121,53.6855Z"/><path class="gz" d="M25.1079,55.2856a4.7264,4.7264,0,0,0,.2111-.8928c.1941-.1945.0741-.5709.3994-.6894a8.2593,8.2593,0,0,1-.5059,1.5851Z"/></svg>