<svg xmlns="http://www.w3.org/2000/svg" viewBox="0 0 89.9313 25"><defs><style>.a{fill:#ffcb05;}.b{fill:#fff;}.c{fill:none;stroke:#fff;stroke-miterlimit:10;stroke-width:0.3819px;}</style></defs><title>opceLogo</title><path class="a" d="M17.4739,9.8368c.3056-.42.592-.8211.8976-1.2413l6.13-8.4791A.2617.2617,0,0,1,24.75.0018h10.007c.1527,0,.1718.0382.1718.1719v6.684c0,.1528-.0382.1719-.1718.1719H32.4461c-.1528,0-.1719.0381-.1719.1718v10.58c0,.1527.0573.1718.191.1718h2.2917c.1527,0,.1909.0382.1909.191V24.809c0,.1528-.0382.191-.1909.191H21.9618c-.1337,0-.1719-.0382-.1719-.1719V18.125c0-.1337.0382-.1719.1719-.1719h2.5208c.1146,0,.1719-.0191.1719-.1527V11.0018a.208.208,0,0,0-.0191-.0955c-.0955.0382-.1146.1146-.1719.1719-2.2917,3.151-4.5642,6.2447-6.8559,9.3576-.1337.1909-.1337.1909-.2865,0q-3.38-4.6407-6.7986-9.3194a1.3309,1.3309,0,0,0-.1527-.191c-.0573.0382-.0382.0955-.0382.1337v6.7222c0,.1337.0382.1718.1718.1718h2.5018c.1337,0,.1719.0382.1719.1719v6.684c0,.1337-.0191.191-.1719.191H.191c-.1337,0-.1719-.0191-.1719-.1719V18.1059c0-.1337.0382-.1528.1528-.1528h2.33c.1337,0,.1719-.0382.1719-.1718V7.2014c0-.1527-.0382-.1909-.191-.1909H.1719C.0382,7.0105,0,6.9723,0,6.8386V.1355C0,.04.0573.0018.1719.0018h10.026a.256.256,0,0,1,.2483.1528q3.18,4.3827,6.34,8.7656C17.0347,9.2257,17.2448,9.5313,17.4739,9.8368Z"/><path class="b" d="M53.8013,4.1683c0-2.4088.9158-4.1389,3.9352-4.1389s3.9353,1.73,3.9353,4.1389V20.7914c0,2.4086-.9159,4.1387-3.9353,4.1387s-3.9352-1.73-3.9352-4.1387ZM56.04,20.7235c0,1.357.2714,2.307,1.6962,2.307s1.6962-.95,1.6962-2.307V4.2362c0-1.3572-.2713-2.3069-1.6962-2.3069s-1.6962.95-1.6962,2.3069Z"/><path class="b" d="M65.1322.233h3.5621c2.8837,0,3.7318.95,3.7318,3.7316V9.9694c0,2.7818-.8482,3.7316-3.7318,3.7316h-1.323V24.7266H65.1322Zm3.3247,11.5684c1.0177,0,1.73-.2716,1.73-1.5267V3.6593c0-1.2551-.7125-1.5266-1.73-1.5266H67.3713v9.6687Z"/><path class="b" d="M79.3128,3.49c0-1.0516-.3732-1.5606-1.2553-1.5606s-1.2551.509-1.2551,1.5606V21.47c0,1.0517.3731,1.5606,1.2551,1.5606s1.2553-.5089,1.2553-1.5606V18.0434h2.2391v3.4944c0,2.0693-1.1535,3.3923-3.4944,3.3923s-3.4942-1.323-3.4942-3.3923V3.4219c0-2.0693,1.1535-3.3925,3.4942-3.3925s3.4944,1.3232,3.4944,3.3925V6.6448H79.3128Z"/><path class="b" d="M83.9944.233h5.9369v1.9H86.2335V11.055h3.5281v1.9H86.2335v9.8719h3.6978v1.9H83.9944Z"/><line class="c" x1="44.4582" y1="0.0018" x2="44.4582" y2="24.9618"/></svg>