<svg xmlns="http://www.w3.org/2000/svg" viewBox="0 0 62.104 25"><defs><style>.a{fill:#fff;}</style></defs><title>pillarLogo</title><path class="a" d="M26.697,5.9958h-.1136a1.2894,1.2894,0,0,1-.6785-.3393,1.23,1.23,0,0,1,0-1.6971l.3393-.2829V3.5637h-.6215c-.0571-.0572-1.1321-2.545-1.1321-2.6022V.2258A.0558.0558,0,0,0,24.437.17H23.19a.0556.0556,0,0,0-.0564.0543V19.74a.0557.0557,0,0,0,.0542.0565H23.19l3.5071.0571V6.0515c.0564-.0571.0564-.0571,0-.0571M35.6334.17H34.3891a.0557.0557,0,0,0-.0571.0536V.9623S33.2577,3.45,33.2013,3.5637h-.5657c.0571,0,.1135.1128.3392.2828a1.2289,1.2289,0,0,1,0,1.6964,1.5394,1.5394,0,0,1-.6785.3393h-.1129a.0557.0557,0,0,0-.0571.0543h0v13.69l3.5071-.0565c.0571,0,.0571,0,.0571-.0564V.2265a.0557.0557,0,0,0-.0542-.0571h-.0029M3.62,5.7694V7.2965A6.4416,6.4416,0,0,1,5.77,5.8822,5.8241,5.8241,0,0,1,8.2014,5.43a6.3057,6.3057,0,0,1,4.8071,2.0928,7.4451,7.4451,0,0,1,1.98,5.3164,7.3,7.3,0,0,1-2.0357,5.26,6.5109,6.5109,0,0,1-4.8643,2.0929A6.0509,6.0509,0,0,1,5.7693,19.74,6.7048,6.7048,0,0,1,3.62,18.3257V25H0V5.7694H3.62M7.4664,8.6536A3.881,3.881,0,0,0,4.6378,9.7851a4.0971,4.0971,0,0,0-1.1307,2.9978,4.33,4.33,0,0,0,1.1314,3.0543,3.6694,3.6694,0,0,0,2.8279,1.1314,3.5942,3.5942,0,0,0,2.7714-1.1878,4.2874,4.2874,0,0,0,1.1314-2.9979,4.0531,4.0531,0,0,0-1.1314-2.9414A3.5939,3.5939,0,0,0,7.4664,8.6537M18.7785,0a2.2651,2.2651,0,0,1,1.64.6786,2.1761,2.1761,0,0,1,.6785,1.6407,2.2909,2.2909,0,0,1-4.5814-.0529V2.263A2.32,2.32,0,0,1,18.7785,0m-1.81,5.7693h3.62V19.8529h-3.62Zm31.9.1128h3.5636V19.6836H48.8683V18.2122a7.5669,7.5669,0,0,1-2.0928,1.4143,5.9789,5.9789,0,0,1-2.2621.4528,6.1877,6.1877,0,0,1-4.7514-2.0928,7.0363,7.0363,0,0,1-2.0358-5.1472,7.1334,7.1334,0,0,1,1.9229-5.2035A6.333,6.333,0,0,1,44.4005,5.6a7.1276,7.1276,0,0,1,2.4321.4521,8.0335,8.0335,0,0,1,2.0929,1.4143V5.8822M45.0791,8.7108a3.7513,3.7513,0,0,0-2.7714,1.1307,3.97,3.97,0,0,0-1.075,2.885,4.1483,4.1483,0,0,0,1.1314,2.9407,3.5485,3.5485,0,0,0,2.7714,1.1314,3.7517,3.7517,0,0,0,2.7714-1.1314A4.0968,4.0968,0,0,0,49.0383,12.67a3.92,3.92,0,0,0-1.1314-2.885,4.0776,4.0776,0,0,0-2.8285-1.0743m9.4463-2.8286h3.1107V7.6358a4.0157,4.0157,0,0,1,1.3007-1.5836A3.1762,3.1762,0,0,1,60.69,5.543a3.4382,3.4382,0,0,1,1.4143.3392L61.029,8.8236a1.991,1.991,0,0,0-1.0179-.2828,1.5572,1.5572,0,0,0-1.3571.9614,8.7475,8.7475,0,0,0-.5657,3.9029v6.2785H54.524V5.8815"/></svg>