<svg xmlns="http://www.w3.org/2000/svg" width="100" height="100" viewbox="0 30 0 60" preserveAspectRatio="xMinYMin meet">
  <switch>
    <g>
      <g fill="#FFF">
        <path d="M43.903 40.894h-.159a1.806 1.806 0 0 1-.95-.475 1.722 1.722 0 0 1 0-2.376l.475-.396v-.158h-.87c-.08-.08-1.585-3.563-1.585-3.643v-1.03a.078.078 0 0 0-.075-.078h-1.746a.078.078 0 0 0-.079.076v27.322c0 .043.033.078.076.079h.003l4.91.08V40.972c.079-.08.079-.08 0-.08M56.414 32.738h-1.742a.078.078 0 0 0-.08.075v1.034s-1.504 3.483-1.583 3.642h-.792c.08 0 .159.158.475.396.634.665.634 1.71 0 2.375a2.157 2.157 0 0 1-.95.475h-.158a.078.078 0 0 0-.08.076v19.166l4.91-.079c.08 0 .08 0 .08-.079V32.817a.078.078 0 0 0-.077-.08h-.003M11.595 40.577v2.138a9.018 9.018 0 0 1 3.01-1.98 8.152 8.152 0 0 1 3.404-.633 8.828 8.828 0 0 1 6.73 2.93 10.423 10.423 0 0 1 2.772 7.443 10.22 10.22 0 0 1-2.85 7.364 9.115 9.115 0 0 1-6.81 2.93 8.473 8.473 0 0 1-3.247-.633 9.388 9.388 0 0 1-3.009-1.98V67.5H6.527V40.577h5.068m5.385 4.038a5.433 5.433 0 0 0-3.96 1.584 5.736 5.736 0 0 0-1.583 4.197 6.061 6.061 0 0 0 1.584 4.276 5.137 5.137 0 0 0 3.959 1.584 5.032 5.032 0 0 0 3.88-1.663 6.002 6.002 0 0 0 1.584-4.197 5.675 5.675 0 0 0-1.584-4.118 5.032 5.032 0 0 0-3.88-1.663M32.817 32.5a3.171 3.171 0 0 1 2.296.95c.629.596.974 1.431.95 2.297a3.248 3.248 0 0 1-3.167 3.167 3.244 3.244 0 0 1-3.247-3.242v-.004a3.248 3.248 0 0 1 3.168-3.168m-2.534 8.077h5.068v19.717h-5.068V40.577zM74.943 40.735h4.989v19.322h-4.989v-2.06c-.859.82-1.85 1.489-2.93 1.98a8.37 8.37 0 0 1-3.167.634 8.663 8.663 0 0 1-6.652-2.93 9.85 9.85 0 0 1-2.85-7.206 9.987 9.987 0 0 1 2.692-7.285 8.866 8.866 0 0 1 6.652-2.85 9.98 9.98 0 0 1 3.405.633 11.247 11.247 0 0 1 2.93 1.98v-2.218m-5.385 3.96a5.252 5.252 0 0 0-3.88 1.583 5.559 5.559 0 0 0-1.505 4.039 5.808 5.808 0 0 0 1.584 4.117 4.968 4.968 0 0 0 3.88 1.584 5.252 5.252 0 0 0 3.88-1.584 5.736 5.736 0 0 0 1.584-4.196 5.489 5.489 0 0 0-1.584-4.039 5.709 5.709 0 0 0-3.96-1.504M82.862 40.735h4.355v2.455a5.621 5.621 0 0 1 1.821-2.217 4.447 4.447 0 0 1 2.455-.713 4.813 4.813 0 0 1 1.98.475l-1.505 4.118a2.786 2.786 0 0 0-1.425-.396 2.18 2.18 0 0 0-1.9 1.346c-.555.95-.792 2.772-.792 5.464v8.79h-4.99V40.734"/>
      </g>
    </g>
  </switch>
</svg>
