<svg xmlns="http://www.w3.org/2000/svg" viewBox="0 0 91.8559 25"><defs><style>.a{fill:#ffcb05;}.b{fill:#fff;}.c{fill:none;stroke:#fff;stroke-miterlimit:10;stroke-width:0.3819px;}</style></defs><title>umsiLogo</title><path class="a" d="M17.4736,9.8366c.3057-.42.5921-.8212.8976-1.2413l6.13-8.4791A.2622.2622,0,0,1,24.75.0018H34.7563c.1528,0,.1719.0382.1719.1717v6.684c0,.1527-.0382.1718-.1719.1718H32.4455c-.1526,0-.1717.0382-.1717.172v10.58c0,.1528.0573.1719.1908.1719h2.2917c.1528,0,.191.0382.191.1909v6.6654c0,.1527-.0382.1909-.191.1909H21.9615c-.1338,0-.172-.0382-.172-.1718V18.1244c0-.1336.0382-.1718.172-.1718h2.5207c.1146,0,.1719-.0183.1719-.1528V11.0013a.2066.2066,0,0,0-.0183-.0955c-.0956.0382-.1147.1146-.172.172-2.2916,3.1508-4.5641,6.2445-6.8558,9.3573-.1337.1911-.1337.1911-.2864,0q-3.38-4.6405-6.7984-9.3191a1.345,1.345,0,0,0-.1528-.1911c-.0574.0382-.0383.0955-.0383.1338v6.722c0,.1337.0383.1719.172.1719H13.005c.1337,0,.1719.0382.1719.1718v6.6847c0,.1336-.0184.1909-.1719.1909H.1911c-.1338,0-.172-.0184-.172-.1718V18.1053c0-.1336.0382-.1527.1529-.1527h2.33c.1337,0,.172-.0382.172-.1719V7.2011c0-.1529-.0383-.1911-.1909-.1911H.172C.0382,7.01,0,6.9718,0,6.8382V.1352C0,.04.0573.0016.172.0016H10.1977a.2557.2557,0,0,1,.2483.1527q3.18,4.383,6.34,8.7654C17.0343,9.2254,17.2445,9.5309,17.4736,9.8366Z"/><path class="b" d="M59.43.2307h2.2343V21.4288c0,2.7118-2.0434,3.4948-3.9722,3.4948-1.8715,0-3.8958-.783-3.8958-3.4948V.2307H56.03v20.491c0,1.7569.5728,2.3106,1.7,2.3106,1.1458,0,1.7-.5346,1.7-2.3106Z"/><path class="b" d="M73.4847.2307h3.4566V24.732h-1.967V2.14h-.0765L72.32,24.732H69.5316L66.9536,2.14h-.0764V24.732H64.93V.2307h3.4566l2.5209,21.9232h.0764Z"/><path class="b" d="M84.5036,3.5917c0-.9553-.2291-1.6613-1.2985-1.6613s-1.2987.7065-1.2987,1.6613V6.17a4.2463,4.2463,0,0,0,.5157,2.1961l3.571,6.111a5.7547,5.7547,0,0,1,.8212,2.9791v3.8763a3.2767,3.2767,0,0,1-3.59,3.59c-2.4827,0-3.6667-1.1269-3.6667-3.59V17.9717h2.2343V21.199c0,1.1458.4393,1.8333,1.433,1.8333.9165,0,1.3557-.6875,1.3557-1.8333V17.7807a4.4275,4.4275,0,0,0-.6492-2.349l-3.2848-5.729A5.6405,5.6405,0,0,1,79.6912,6.59V3.63A3.1766,3.1766,0,0,1,83.2242.04c2.5016,0,3.5328,1.1838,3.5328,3.4183V6.5708H84.5227V3.5917Z"/><path class="b" d="M89.6216.2307h2.2343V24.732H89.6216Z"/><line class="c" x1="44.4575" y1="0.0016" x2="44.4575" y2="24.9612"/></svg>